<mxfile host="65bd71144e">
    <diagram id="Lu83tjWo-Wz-DkkKe9Yt" name="第 1 页">
        <mxGraphModel dx="1323" dy="1161" grid="0" gridSize="10" guides="1" tooltips="1" connect="1" arrows="1" fold="1" page="0" pageScale="1" pageWidth="850" pageHeight="1100" math="0" shadow="0">
            <root>
                <mxCell id="0"/>
                <mxCell id="1" parent="0"/>
                <mxCell id="2" value="" style="shape=image;verticalLabelPosition=bottom;labelBackgroundColor=default;verticalAlign=top;aspect=fixed;imageAspect=0;image=data:image/png,iVBORw0KGgoAAAANSUhEUgAAAS0AAADqCAYAAAD3eRNWAAAgAElEQVR4nOy9eXRU153v+9lnqCqpNEtICMQ8GWxjG0yMbQZPwRhsY+Mpc+IM3Yk7uel0v5v0Wsl6/VZu1ut+Pdzu1blJOu4M3fEQO0k7bYPBA5g2xgPYZjTGGAuEAUkg0FCaajhn7/fHPufUoJKQZDuhQF/WoVR1pn323ue3f/NPSCmVEIIxjCEXSqng098GO+6DzqHBrj2GCwv+PMr9zNxv/cFbNYaCgRBiSILkExrDMMaI1hg+FAw11/x9Y0RrDENiOMRICPGBidYHOf+jJnhDtW049z7bs40R7JFhjGiNYdjIfPk+DJHww8Ifux357j+S/vljt78QkNlHxh+xHWMoYHwY3NWH1Y4/9v0zt8zfx/DRQIwp4scwXAwlxozNoTTOJS70fMQYpzWGMYwSgxHx0RKsMd3W8DBGtMYwhlHgo+Cmcq+XScTGCFoaY0RrDMPGmMijoZSit7cXKWXw3f/M/Hu0SCaT7N27l9dff52enh5grO8zMUa0xjAinCsK+D8WlFKkUikeeeQRpJQBx5WPK1JK4ThO1j4pZUDs/GNc181y4N2zZw8PPfQQW7ZsobOzM+v4fO35Q29/bFgX8gQcw+hxIc2bzBfVcRxefPFFvvOd73DRRRdRXV1NfX09hw4d4qqrruLo0aP09/djmibvv/8+rusSCoVYtmwZTU1NNDY2IqVk7ty5NDQ0sG3bNvr7+wmFQlx77bUYhsHjjz9ORUUFn/70p6mpqRmUWFyoC8iYn9YYxnAWZHJSqVSKHTt2kEqleOmll5gzZw5CCH7wgx/w+9//nscff5zq6mp6e3vZtGkTCxcu5LXXXuPyyy/nxz/+MclkkkQiweTJk/nWt77FD37wAxYuXMjevXupr6+nsbGR1157jaVLl7Jjxw5Wr14dRBycC1zOuYAx8XAMYxgGfI6mqKiIP//zPyccDvOd73yHu+66i2nTphGLxXjjjTfYsmULCxYsIB6PM2PGDL773e9i2zbt7e2sX7+eG2+8kZUrV3Lw4EG6u7vp7Ozkr//6rykpKWHfvn28+uqrnDp1iv379/Pyyy9nKfwH8wm70DDGaY1hDMNEEPtmWViWxfbt26moqODiiy/m05/+NH//939POBxm1qxZPPPMM3R2drJjxw6SySS2bdPQ0MCvf/1rpkyZwjXXXINhGCilAoV7VVUV3//+92lsbOTzn/88K1euvKCJ02AY47TGMIYRwrIs7rzzTl544QXefPNNAFatWsW+ffu44oorKCkpQSlFc3MzmzdvZu7cuVRVVfH1r3+d2tpaGhoaaGhooLS0lKVLl/L8888za9YsFixYgFKKyy+/nOrq6jFxcBAINdYzYxjDiNHf38+ZM2cIh8N0d3ezfft2nnzySb73ve8xd+5c/uEf/oH+/n6++MUvUldXh2maAMRiMRKJBOFwmPLycqSUnDp1isrKSoqLi1FK0dHRQTQaJRQKZd1zjOvSGBMPxzCGUaCoqIiGhgYA9u3bx3PPPceaNWu4+OKLAbjooosAmDRpUlaKn6qqqqzrmKbJxIkTg++Zx4zxE/kxxmmNYQwfEMlkEtM0s6x8UsoPJc/YGAZijGiNYQyjRKZjaaZLQr5wnNEQr9xXc4wAaoyJh2MYwwfEYKmBP6zrjiEbY5zWGMYwhoLCmMvDGMYwhoLCGNEawxjGUFAYI1pjGMMYCgpjingFChDo/wZT8CkUgj+iYtRrZ7qxMJSe1t+lVPrZBj7dmKJ3pBiuCnhMif7R4YImWqdOtbFv7z7AoLKyAgz9kisjO5GbQqGkQggDBRhpkoCf6UgA4gPaNPzT870YSoFSApRCGAKBQBjZL0fme2IAwjBwpcRQEC0pZurUBkKhUMY5F/TwAyN3K/gwS52N9FrDdp3wb3Oe0s3zdtb6zn258Af+5MmT/P73T/Lmm29SWlLO5MlTUMIbbUuiFEjpoqRCKomSmlxJpTA8qVoqhStlBrWRpFmiEULo0xUKKVXuLg/6vkIYGIaBaRoIYQDKc2TU51mmhWGamIaB67q4rkNNdTWtJ1uoq63V6VSyL3zBIRaL0dvbC2QXpc0tk5bv76F+G8n+fBiKKJ2dYPmOrfq+RUVhysrKsG17xO04l1HQLg+pVIqmpiZ6e3sxTTPIJFlaWsqUKVOwrIE0WSlFMpnk4Ycf5t1332PJkiVUV9VhCANp6POVcAACYuVKF4FAKVNPRJUmWtJ18amUJmCa8IwUmaJn7vlCKO+lMr2JayAQwWQUSgYEyDQMQqEwlmUFWTJTTgLTMNi7Zxctza1873vfxQ5ZQ4qX5yuUUuzYsYP9+/fjui5VVVVYloXjODiOg5QS13WzvmdmIPX3w8AspEOlX87ny5Wb3C837UxWrT/DX6jSnvemaWKaJpZlYRgGlhXCEEYwFwwDotEo8+bNY9q0aXkX8UJEwXJaSil27drF7373O3p6eohEIkHe7ttuu43p06fnPU8IQVNTE++++y533X0vpmGihO6GgFgIf/Jpkcv/BNO7uci5JsHxZ283o+BwVKBT08QtwwsbMFT+dLz+pLZDJgjB0uXLeeSRRzh1po0J9fWI81yMyIVSip07d/Lcc5s4fuIE06fNJBotx3EFritJJlLEEwlSqRSJRJxUKhUQq2QqietKXNfBdVxA4DipgID5109z5T7xSndymgaJ4PfMOWMYPrHShMcQ2WFAfkocy7YwDYNwOIJlWYTDYWzbJhRShGw7WMyOnTjOiRPHOd7cwvz587n26sUffqf+EVCwRKu9vZ2f//znVFZWMn36dCKRSJBPe/78+YOy0n7+oiVLliAMAyXAzZpMYKiw/vTFBgCVmcFS5lxzuK3W+ZMU3ioqcq4jz6JPQYJHqDIp5dl0Hcp7gJ5EP9evuJHWtjbGjR9PCP8lGW77Cxc+V/PYY4+x+ta1RIqKMISn3zPSnE224OEvXpowKU88V1ITFqWcAfcY6vuHoS8ThgFIvXQJc8hjZ86bRzKZ5EhTI+s2PsPFcy+ivLy84I0EBUu0Xn75ZSzL4q/+6q8oKSkJWHyflR8KR48e5aabbsoYvGyWQ/mfeWLJNIFIH59LMFTG/2lkTxJXSnp6uimvKM3e74sFg7ZcE6zgZRAChGAkVs329nYmN0zWbS5YxcDo0NTURElJCdGyUq1+9LlWb/+gmpJgXLxP09MtMjTR+OgwPDFPCM2NzZ17MWUl5ezZs5vly5d/xG376FGQQq7jOGzZsoVvfetblJWVBbmKfPk+EokMeq7ruqRSqewKJ0KRlpU00VI+gcDTXXkT+uDBd3njjddRStLf38/+/fuRUuYocVV6U2lFvQIwBN293ax7+mkkEiUUyqMfEoH0CGH2JgLLYUBIwTcppnUoIv8WPKYQvPPOQcorKzBEQPMuCEgp2bx5M3PmzMFVCikUSgikkTVa2dsg/XnW/R/5JlDDsiKagInAZsqUGTQ2vocaRJVQSChIotXT04PrusyYMSOv4vJsFphkMklfX1/mrxAQKl/fkH977rln+N//+Pd0tLdz6uRJHn30Ua3X8HRVAl8hq4UJJSVKSlASN5XAQNLT1clvf/0oQjooJ4WQDiYSUygM5SJdB6FkQFSUkkjpIgxBynE0AfV3CoEyBFIM3mr/+YQSnDl1hpAV1jzCBUKwQC9oBw8epLKy0uuOHDF7SAiyOmuQr8PZ9u3dx+HGRgwhRnSeGHjbIWZphuwQPJ8gmUyR1qcVLptdkOJhc3MzV1xxBTCQQJ1NXjcMg/7+frq6uiivrNY/Ks2p+VxJ4G8lsgdWKpd4oo/urk5efWUb06fPoenwYUxh8NorrzB91nSqqqt5Y+ebVFdXUVNeybaXXiJaWkoykSCViHPRRRcRiURw471se2ETiUSC6upqPvaxjyFR7Ni+nTNnOjEMg9kXz2Xy5Mm8/sYOTp1sZeas2TQ1NWEYJjfccH2gcPVVYcZg0o33YIYyMZRAJjN3Dtld5w2UUvT392u9VY64P9TKredTrrogW50wWL/nFm4VQvD4r3/NjBkzmDFt+pAuFsFv6Z3pNnni6Vmt1D6zrxTC1MaGTCNAoQ5+QRKtI0eOBERrNLmKuru76e/vJz1o2ecPOqRK4ToOS5Ys4YUtm5k0aaoWs4AHH/wpn/3i51i6dCmPPf4YixZdyaWz5/KDH3yf29fcwdatW6muquLKhQu5++61JJP9vPzyNpRSHDt2nIaGBpIpxS9/+QsmTphEZ1cnr+/eybe//W0OHjzIg//6E2659TZsy+LFrVu5ctFCqqqqg/YOV69VEi2lt6eb6uroBSMa+kgkEjm/DJ/bUErx1r59lJeXc/rMaerq6pg4YQLd3T00nzjB3IsuIh5PcOTIEWbOnElzczPJZIL+eJxQKEwyEefiiy8h1t1NV1cXO3fuJBIJM3v2bEKhEMlkiiNNh+nt6WPcuHFMmFBPT08vjY2NlFdUkEql6OvtZcaMGZSWlw+31QEhDIX0q67flcLlsqBAidaJEyeCenMjhRCCM2fO+N/0h/IVqp61SGTtzTpXAXPnzubYc00cPLAfQyhQLol4P0roFa0/4f2NwjIt7r7rDvbu2cn8Sy+lra0NYbrYIYP77/8ClZWV/NmffYMDBw7Q1naGM6dPcvfatZw6dYqfPfQQ3/zmN/js5z/Dfzz070xomMhnPv0ZIsVFYBiBnk0xfOXUuNo6erpjCDW+UBfaUUEpRSwWy54zYmRE6yc/+jGXXnopse4uhIC/+NZfcPz9ozz08EP8zf/7N7S3t/PLX/6S7373uzz77LN098Q4ceIEs2bNYt++vfzt3/wdhhA0NjYC0N5xmhUfX8HSpUt5440d/PeL/41t25iGyX333UcikWL9+vUopaipqaG5uZlFixZx+5o1ml862/hl6Wm1f+L5gILUaZ06deoDOcr19vZ6RQOytQC5OoOB0A6dZWXlLFu6nA3PbESYBlKAFQ7hJFNIx8WJJ1ApR4fbCBE4BVpmGNcF6UJxcSnjauoAg3CoiEQ8heu49PX18fbb++nq6uTG669Hq1INTAUrb16JZVl87YEHtG4maNXZ2h2YFKiqqsBxUoPsP38hhCAej2vHTPLriAaH7pu9e/cQDodZtmwpGzdupL3jDL19vRw8eBCpFPF4P/v27cVxU7x/7Bj9fb2cbG2hrLSYvXt3093Tjes69PX1cf311zGhfgK//Pd/J56I89BDvyKVTDL3oovYtWsXO3bsoKammukzprPt5ZeZPHkyc+fOZc+ePVmi4nDhF4k9H1CQnFZ7ezuWZY1KNPTP0S99YOwG0gvTYCuYVGCZNqYR4vobbuKR3/yWyspKpAETJk9i95s7CZkWsdPtHH3vMHNnzg68lzXxioCyka5BMuHyxhu76ezsJJVSTJs2i5qaDmpra5k5awblZeWEI0VEw2F2bHsFkZK89dY+ent7mD59RhaNMdRwiBYgHOyQgTnAUl/YOo7hQAiBZVl6LEb8zntuLkJx7333UBKNEg6FaW8/Q+ZApJykF42qj6+fMJ6j7zcxeepETEt5/l6KSy69mCuuuJzx9XX815NP0t/fy/ETx7j4knnEE/1MnTaV7p4eSkpLmDZtKtHiYq6//noADh8+PCoJw3Gc84bTKkii5bsYjBaVlVWUlpZhCMNzHs1xAhxwRtoGN23aNKqrahhXU8vNN6+kr68PIQQ333wzz214mjffeIPLL7+cZDJJKBTi6quvJhqNMn/+fKZPm0ZZWSnRaAlz5szhtde2k0gkWLVqFbNnz8ZxE9x4403s2rmb4uJiqqprWHDFAnbu2s0ll8xn7569mIbJNM/bXwRtGxbJQgjo7OwkFLJ9n4nBjhx2XxYSfO409+mGomF6kUt/N00dXSCEQEpFOBwmmUxw7Ngx3nuvEaUUXV1pMVQphWGYGbokhZNKcaqtje3bt1NbW0soFKK6upoDB96hqKiYKVMmc+klF9PT00NHRwe2bdPR2cnECROYP3/+qGIaHcfBtkNnP7AAUJBE64OESwohCIXCnDnTzvi6CQgEhu8SOoguKyBawuD6G26gyLQxhM2nPvkp4okkQhgsXryYmVOnYJomYdumr7ePmpoavvnNb1JXV8sXPv8FIuEqUqkU1TWlfOMb30RKSTQapb6+3oslE3zm05+lubmVZCJJSWkJpmlz661rWHXLraRMfbz/QhhIry/OQrR81Z1yefnll1h9y83ei3hhEa2amhpgoCrrbLohf75NnTo1qArd0NBAOFxEaWkJEybU8+xzG4n3J6mqqubIkcOMq6mhrKyM2tpaioqKmDx5MqZpUDOuho6OLl7auo3tO15l7dq1hMNhbrnlFt58802KiiIopaitG8fxY8c4cuQI5eXlbH/tNW6//XZs287juX92pJIpSqKlZz+wAFCwROuDcFtKKnbt3MWKFeOxLDPj3fX8vIK4sAwzswCQVJSXYLjad6qiXK/cSihsywrq4BlCoKr1uROLiwHJ+Pp6BDo8SKoU06ZP867r80v6HwImTKwHBcLQq/OkSRNACKQnB0ptx84iLWlX2IznDPZJFNB8vIUdO94YYsU9P4kV6LGsqqqmu7ub0opa/1fvc4DJJc93xec+93lMwwQM7vvEp6iuqaW0pIQv3P9ljh07xmXzp9HQMJnSsnKWLF1GNFrM+PqJNDRM4ZOf+iwlJWWsvOUWmo6cQBgmq1ffyuKrr8YwTVbdehu14+s5deoUAIZlY9khpk2bxrRp073MDcMfn1zC5rqudrpWFLxHcUETrdFi0aJF7Nq9i7nHjjN16tTgdxEsuZ4HTJb3sEDgaL8X34tUGcHx2vVBny+DzHvZbYaktz/jur66SQhABmKEMETaDyfwH8PjDL3rCTOYg/p7Tixj8DgSJ5Vi0+YXuXjefMpKc03m+V0/zicopbhozlxef/11bp80I4gr1cgdrJzvQiCEwYqVtyBdicLixptWBrsXL17GYi8WeRGQGZs6Y+ZFICQrVtwKwFWLr+Wqq7zXzs8mIiASLWXZdTcEFmGA2lqYMWtW8H0wf7DBnjdzUT/VdgrTNEfkHnOuouCI1oeRSWf1ravpinXx3qH36O/vJxwpxjRNHFenGlG4OK7reaJLzQNJCdLBlS7KkTiOg6u89CS+P0y+tnmR/1JJlKt05E0eLYoAz8FdIALlvU/M9HfD22cYBoYQmHYIwzAI2WFtqTR0JgjD9I7x0tMgXZqbmzl9uo2vPfA1IpFwnruf/9bDRYsW8eCDD7Ji1W1EwmGdTYEgXhrw51ceYuaNrWEI788MLvzsd8/5rgJCqJTS4qrQtxBDyKrBvBn2O6DnZXcsxgubN/HJu+4odCYLKECiBQR6hdFi+vRpfOXLX+Gdd95l//4DFBenMAyThBeTKKWD6zpIqXQiQOVq4uVKkqkkTipBIpnEkZp4oYTOpeUhq21ebKBUmvAN2uqMIGjfTcIXVoX3VvlEy/QS/IXDYSzbpigSxTQNDFMTNsPW+ZV8p8VEIs6ZM+188hP3sXz5UhQSpUSGXsvfzoMZPQiEENTW1bJq9Spe2/4q1VXVTJ48hdKS0iDsORCplK8r9Dlp77tIc9KZ3PLZPOKHaBVCgKtUMMYDJkgGB69wg/sJoUO3cr3qM9HX10Nrayt7dr1JvL+HhQuvPC+GueCIlm+6/mDKeKgbX8v48bUsXryY/v44juOi/AkiPJ8tw8+gIBFCczfawVSiVAYB8pLz5Zs76Qk3/PYGmUszntHPaKo84uc/h0bGywUgjCAwNpFI0Nffz7hx4yiPliBMkZEuOrul5ztMw+BLX/oS//BP/8ybr+/g+PFjTJgwkZCfTFH4weoi6GOFNmDoDLa+rlNozhk9LpmKfYEn1vtDmPG7IYTHUaUJoCFExrzLFt2Ed3zaEumNu3+fINbWu0+GNkFKSUvLMZqOHiVsWfz5N/8HpaXR84FmFR7RAgiHwx9IpwXenFEQiViEwyVDr0Ai57wcSMhIFDj0JYaaMCN9otxrDuUiqlDeCp1xxuDm0vMSwoBIJMS3/+IveGHLC+zb/xbJeB9uKl9abo+zUZ5IH3BfmmiBF/OZpk8eURLBZPD72ueGgjVI+QRJ4OKJhIGEnnaVyOWgstI/o1WufvZU/d0jaj7xclNcedmlrFmzRluoC9KVfCAKkmiVlJQEGSPz5bwaKfyY2EF5oVw97WDXYDB9VToPVq5PWNYNMiyJ+ZuRM4nzNG9wupufE7zQoJTCti1WrlzBTSs+PmC1yc6N5qUVGsDV67z80idSZC8c+b57N/fET/+AgWOiC6ikb5k5F7K1Dvo6uSmb/Xubpoll6M/RuEicyyhIolVUVITruqPyiB8KSuSZn5Bh4csmCvkmaC5hybFH5p88wcRXWecMOCzPvQfbPyxcgERMZAyiKdDZa3OOyVKxC5GVzjpdAMPAzToye8HJqxbwuK30HMkzAGbW4aOCkUdqKPRspZkoSKIVDofp6en5QFyWp2/12P60YtNXmvuros8h4X8qXdhASkkyldLHSonrODiui+u4SCW9fOIuytXfpSu1Mj5LzFCBJUqgCxUIY+CzCE/E8EUOwzAQholtW5imRSQUJhwKEQpbQZEDPz+8X5jB92vTMZdBLwy404UEkcMl5T0GEVgZNdJjJ9IH4Y9hoNMip05mhmuLIIPfzlz5MlSZwtCin+nF2PpW5/Q1c/QR2baf85qrLkiiVVxcTEtLy6jPlxIOvH2A/W8fIN4fp7y8isrKCoQldGZT16+8oiefrz+TUpJKpUildMBxPB4PjpPSRbmaeCnSugafwPmcYeYGaYJomSaRSAQjJzDQtyQaGaKIT5hsy9LWw1ARxcXFREvsIL7Or9qSTCY5c+YMra2t1NfXU11dzcKFCwdJUXIez/Q8kIFBQ2SNhz9eyWSSeDxOX18f8bgudJFMJpGe1TiVSgXjmg9ny5XlH5NZaSdzU0oRiUSwbT2utle0IhqNZlXlgXS1HtDWTSHFeVN9JxcFSbRs2+b48eOj5LAUnZ0x/uWH/0JHRwzDMJg0aQrjx4/HtE0c10XKjAorOedLVwsFITvk+VRpN4RQyCZkWoQjEV0Bx7a9zA4mhqdXMIQRZH4IgqiFwPAmoOXFtUEGFyBEsNpmOh5K1yXp6KwSbkq/RLFYvyaWnn+ZzlSpOHr0fd599yAV5RVIKZk0aRJ1dXUj7rvzAp7o9PbbB3jrrbdwHCfQkQYcdDJJaWkphmGQSCTo7+8jmUzhOg79/XFc6ZBKOcECJgORUWRxX/54+8p4SPuB+UcapoFpmJhepR09dyws08K0TMLhMJFwBDtkE4kUEbJtKquqsCyT7liMvr4+YrEY8Xgcx3GyiF84HKakpITp06dTVlZGRUXFH6HDP3wUJNEKhUIB0RqpglEpxd69e9i3bx/f+7//H133zgzpFdZTdwyoTef97e/L1KUpQBl6xTZzzH+Zxw0sjuGl2/VWS9+VQeU5T+ts84iN/iqrvHp4puM5lZqBOGlbFguvvJJkKkXju4d48cUXeeONN1i9evWI+u18gVJw+vRpfvLjf+XdQ+9SVVlFzbgaUOB4HLaTcpg0aRJV1VWUlEQpLo5SVVVDOBzGdd0MEc+bGYYxYAHV4jiA70YhA1eWIIIBX4eaVhO4rgwIm4ZWCTiuJNbdAyhOt3cgpcvJlmY6Ojpoa2sjFovhOE6wYNq2TTgcpqamJkhPPmXKFC699NKgpkKhoiCJVklJCW1tbaNWxL/55pssXbqU2lodg6YLs3iTMHB6SROp3Dtk3XMIopnp+JdLXAOXjQwRJRO54uNg1/ev5bouLlpszTQopJ0WFRMmTKJh4mROt50J9HhD2EzPWzz0yKNI4N77PsmsWbOIRIq0KJXRFVINdBb2i7hmFnSVUusrNbHx/OSUxHE0xy6l1Ny76wZEK4i08BfEHAug8NQBwtDceabIaJgmpmlgmTaTp85g2gwTOxTCskyKi4o15+7rwbx50NPTzb59b7F128t89jOf4fLL5n+0HfwRoyCJVmlpKV1dXaM6VylFS0sLS5csDTgrV6S5G6kUpsf5WCKjTiEE+7NcDDIdBjN/I9scnckV5iNkw+EYc6+Rrsyj/3aNjOFM06oATkoxefJ0QiFL1+4zLzyClUql+Lef/4Jf/epXoLwwGmFnukiR82fwt2GBnRsBlRcfbcWb3PKY/nef0/dH1fFUWkXl1Vx59VJaT57kn3/4I/79Zz/90C3vf0hkaeoymdJzGdFodNRZGF3XJR6PM75+/ABCEXzPIEymaeK6Lr19fXR3d5NIxLUVkHR/KalyrDfZK6frusT7+zly5AhNTU1BJaBM3dZwtkEJm6aog54XtAt4a/9bTJ48+by2Lg2F7u4eamtrvX7JtQwOBnWWTQ6y/WHguRkOaJXI2AwhWLZsOVu3bi14n60sTivX7+hche8RP5qVwmfLB4MQIogl81/6021tbNq0Cdu2iRRFmDPnImbPnh2sVmkSl9+LWSv/u9ixYwdNR46wZs0aLpo7d8Rt99s04JnwJu0g3eFzYgp4c+dO7v/C5y9YohWPx7nxxhsZTh4yH92xGJGiSFD9aCByCJSfbUOlCWIsFsN1XQzTpLysbOQNHwKDZdzNCi8SgqrqKuaOct6dS8i7zJzrHFdRUVFeT+DhwDCMwC0gE0EWBQg6QHouDMeOHePBn/6Uo0ePsmP7Dv7jP/7DS12rI+ibjhympaU5uJZSira2Nhrfe4/Ozk4sy6I4WsyUKVN4bft2Tpw4kaVod12XY17CN5+DlFJy7P33ef/oUXp7e4NjY7EYp0+fpqmpiaamprQrBWpQPsB7QgBaW1uxLCvjt8zt/EcqlWTSpMn6i/D7aOh/zz7/DM0tzaQ5qPw9PNibo4Bdu3bxwpYXeOKJ/8w45mwcXH6kuaf0lvYOG/x4FEyZMqVgxUIfOZyWynJ8O1cfLRKJjDr20Pd5yYdgZcpUgh4B/tMAACAASURBVAsBUhItLmbt2rXs2r2Lhx9+GOm69CQSrF+/nlNtrYBg1cqVzJkzh+PHj/PUk0/iui7RkhLuWLOG6poarrrqKp151DACLs11XbZt28buXbtACKZPm8bHV6zAtm22bNlCZ2cnNePGccP111NXV8c777zD7t27SaVSdHR0sHr1KuZfvgBTGFqhC+SuRYFSXghisW4MX/d1gcUeAvT2pov0KjHUq57G73//BHV1ddTUVBAKhbCscNBlyWQKx3WIRMKYZlqETyQSoFxCYS/xo5ScOHGc//zd7wJON9PYokuNhbC8nFeu4+A4Esu2tSuMh0QySTgUore3l0gklJ7LSqE8o0tuZlb/u1SKUChU0PosKNBqPJFIRKeEGQWGEitzf09XARYk4gn++8UX2bFjB1OmTMGyLN5++22efOopqqqqOH78GL/5zW9wXZfnnnuOHa+/Ts24cWzatIl169YN0En5nF1PTw+/+MUviMfj2LbNQw8/TNspnbAtUlSEKyXPbNzIhg0bkErR1NTEM888Q0VFBbFYjN/85rcZTpIGA7mndE5TTYS1/9C5zEl/lGhvbycUCg3Q9w2FVCrF/v1vsXHjRp5+ej0nT7ailOTo0SY2bFjP00+vZ9u2bUHg8p49e3jqqadYv24de3btAiW54YbrWbz4Yziu9p1TXgXxvr5eNm3exIYNT/PMMxs4fuI4oGg83MiGDRvYuGEDu3fvDq69bt06XnrpJdavX88zzz4bODrnQ66uC8iJiChMFCTRCoVCQw7WUHBdnWYEsiInBsAP0zCEwBSGXvlSKRoaJlFcHOXQoUMcbWpi/PjxfO5zn+OOO+7grX37SCQS7Ny5k6VLlnDfvfcyb948nnjiibTnu2UFJm6FLofW0tzMjBkzmDRpEpFIhI6ODpqbm7Ftmzlz5lBfX8+LW7diGAZOKkVdXR333HMPt912G0ebmtJt9qepyt78PwFCtu15UnNBcVg+mpqaCIXsEakWlFTs37+flpYWnnnmWdatfwrHdXjo4YfY+tJ/09h4iJ/+9Cc0NjbS2dnJz372c/bs2cOe3bv4xS9+Rqyzw6tarokVXmUfhOLNnW/wyCMP0dR0mGeffYYNG9YDiq6uDhobG9m5cyc///nPicViKKX4yY9/zNatWzl27Bj//E//xPHjxwdtt3+bzPE/H8qIFSTR8sNTRoMBrgc5kzffCuxKl1AoxKc+/SnuumstJ44f5+0Db2NaJqlUiu5YN92xGLZt6xVRShKJBPFEgt6eXkpLS4PwkKJIhJaWFpLJJMlkEgGkHIf9+/fT3t7O8uXLKa+o4KWXXmLjhg1IKemPx+nv6wu8tkui0SCsA98xdRg6PiEE4XA4b3zjhYKmpqZR6UIXXbmIP/mTP+Hmm29m44YNpFJJnn/+OT7xiU/ywAMPkEwmeeWVVzj+/vscOnSIBx54gK9+7WscaWri+IlmvHBW/JXCn4ebNm3CMAzmzJnD+PHjef3113EcB8uymTVrBrPnzOLtA/tpbdU6NaVcbrrpJv70q39Kb28vhw8fznB9yV6HBgq+ivb29vPLelhI8GPARurdm5v1dDgigu/28Pzzz9PR0YErXRoaGohEImzcsJEnn3qKffv2cvXVV1NUVMR1113HCy+8wLp16zh6tIk777wzuNfMmTPZ+tJLFBUVcdFFFzF16lQWewnGS0tKMAyDyspK4vG4zkxqWdTU1NB05AivvPwyhheeAZoLLCoqStdW5OwGlPr6CUFanwsRXbGuoKSXHMHLO2nyZEKhUCBe+Q6m5eXlFBcXE4lE6Ovrw/H6try8HCVNECaJlIMSAtO08D3kffT399PZ2UljYyORSBELFy6ku6ebhx56iAkT6r0YRIee3hhCSKRyGF9fR3FxBGGILInjbFWGlCJwtylkFCTR8lepWCyWVWl5uOcO9zj/2NraWm6++WaONh0F4JZbVnHFFVdgmha33nor7zW+y7Rp07jjttsJ2TZr1qyhKxbj2LFjXH3NNay+9dYgtvCWVauQ69fz3nvvMXHiRIqjUb7yla/wzMaNHGlqwjQMpHRZvmwZZ86c4eDBgyxYsICSkhJOnDjBnNmzKSsrwzAMxtXWcuMNN6RjGrWXazq8ZAAUdXXjSCYTQHRE/Xa+oKFhYuC64Gv7VI6cnGuIMgyDt956i2QywfbtO7jppo8TDkeYd/ElPLVuPTNnzqQzFuOSS+czrraOqupq1q1/mlRKUVpWxvjx41FAZVU1dijMs88+D0Kx4uMfZ5k3zg0NDViWzaRJDSQTCQ4fbmTZsqUIISguLub111/nkkvn40qV4Zc3Mt2kIQSWYVLoeoGCJFp+MGhLS8uoiJZpmnR1dVE5rnZIr3T/+8SJDXz729/GFR4xMwxMU0vWa9euJeUktOhlh0ApIkVF3H///biuFitNwwjEuHnz5gU+Xj6XOGPGDL72wAM4joOSklA4TGVlFd/4xjeCY1bdcou2OkoZcAhTpkxhyuTJQeiRb9ZWOUtu4EWmXE6ebKWvrxdU1Yj67XzB1Vcvpqs3QZCQUakgbbGPwKiq9HgvXbaUnu4e9u7dS0VFJZ/85KcI2WHu/+KX2LRpE28feIeVK1ex6GNXYRgG99x7H/v27cUwbO66+y5qasehBIyvn8Ctt9/Ozp07sSyLm268keuuu45jx47x7rvvIoSgqCjCJZdcwsqVKzly5AhKKa677jqPw1fcsmo10ZISFLBq1SoaJk4c1nMrL9LDtixvcaNgaZdQGW+qS3YOoHNV4eU4DnfccQff/va3WbZs2YjP/9u/+TtSTorb1tyJ4zg43pP6zxtEt+SE3biBh0A6WFYgcJW2ZJqDBDUHFpwMU3Omy0Y+nzH/GMuvqEPaUdXnNF3X1fvRlkjpvW1BcVb/et6Dvbd/Hz/60Y/49SOPMnnKpJx8UBcGYrEY//nUOi65+GIEpsdrZasYZAbRAkVfXy+9Pb1EQmGKiov1iy8ESVenqlHgLU4mwuOU4/E4UmqfwkwVhuM6xDo7iEQilESLta7Tdejt7cVxHMrKywnZNqlUip6ebixLBz/H4wlKyis8fZcWM2UqhWFaOm0RDCC+mVBS0Xm6lb/7//6OTc8/ixAUbPrlguS0hBCMHz+e7u7uUZ1/7bXX8v3/9X1W3XIr0eJi+uJJnUbGsnQwq5MmEpn+NICu0pPByOgah9rL3oEgn1YuglzegyjMhX6w4NN3gk2lUsGk9N3Y/RxMfs4lgc4SYAor27XC0H5gjtSK/le3buGqxYsYV1vNBRorTSQS4dlnNzD/0ou12wEg1CBvrzf2kWgxkWgxljSy+teyQlhWKCByvl+fMC2KikvS8Z8ZlzQti8qacd7xEoQu1FJeXp4VrmVZFhUVaSkiHA7jCAPTDgXXM72iu8MZRsM02P7aa3THYigFhZxqq+CIls9p1NfX093dPSpHucWLr+JjH7uK1994nYryCiJFUQzDQCpJb08P3bGYzkKa8uocepNUKuUpPtPTREqF8ogWSrtU5MbICPTvwsh0AM3Y71kxA2LjES8/IaCfT8vwxMzMc4JrGAZhO4xthwiFQ9i2RXFJCfF4nNPtbRw4cIBpU6exYsXHA0X+hQjTNKmurqbtdBsTJ0zySsDp/k0HY2Uj4LyCcU0X6fUXtuz92ZoykRPmo8i+X+a5+crjBamLRE6CSJkdkJ8P/qLW0dHO9te2c8899xQ0wYICFA/95j744IMopfjTP/3TUXn3xrp6eOyxx0kk4kyePAXHSdHX109XVxexWMyrb5jSRVtlziTKcRnwdUhCmBjGwCBcfwUNh8NBoYGBD5aR3sQT/fwEcyB0QVE/60TO5t8jZFqEQiGiZaWEw2EqKspJJOKcPHmSuXPnsvCKy2loaMhq14UEv6+ONp/g2eeepbysgqlTpyIwSSaTpOLaTSUZT5BKJXXqGVeSki5KShw/pDCjGo+SEjcI/sv2chfeWBoy26dQGra3X38XQnoWYAPLMr1LKZ0c0JMADMPACBUF+txQKERxpAjbsvEVVPms4u3tZ2g+cYwzZ9o53dLM//U//5L6+tqPoHf/cCg4TstfdWprazl06NDoXjwFpWUlfOVPvvShtCkj89Kwjs/X5HxPkXu1s1no/XqGmYdl3iutkL8A5cIMNEyYwPyLL2bXrj001E/AtkMYKFKpBPH+Xvp7+4gnEnrRchySrjaQuK7SgX4S3bGeFU+igk73OW6F9tdTSmEov3KUd4zI4KYUCKG8jLaegUdprt6vARCybQzTxA4ndUZcXEImWEYE29KREDp5oUu6Ifo9iff1cOb0KcbX1fGlz3+GcTXVf8iu/khQcETLR8iLvxpVHJX4cHXPmULBaDGcM8/2mD6XfLZnu9A4LB/+gmciuOrKj7Hw8gV0dHQEnEsmMc/Mvz7YtYZK8pgvldBwEjvmw2DOw76vmA/HcQbcY8bUidx0/ZIg1fJIslucqyhIouVPlt7e3g/8AmYl1SN7UANdRebx+a5B5nGDa7jz2BbzXGewCT0wgypDeGSNIT8y54tt2xm5tfJjMALjE6XBiNZI2/KHwPnCYRck0QI94c6cOfOBItb90JrAxSCwAulPj/vPPoccIqYyPY89B89BiVau+JbNGQ0Mu0jDyEu09FlpD43Cjt7/Y+Bs/XU2bmu41zkXUAhtHA6yiJYfu1QI9Ni2bU6ePHlW68lg8AlWd3d3UDlHek8vVabrQcbE9ORKv58Qht4f3Dv9mcsDBVWmGdi//lkyc49KFztgwDm+tdGraeiJDkaOMjaTiPnPeJZeOcv+s6FwXorz5QW+EGFlsg75FLnnKmzb5vTp0/plHaEN13VdWltbee+992hubqa0tJRIJAKGiStl4KSZyQN5Ljg4jpOhR9BETRgesVCDkSXvKkp6xCy3vb5fGMG52oKY9hdLt0N5sXNg4tc31AQpbKeJkm+l9IPLe3t7mTp1KrNnzx6QniT9Al84RAvSaYrGCFhhoWDFw3A4TF9fH1LKsypNM6GU4ujRo/z2t78Ngk1LS7WLAIb2PvetO0ERVo+TkVKRSOiinUEllmDzinxKP7PlgBsH10rnx/WJzMCEhmnlK6S5LRcUmJaJbdmEQjZFRUVEwlEikQilXhCtELqQq19Psaenh8bG9zhytIkD7xxg7Z13esG7Fx4yuU+/+GooHA6U2NnzyK9NaXil3vJoFoXHQ3sLxB+S/mWqqAa7r+t4hNkg7aRc4CjYmRuNRgOOZyQrpZSSJ554gh07dvClL30pq2hp4LxneL4yniOo8ipNZ1px/DQxwblSopQxeOYAr+6dJlpeAkOV5njyPcMAC5RIes3TBT4Nw8C0TEyh/b9Cdg6n7LOHSjF33jxOnmrl8cceY9GVC7V/kjDPG+XscJA5fq+++iotLS2EQiFqamu9hSgVLDxSSs9tQPvfBeOTY8lTaD8r/dUA0qXCBgj1WTowBvjz5SJ7TuhrGZ7vlnYu1nGwOnrCxLLMwE3Cayr9/QnOnD5NZVUFH7tywXnhWFywRCuzKvDgBQcGIpVK8dRTT3HfffdRV1eXPTFE9ksfxA0akLYoakKS955q6O5UyIBoCQAVDiIYjSHFFL9FSe+v3Kqw+r6Om1NDyvsiBBRHS5g9aw433bSCnbv2MGXKtDyr84clJp6b8Pv30KFD/O53v6M71sPCKxfQ3ZcISt1rDtqrNu3qXGpSKaQrPd2hRHlcNehK38LQ+1OO0mFeQayoG3jM++sH6N7NHe+Ag/O5OZFDtDw1jmVZ2FbI4+zS9RBt2yZkW4RCNrYd0mpPqVM4NR09SiQS4cSxo9x9992DphsvFBRs64uKioIy5iOBX0Js4cKFA4hEevUc3Myd+3c2pzL0yqlUmjMTQnh1WoV3XqDez3Nj/yUwsr4PvP5gMXRazJQuXHvtMna+/gYCrzipynRaO7+JFujx+vnPf04ikeDmm1cyc+ZMXBHyxHrfYpw9tjLoby9vWcBJeed45ZuUzAm8DohWdgWorL/9Kw8SNJ/7m140/TAgI+f47FTifo3OS+dfxukzp/nJD/838+bNY/78wi7Wei5G6gwLoVAIx3FGrEQ1TZMpU6ZQXFwc/KYwvHiwoTdfz+66kubmFo4dO5bjZKjDcPypmNu0LG2JEMRiXWzZ8gLd3Z0MXjvv7HX00vxh/s23EegMrDblFeUj6rPzC4LHHv8NDZMmM23GjCCjVrBmiLSV15PhEMLwNp8bMrI3b35kzQWhuWfTC2y3LAvLsr2sDaH0ZtnYlpW137JsTNPyOCkrvRkmhtDVpw3vHv7mt1l61mS9oS3iQlBTM44lS5bwX//1X0Bh+2wVLNHyA0tHWuDCT+2RqY+SwkAKI0281GCboLe3n6eeXMfGjc/wxBNPsHHjRi8NiWTbtq00HT0MKPzYZiFUsPnp+fxVNRbr4je/eYzunhgIicLFtAR4GSoRUv+uXHyHiHz2SSG83FBikM3PFa8k/f19RCKRgJBdaEilXCoqq7j+hhtRCG10yXz5BQO2XC5Y97bQ1XyESM+PTHhK/WwRT19QSuWNh8Dw9GUqY39Wfn9vy/o7+3KDbsLQBgT9jAYrVqzg/fffH3XN0HMFBUu0QHNbPT09IzrHdV16enq86iaaSMmcbXCeBZpbWvjZvz2IaRgUR4o43NhIMh7nrb17+cUv/o3nntvI3n27ea/xXaR0OPTeu+zZu5v29tPseH0H7x9tQik4duw47x9ron5CLdFoBHBJpuIcaWrkSNNhtu94jdbWZl29RSiOvn+UV199haYmXaU6t+is8GLhdDtF1obHSQgBbW1tmKb4g1q5ziUkk0kWLrzS0/uYSDVE5W4fHs0K5oFQevO+SzGwGmK+Dvb1l8rj1t999106uzozFPsiaxNCi/CBQeisT5dzvncv/XiCaDRKdXX1qMvvnSsoWJ2WYRhEIpERE63MohjSs97IwIrjJwMcZFCl5uws06CmqpJrrrmG8ooKlONypPEwiXgfzcePcejQAcaNG8fUqZN55539bN68mSuuWEBPbw+dHR385V/+Je+/f4zGxoP09HaRSPahRCm9vV384hcPMn36TFpPnmTbtq189atfpa3tFA8//Ah1dXUcOLCflpYT/M9vfxvLsoLEgwLSdfxykoMLIT1GQnD8+HEmTaxPc2AXGFzHoau7GyUEchhrtvC4L8jUdWYmY9Tfjxw5zJm201x11VXpk3OojFK+uGniOCkef+wxbrzpRhZffZXHfWeHBvn3l8r1DDcqLzHMaO3A+2Xsi8ViVFVVjdiv8VxDwbbesixM0wyqLw8XumKOp/z2FNHC3xjaPVIgaJgwkSXLlvPkU+t47LHH2bVrN4ZpsnDhQkpLy5g6dSrXXruE+fMvw7Zt5s2bx65du+jq7GTZ0qVBCafp06dzySWXcuDtd+jv60MpRSKZ4OWXX6a0rJSrrlrEhg3r6Y/3sfmFzTQ2HmLlyhVEo1E2v7AFhfYfwvO0Hw7rJARZlbCHetJCcxQdLhzHobW1dUTnBByU0tbCWFcXR5uaaGlpQUmXvr5etm59kccff4yOjnZ6umOgdMbTjo52kokEra2tnDndhlSSZDJBd3cMwxSYphHowLq7YySSCZqbTxCLdeHzV04ySXNzc5A26eyFSfzxy9RrSlpbW4NCKIWMguO0VIauwLKsEddxM00T24poNwHluzUMoTH374v2q4mWlPLAn/0Zzz33PNtfeYVdu/bwT//0D9RPnIghTCoqqqivnxC0dcrUqUgpue8Tn6CqqoqvfvWrhMNh6urqPG92Ez80SEpJOBzmqo8toqKyglDYJpVM0HTkMAsWXMGkSQ0sWXIN//rgg1p0CAobKAZxac3qN1BES4qHOen9pz6/4DhOUDFnOPBFM+8LTz21jnhfD/39/RSXlLJmzRr27dvLwYPv0HqyhRdf/G/KSkq4bvl1vPPOAfbs2U1FRQW9fX10tndx3yc+Qby/n917dlNVVUlVVSVC6Ayz69Y9RbQkSkd7Byknxd133020OMqGDRvo6OykxNu3du1aamuHyIkVJLnPlhh6e3tHXS/0XELBktzB0hafDYYwsbxSTn5F5rQWQPl8S74bolCcOt3G4cYjLF68mBU3r6DpaBN9ff0IYVBWXs7hw4c5ceIEZ06fxkmlONPWBgqSiQT9/f3Uj6/HEILTbadpP3MG13HpaO+gO9aj22ZY2qJk2ChXr+7VVdWcOH6Cky0naTrShEDgOm6gr1AInQJ6GP0xderU82LijhYpJ0U0w3I8EgjgR//n/7Bt20uYBhQVhRFC4aRS2JaJgS7sq6TEd0J9/vnnefbZZykuKmLfW29xsrUFBBiGYPPmzRw6dAhD6PF84vdPsH37a5SWlbBu3ToOHDhA68lWfvWr/6CoqAjHSfHQQ7+i7XTbWVo6UBsrBESjJfT1xwvacggFyGllYjRZDXTCNKF9XDxH0Uy7UPr/3PP0USdPneLp9U8zrraWWKyDa5cuJRotAQXXXnsNmze/wIb1T1NVWcl111/Plhe2UFVZyUsvvsiVixZRPmcOruOyZfNmenp7KS8tZfurO4h1djN//nyqq6qxTW3ynlA/AQOD5UuX8+ijj7J+/dN0dnZim7a2OgWFLIbPGdWPH8+xo9qCZIiR1Yw8H5BMJpkwYcKozhXAsqVLQSaRrotSDgLJkmuupvn4+yR649xxxxrwwrUWLFxAVVUV8+fP544772TixAbG1Y2jrraWSZMmsn79OjK5WqVcli1byi233MLmzZtpaTmBYQqKo0WsueM2IuEwDz74U1QQWTGYX19+j/za8fX09L486iQD5wryEq1z/VEGc9QbDlKpJO0dZ5DS0eEZgSMCpAfZ93wSWYKSX1Bj9uzZ9PX1MW3adBYsWEBRcRTLMrnhhpuwrBAdnZ3Y4QiuVNh2iE99+rNYlkk4nHY1sEJhSk2TtXfdjUIHQUejJdxx51rCkSIMw+Tee++jJFrC/Msv50xHB42Nh+nqilFZVUnItoNJF6TWGXTk0lWoq6qqOLD/ABlpw4bAcInhuT5j0nAdl0suuVSrBbzH8oWo4TzF/V+4n9d3vMLx48d4/He/49JL5jNzxkzC4SJisW66e3oJmSZ2yCaVTCGlorq6BsdxuWrx4qDOQMpxSKYcHMclkUx6OnaDqqoqlCLIyGEaBq7r0tvTSyqZzDvfBxud3OepqanRVc0LPEjcyjdS5/LjZMbjhcPhEROtRCJJW1srJ9tamFA/IYfT8uFJzZpSeX/r+1RXV3Pn2rUoKT1fLN0eqRQlpWWsWn1r4EPmSsldd9+jOTvP+VQqhWFa3HHn2sCXR5EuXnHb7WtwpUQhuGX1apSCM6dP093dy7hxtRw7fpyVN6/MDhIPumCQkVPaXp9yHC8VT+iscW/Z1zt/iJZvHMnM0R4EGgxjKr3x5hsYhl68Ksorka4CZTJ9+iwSznr+68mniEaKuPGmm9i9600SiSQHD71Hw+49LFq0CCEMXnntNTo6OnGk5MDBg4SLili+fDmlpeVYVgiUoKy0nFAoRENDA5WVlTz77DNEo1EcxxmgSM80EmYtsjnPU1xcNKo+O9dQsOKhlNKryjuyRwhHQsybdxGvvvoKa71y9eDbWnz3AZVBrzKrqqRN3YaZts7o2DKJP2V8P5h0aIZM+0vpK3sezfqbQfb5mRyUkpJ4PE5bWxtFRUVc9bGrWLp06YDn0ilrck3e3jMoF4Si/Uw7+/buZcVNK0cY8V84ROlsKC0r08VqgYGcdea3/Ojo6CDR300kEuGzn/0c06ZNR0rJnDlzuG31bZw8eZI+qwfpOHR197Bs2XKUgJ6e3uDqXV0xurpi3HDDjaAUXV0xTNPi9ttvZ0L9RJRS3HjDDUxsmEhdXT333nsvBw4c4NSpU5imSbmfOjlP+wbLpCq9eNlC57KgQImWjtuTlJeXZ4XjDAehkM2Xv/JFnn76aQ6+e0CvmBUVmKZJ0pFenUAvLY3yo/1VVhoaLeJ5AbQZhVSlJB3hrzyHTgSKjGwQyidT4Hu5+z46fkYzXxQ1PW5KGIJVq1ZhGAahUIiU49DW1hY4lPp9YvihJgIMoY9FwOnTrbS0tvLO/n0o4KKL5mT05bB6fER9fC6jtKSE3//+93znO9/BdXKIlt+Xg3BcQgg++9nPgkxiWRbCDHsLi6KoqIi777qHZCqJiSIUCrH61lsHnC9dya233h58xw/KV4o771irf5MuN1x/A8oQpJK6KtC4ceNobW3lsssuY1xNTVZ7MzEYs2gIgW3buG6+FDyFhYIjWn6Hx+Nxjhw5QjQaHdH5QghWrFiBYRg0Nzdz/Phx+vv7dRXfRJJ4IkF/PBmkKkkkkqRSSS/3koPrOl6gtuulmvGJmAJMHaQahPXrVCJevRaEUN77kSN2efKJzxlJV4ubATfmEU2U9k9T3sFC6Nxallfx2LYsLNvGti3CoTCl5aVYpk2su4P29naKoiXce8/d2CE7r/hwIcAO2Rw8cICQZZFwUyglMXL6Ifd19vcLIByyMJTvlOxx2gYIJTGEQSRkYaC0Q+gATxqBkXEzXZ5e+VNFj4fSmlTtVKpQruJw42H6evswLJMvfOH+IMOIb+nOsnirtLQgvBXQsgwqysuJx+OEcxJAFiIKjmj56OzspKuri/LykQf/2rbNypUrOXXqFI2NjaRSKf3S2zZFkTCRSJJUShMox3FIpVK4jhukHfHTG6c9oj0IO+3TBwGnBb43teN9ZhQdUwolzcCz2ufY/BqIAp0zyRcrLcvQVaykBKEwTU2oBGCaBrZtY4dsQqEw4XCIcCjE3LkzqKkZR21tHSHbDppXsP4uo4SfJmbNrbey47VXueGGG3BSDiozf1oeI0+63Je3mHhfXdK/AwjllwbzKokb2SFCufnRfI915RUnEDKbA1JKYUYM7r3nPgSComgxoVDI48zwCFx2BEeueBgOBFWdvwAAIABJREFUh6ksL0Up2Pj0ehYuuGL0HXiOoGCJ1qlTp6isrBwxpwUEcv348eMZP378gP0KFVjXhOdc6K9faUsd6cnjwXEUrpIoP/cSEun6SeN0ELSfkyk40Q+4TbcuSOImPE7NMi0MS0f321Z2dkztpzWw/f61DDGQcxAMlTPi/IYQgvu/eD9/+7d/w4QJ9Z4hxPD0kroz/f7zDSw+N6S8RI7CGzvpT4CAExPeeHopa8yB1aIznWqkrzUIiJfMGkxfReH6dRN9naWfJVf4HJp2Lc5NeWMKHW9YWzuO3p4eTpw4wZe//OUP3ol/ZBQs0Tp8+DDjx4//0BOaaQ9o12PdM1bZjNgw8CaLyA481plDTXRlPe96ZAuDg0lkwXxT2UZLH0FWFAb+PpBopY8SGZ+ZGpzC1Wh8MCilaGiYwNq1d9Lc3OxFJaQtsQPi/mQOV5zDOWUiN+334IVE0vm59DX1IEqVHQSPMlCkEw4qjzcOguW9XGhK+sVgZZYri2mZpBL9xDo7qKys5P7776empqag9VlQgERLCEEymWTHjh00NDR8qAOQmY5XL5o+ZzUwK4Ivznmtyt436N+DFLZQ6evnuk8ZGb/nXm/Awd5eAz+/UibPlR2sVNjT9oPBNE1WrFhBPB7Hdd0RLXz5MiRkKrYHSyzpfcs5018EB8s0kX0tN3fQlJ+3Pvtcgfa4Nw09f/30zIVOrHwUHNECnV7l5MmTrF279kO7ZvbE8zOJ+hxOtuI8revwJ6lPPTL0EcFnZh5UXx7IIVoi45gMPdjgjU1zTrnkMrMlfkmydMtyOLDzYw4PG7n6onA4/IFe5LReUw24fv7jXe+Y0WkTc8nlYC6KBgOtg/5ifD4QroIiWn7Hb9u2jXHjxrF8+fJRX8svKR5YYrJWyvSkkkpb/bJUUKQ5LY8Py/hdDZHxZejJapyFivje9IGoOOBwX+mf+d1byXMI1kCCd2HBJzYf5EUeHnc18PjRxP7la6MxSLPzLXrnA7HyUVBEC7Qu69VXX2XatGlDR7qfBUopTp06RXd3t65kEwoFrgO+slQphePKQEnrEwyfOPk/+DmtXE8HIUah5hb4xS30twHtFWhxABCGz+577VEeEZapLEVy5smRSISysjKKiiIXNLH6qDEUQfKthR8WAblQxzGLaPk1BHPhui7JZJKiosHDAPxzE4kElmVlKSUzU6GYphmke02lUgMKh+aDvyK2tbXx3HPPYZomt99++7AfMh8OHTrE7/7zP+np6WXqjFlMnDABy/a7Q3nVWVxdncV1cVzX89HSHJq2LEmvvJhnWVKGti4x/NQnPoQhMDOIUdY+tJLXNCydd9y0vNJR3n5hoqTElUmv9QSyg2GYnDrVxunTbcycOYvbb7+d8rKSkXfYeQqlfPcS7SjseBWeXMch6Ti4jkM8GSeRSJBMJoMKUP6i5VuDfeW4v7ilkzFqntZfjILc7uDpm4yAizcNU4+rp3+ybVtX3/E+dfpk4eWQN7D8eozetSzTQhgieIcNL1eXYXiV0M8n8bC/v59nnnmGRCIRZPaMRCJIKZk9ezbz5s3j0Ucf5f7770cIwcsvv8zFF19MSUlJIF7t3buX2tpa3nnnHS699FLeeustrrnmGsLhMG+//TY7d+6kuLgYwzC47LLLEEJw8OBBbrrpprMSLiklmzdvRkrJ3r17ufHGG5kxY8aoHlhKnQztX/7lX+jq7mHKlKmEisswIyXo/EN+TJpEmC5CGQghMQ0XVxkYQiFxtHlaurpSi9KCogKdW/AspcTyQ+AqEVgtM2EKqa3oSiKFQMoUCIHOPe/lGTcMhDCDUB6fKzQME8dxaGlpYe/efZw+fZqvf/3rWNbZhNHzG/39/Zw40cz27a+DEtSNr8MQBr29vcRiMWKxGF3dMfr6++lP9uOkUkiVDq3WtQbThhojQ+ntEwmBFSzgfqmvkKdH094SeuFLJd20/59ME0FfhPWv6UovJF7oeSJTKe3MLHWV9Wg0qreSKNHiKEUlEYQQnDjRjBAwZ9ZMLrvssmExCucyLNDJwX7961/T0NBAZ2cnb731FpdddhkAtbW17Nu3j3/8x39k1qxZzJ07l8cff5xvfOMbbNmyhTVr1tDS0sKWLVuoq6tj06ZNrF69mhdffJFIJMK8efNob2/nhz/8IatWrWL//v2UlpZy8uRJtm7dypIlSwZ0or9i9fb2cvDgQbq6unj11VexLItFixaxatWqUT+wUoonnniC5uZmvvr1/0F1VRWu6Rew1AU6jaDMffq1NgxdkEAHQ8tgdcxrAh+FziJoX57ffOdBnwdOW4vSBoGsM30xxHuRpkyZxrXXLuGVV15m06bnWbZsGQsWXD7qNhYq/LFyXZd9+/bx9NMb6ersIhKJ0tvbh2VZ9Pf309PTQ09PD739fSSSSYQpCNkhosXRoK6gZekag8LQ4VN2yMYyPa7ItnSFb8MK4v18whUORzyxXniOy/8/e+8ZJcWV5fv+TkSkqaosXwVVBRSmAAkrkMHIYOWQkAMk5G1P98yse1+/OzOvP7z77d03vd6ade9b6741a033TN+eVre6W61uOWQQEggnjISRASFQITwUlHdpIyPO+3AiIiOzsgxImiahtxRkReYJf2Kfffb+7/9WQGbTNEmmUg4zhLLwk8kkiUSCVMpUi2kiLYtEUqX2JGNxLCuNi3MoKgoTiZQSiZRQWlpKuCSMlJIjh4/Q3dPFju3bWLRoEY888sgQcIzLXwxQ1seoUaOYOnUquq5TVlbG3Llz+eKLL7jlllt47bXXmDhxIr/4xS+YP38+iUSCgwcP8vOf/5y5c+cSjUapqalh3759fPPNN7z99tuMGzeO06dP09TU5JWQnzx5Ms3NzXR2dtLZ2YmuD17h+PDhwxw/fpxDhw5x5swZ7r77bnp7e1m1ahWBQOCSHaiapvHWW2/xwgsvUFWtcrg8B6ktHECfY9K7Lk2RqVFoWdJzamdF5Pzn8m1MmNz7kYUPywU+uAdyeUvd+WJGvblBAl3Tue2226iqquTVV19l7tw5V51TxLVcent7+d3vfkc4XMyjjz1KwChyIsaZKKAQrmdSYgsPL0rusJK2LN800bV8M1PArN/Uzr1kdRl0+rDDMGrbKtbsMn5kqvQ40AanfJhbxVyTmSmgeyz1UC3VZx1f7Nzrb6Czs5NtH37AP//zP3PHHXdQ4+QvFqIYUkrP57R//36uu+46r5Dpzp07sW2bSCTC6tWree2112hpaWHatGm0t7cze/Zszp8/T0VFBel0msmTJ9Pf309TUxPjx48nFotRWVlJa2sr4XDYO05paaniFDLNvEpLCMEbb7yBZVnMnTuXSZMmMW3aNCZMmJDV5lKlqKhIlYXHYcySdrYecBHK+Pqe+68AaaeV/wHhc3pnh79h6ChSrtLN0Ej72ilIvocbw3Y9JLl+R4lwS2F5F+H4a6TM6DIpmD59Bhs2vJ+5qKtMcSHh3NkWvvjiIP/Xf/tHQuFibCuTxQd4KTK2ExuWwv114PN0FYye08J/W12bJvO8c1u5Ti3pBHJUkrx0lFhuOFrz0QpJHwDaG9iE4gqzNdf5L6isruG+Bx6kraOLr77+mluqqy+S6ePyEQMgmUwSCASorq6mpaWFY8eOUV1dTU1NDZqm0dfXR0tLC7Nnz2bmzJkAHrLWnT5+8cUX3HbbbYRCISZNmkQymWTv3r3cc8893HbbbcTjcVauXMmxY8e49dZb2blzJzNmzCAUCuU9sa++UhVtysvLmTJlCrW1tVm4mG8Tph41apQCFep2JvzmdFI/5EH5HPCsH6FJ4vE4rS1n0TTlnxhVW+uZ2lLC7t27KS8vZ9q0aYNPE4XmlBLLXE9NTQ2RSCT7upxzs6StyNuSkpKSYtWtRcZv5SlWkftauTgN9ak7uDK3gtFVqbOk4OzZ88y7aQGhohIsKXzKPlu8aj2OJSR8zzN/P8yk7QzePwWZitPZg4yiccxY/U7rPA9JeB/S2S5rN04ZPCvrOzACIZ5+9jk6uzoGveZCEAOgvb2d6upqRo8eTUdHB1999RVNTU1UVFQghGDWrFn8y7/8C/fccw/Hjh1j8uTJFBUVceTIEe6++27GjBnDwoULOXjwIF988QU9PT0sXLiQ2267Ddu20XWduro6du3axalTp9iwYQPnzp1j4sSJhMPhvCd2/fXXs3//fj788EP27t1LTU0NVVVVjB8/nkgkQnV1NaWlpZd00dFolGg0SkWoSHU8JwKouXgGb9zNwd8gOX3qFK+8/Huqq6uwLZuZM2eyZOkS5Ri1Yfeu3TQ2jmP6tGs9S82lxvWcr1aaTZs20tvXRzwWo6qqiqVLlzJlylTH0stMNXRdR7ckO7dvo+NCO48+utY5PYFX2ML1r4EXzRxMLMvyqtEUcL+9ZBEanD13lkWLFnnfDQFSyFlTN+zIkcNMmTJZFSUhW6e0t7fT1dXF1ClTBrm/GcyfbdscPnKY2ppaamtr8xw7swMXVxgMBh3ryQ9syT2QzPk281djYyPtHcNxzF/eogF88803TJw4kc7OTmbMmEFRURG33347DQ0NHDt2DNM0aWpqwrIsTNMkFovR29tLPB5HCEEoFCIUClFcXMxTTz3F3LlzvbqEwWCQPXv28MYbb/DOO+9w8uRJ3n33Xb788kv27NlDX19f3hN75JFHWLNmDVOmTCEQCHDhwgXa29tpa2vjyJEjvP766+zZs8erYThSkVLR3XZ1dXnfiQFLpsypf5FSccTv2rWLUaNG09/Xx+9++1vMZIK+vh5279qNoRmMHVOvJgrCJhrrZ8eOj9i1aweff/4ZR482I7EZPXoUppnkwIEvqK+vIxwOkUzG+ezTfRw48AUffriRo0ebEQL27t7Ja6+8zEsv/YqPPtrKvv2fYKYTKDYBC7d2tRqd8yyZUsnYtnXRZdeuJBEC2lrbKC0tzcATRP7Fq9DtiFtR+he//F9E43H/bfXkq0OHWL9+PZadW741d1GO+DffXMeBgwcHO1tvaWk5z/r175Ehk/Sfq8hZVDFZId0lcxmWZXHhIkuoXW5iCCGoqamhsrKSSCTCmDFjmDlzJqNHj+bxxx8nGo3S3d3Nj370I8LhMM3NzfT399PX18fEiRMpKiqir6+P3t5eZs6cybJly4hGo7z//vu0trZ6im3p0qVYlsX06dMpLy/36hYOVgJszJgxjBkzZsD30WiUM2fO8PXXX/PLX/6SH/3oR8yZM/JImJQSwzBGWOQ10zm8dSkJhkI0No6nt7uHtrZ2pIRYNM4XB77g+Mnj3DjvBjUaCnh/wwfs/WQ3Y8eO5dTp0zQ1TWLqlMmsvOceKsvLaDlzlvtXrkRKSXt7O7/65S+Zes01dHS08/GuXfzD//EPHDp0iJ6eHiwrzaFDh6ioKGfWrFm4L4A3axkBQZYQ2iVPrQtenNtTWlaKmTYJC1cBjPR+qLbbt23lxPFjgGD06FGMrh2FLW2avz7CuZazpFIJpLQAFWg6c+YM3d3d1NXV0d3TzeTJU+jr6+XUyVMkk3HARgjlsD/a3ExpWama/VTVUFdfz7lz59i2fRsv//73TJk6GYFg0qRJGIO4Vlzx6KQ915lGKpX2/HCFKgbAzTffjGEYzJ49m0Qiwbhx4ygvVy+GEIJoNEokEkFKyaRJkxRnUyBALBYjHA5z3XXXcf311xMKhTx2zbVr19LV1UUkEuGOO+5QjKDptAcudbEnF5OsKqWkuLiYqVOnMnbsWH7605+yYcMGZsyY4eHFhhMhRBbEQgzwA/kbZystd7oYTyTZuXs3Z0+forq2BtuG8vIKlixdzNFvmmk534oUOqlknD/84RUeXfMg06dP53/8j/+XspJiNGfqF9A1sC00x1KyzBSHDh7krjtu54Y51/HTn/6U/p4eFi9ezMGDB7EsmzvuuN0LuWed/whhFoFAYEiQ8JUs7i0aO3YsVvriAcDuIKFJyfvr1xMMh5HS5umnn6GkpJgdOz+iq6tT4eiwQGgcP36cV155hZKSYsLhMMePH+e//d//SFtbKzt37SAe7ycUCoAmsdMWv3np14wePZpkMkk6neaFF17g66+/Yv/+PbR3tLJ9+xYEOmPGNAyvtHxnrUTDTFlE+/sL2pepYSmq2EAggK7rRCIRLxzqjsiuwpJSUlJSQigU8toahkFJSQnhcHhA9KyyspJAIEA4HKakpITy8nIikQhlZWWUlJR4x4XBI21+cUPRQiieoMcee4z9+/fT3t5+URftnosHdSDbe5FryGfdME0jUhJh4fwF3H333Zw6dYqvv/6a4qIipl1zLdVVVR6pYDKR5MKFVpYsWcL06TMYNWqUh1bOOHGlByR0n8G8efO46aZ5KIiFxcSJk6iqqkIIwaRJTTQ2jvP2I4QLaxhZN9R1/ZKIEwtdMhRDUFVZ9a2myFJKysrKmD59Gvv372f//v0IIZg8ZTKRSITPP//ca7thwwbOnz/PzJkzaWlpYcuWLYCktDTC5MmTOXDgAC0t51Sk0LbZsWMHra2tTJ16DVu3buXo0aPU19czZswYNE1j8pQpTJ06hWBoZIN0riSTSc6cOXPJ1345iIbPcTsYp5BfBkv69NO6ZFG8fI8yfvx4hBAcPXr0orYrKSmhuro6EyrO8U0M8G34REoIBgKURiJUVFTQ19dHa2srXV1dHD3aTHdXF+3t7Zw4cQJNNygrK+ezzz7j1KmTdHZ2IoQqCfXNN9/Q3HyUnp5evvzyID09PVkgRJUHmbnPxcUldHd3c+TIEY4ePYpbCCMT8h5eaSlWVIuKiqtPaQEqdiEU5KW7u/vSdyMEDz34IEuXLWP69Bl8+eVBDCPAbbfeyuzZs30QBDh48CCLFt3GkiVLWLx4sRdpHjVqNEuXLvEGey8OaNssWbKEFStWUFdXR0dHB9dee61X9mzJkiUsXrJo0Kj7cBJPJOjs7Lzka78cRPOnig+lZIbj4/FbQZcil7JdcXExjY2NNDc3X9R27hTJ37n8i2tiZdYzK6WREioqytm+fRu7du6kadIkJk9u4uSpk+zcuQshNHp6e9ixcye60Hjo/gf4+OOP2bTpQzo7O3FZTHfv3sWxY8coKipi+/aPaGtTlVamTbuWgJMDOWHCBHRnGnjjjTcwceJENmzYwKZNm0in05kTdRbX4TrYAirPbrCI7ZUsfgxcKBzETKcY2qYeKG54RqKRtqG7u4fW1jZqamo9FLsbGFJ5imnC4RCtrW3EYnH6+hyoiS1JpZIkk6qOoZvb61rf7vTdBVEDlJWVYlkW3V1dpFIpbNvKc/7DXYdNOp30mHELVQw0D+wxIO9tMCtrOPm+LSxXVFpEiLa2tovCbkWj0ay2ds7s3+UA9/zbPtaGiRPG8/DDa1TU1AhQ39DAhAkTOH3qNBMnNtE0aTIpVCJ1SSjMynvuZd/+XXR1dWGaKerqRiOERmNjI2PGjFXHkZKyMlVZ6PHHHycUUp32scceozSiolzz58+nuLiElnPnMAIBsgLazrXkFmgYIAJi8fhFR1yvNDEMQUlJ2Be4yDzpocTFNoWKitnwwSZsSxU+veXWW+jq6uKjjz6iubkZ0zR59913mT9/PosXL2bDhg28+eYbNDc3q36qCbZu3kp3dw+2bXPo0CHKKypYtnSpwuppGgg1KIdCYXAc72PHjuXVV1+loqKCxYsXUzNqIFX4kCJsNE0wbty4i9vuMpPvReX+R0WnpFS5gKZpZn031PGllHR1dWWAnS54L+uFz8W5ZL6vrKjg9uXLnKmWqsCiCY3x4ycwYcJEQGAJCRLCoSIOfHmQC60XCAQCjK6v4+ZbbkE3dG69bZG3T8/dIuCmefOwpMLgzL/5Zu/IRjDI3BuuZ+4N1+ec5QjFmWru27vXwxddrZJKpSgrK7skkLIAHn3sMUzTxNAETzz+BI3jGrlwoZXe3l6qqqpYsWIFsVgM0zRZtmwZ/f39dHZ20tbWRrWDRI/FYvT397Fy5Up03SAWiyE0jUceWUtDQwOaprF8+e0OMYACHz/99NOcdiKRVh4G1ZFIIBBgypTJl7Tt5SIFaycOxdU9lAghmD17Ni0tLdSPm+BNab1UGbVz1TZ3WzJcWUKA0PzaTnrfY9loQpBIJkhbFql0muJICc888yxNUyYroKlw/YCZA3lXpPlSop3ctXxW7wBDYdCLVsBZ07LZsmVL3mKvV5P09fVx/PhxRjVcisUh+MEPfoCUEl1IdC3jo3riiSd8z0n1jWPHFDSiuLiYlGmyapWqbbjSqYnoskS4mz3++OPougqyrFixwgm4qAd8z733YpqmQ0+ke+7oi9G78Xis4CEvBau0gCz6DleGs7KEENx333389re/ZUJPH9deOw09qGFLW+XvgVOiy6mak7UD20tCTaUyeZMecl5oDhlfpoDrvJtuYMGC6x3wp01fX39W7pifh8kFsKpqQDLLAhSa5nRmD3+BhqYKujppG4bDxQSgOVQomqbhJn7v37uPaH8/96y4+6pEw7sSiUTYtGkTs+ZcT0lJROX5yQzCPHeanSniqnxGuu4oGjJk2up+atlZFELQH41y9txZhBAsmL+A1avXAJrDJOIMfllTfVABFokmdLzsB5yCq0aG7V94/c9fhzHT3vYGQ+koWfjywEGuvXbqpd+8y0AKWmm5Cdh+ksGhxFVwjY2NzJo1i66ePk4cP0Zvbw+xWBw0HU1XlXTceoemaWbK3JPJxk8kElnTCyEEUmhZ+YRSqlqEHiGiEFlJqu4oq+M3lhyF5UQFzXRafetTzDaZyKwQQhWykBIhTS8CaRgG4XDYiUKqSOShQ4d4eM0arr1mqurwV6nmGj9+PJZlseOjj1iwYAGRimqkzLzk2UrLny7jlOry+B8GQlNtv9kr4dpp05jYNAlNaIQCYWXxplR/tT2lkycan3POAgYO0CiLXuiK/sbSnFkAmu/ZCsDCTJt0trdztLmZJ598bGQ36jKVglVaQqjyTqZpjhhY6m4XDAZ56KGH6Ozq5rPPPsNMJZSJ47zslgQzZSrUvqE7tQ9lhltBSkqKi5HSZyVpAlDFUjXHkSoQ6IaKdQghEJruC9Y6pHGGge5MUXNLUCmLLhNhSqfTnkXgThtty8JNQLTSKc/61HXdx+WkkNkrV97Lvffe600/rlYpLy/nqaee4r0N79N64Tz148ZTVlqKjY6UNsJGFee1FWOtLW3SadMp1mth226VcdUvDN1A09R9NgKK+C8UCmM41b/V+CA8sj53PZclOJt1IU8FKNRzd4GnyUQCK50mmTKxbBvb5V3TDSe1LkwgYJBMJkkmEkxqbGTp0qWUlZV9vzf4e5b8SusyH4Bda8a2FfvBxSgtwOsstTXV3L58WWa/QhnelgTLVspB14SnaNzb4nY1V5lkaGXEAHK1fHi23OuA/Bg5f7vcKfBg02B/W/WCXBkUu9+lCCFYtWoVkUiETz/9lKCuUVIURgpNQUksgSlSJE0bQ2jO4OAU4rVtbMvCNFPYlhogbMtCEwJN15B2ANtKowFWWsN0lBRSIm3FeCshQ9lMxorSyOD0XGvZ/6kHFOWypUuQNqYGKTuNZaWwbFWrU9d1dGxCuiASDhAIGOi2TdjQmTN3Dtdee82f8c5/N1Jwlpb/5XWnhd+GriZ3G1s6VU50x+eA55fPnIPPeHeV1GDHvhjYiF/hDLXdcHg5yPjK/qKw8othGKxYsYI777wTy7YxjAAIgWUp9lrbtrCc6DBOXqBXJBXHb+lMsW2nMrRLk+wulm1jWzaW7dApW2nSaWWlpc20Zzl7k0HHAtN1DU13Kovryno3dINAMKC+13QnuKL6XobiWfNqHKrtleNB2jh03DgBoMveLhlSnAQ2Z+0/Bl71nYl/SvVdvJwCpbCkzC72lS96lyvfhYIYqeIb7jxgYLXjv8hAcS1jf/6rbrhPPvPdYJDNXKSMIPtVygR3pec89/+db3/2EC+h6/rXcEv+Dj7Nzwx+mmJ8yI4PFLQUnKUF2VOpfNWDvtW+GfhQB1g9+RBcOdO+iz7ud9CThpqKfh/HK1S5VHzWcN+JnL8zsTyRpcwGO7Lyig6ewO9a+PkQWoNd038U0Ps/UgpSabniKq1LeTDuNtFolFgsRiqV8iKFfvpad8lXDn2w83Etv4uxdi72JcpVksPlesZiMXRdp7q6mlof2+rVKCOdantthvltOLhcjnt9RMey80zhlBsk/wldavZKIUrBKS3/w3Dn8SMVvwO/vb2d/fv3c/r0aUpLSwkGg6qmYdryTHRXgdmuT2IIVlBXUSmnqZooGLrudLDsiKDrx5C2j2Hep3jyKZ/cTpilWMlg+AdLej916hSxvh6amppYvHgxkydPvqI79sXIYMp+0GBHzrb+pPrMNNAL6oKdKW7hf27q0/sn00s8eIwfA5g5rofXG2HXv9J8mwWntPySa2kN5sT2twc4d+4c7777LhcuXCCdTjNx4kRCoRDhUBGE8ACkrrgg05EYdPkO7d/O9gFPczuxW5rsYi1HS6ginkjNq3uYS/ZXWTOaaG83mzdvpru7m7/+678mErl6i7amUikOHz5MT08PMNAHKIRwYA22b/BSlMeWyolyCvqmsRzFY8vsgq2uI95OW9iWpRSZsy/Xke+vdegcGM15nppTnszz2TrR7UBQR9N0wsEMp5pbHd310bkFXkH1ubq6OiZNmnRFWNgFrbTg4s1gy7J4++23aW1tZd68eSoXTDcczeJwXQl/Wk++KMUgx5Q+P4b/BciztbfuKq2RXI+vrSaE5x+xnY5tyeyXzq8tJ02azPQpk9i1axcf7djBDTfeyJLFi6+oEXikkk6nefnll7nQ2qYwS0LgludybV9N07xIn5VWWC3bjQb6XAamaWJLdaszCg6EcJWR41pw+pOXuuV82lkDlHTwXq6i0jKFX0Vm0TVVhDcYVFAfDw/owCOCwQChUIhAIIiUNqlkkpbzFzgBTl36AAAgAElEQVRx4gSLFy++Moq1Fqq4VXtH4m9yxbZtNm7cyI9//GOKi4udlx2ywXyuSe6f1mX2MfiLrvkaOtMEKVXWvt9y8/Yp/ZMCNzlj8JP39GdmOwkIqUFuVRmZqyqhrLySJUuW8XXz13yw8UMWL1p01SktKSVvv/02mzZtYvHS5UyZMgW0TP1Nv7We+11G/PfMb0Zn5muqiKuTHSEG8zll6lM6O8hSUG6fzI2Ou5kZ0nWNSJWf6Pm8wLO4ASwzRXt7G83NzViWxd133z2CO3X5SsErLcMwslgehhN3NBo9ejS9ff2ojuHmbrkPWsvyIQBZ/XRwh6vmtfOHu6UUWcoJ32/ZO8gfOXI7rErvUfaV+nBBNwO3kmT7MZQvTyNUXMLipcvZtm3bVaewAJDwT//03/nJT37C2MYJasomLi4C7RvKcjpD7n4c5eKOgTmWsPQNbGq/uYNvpjNJ335s6RzHy17LDGHu6Vh2BriK0KgdXUdFeQX/8//7nyxdvpxgIFCwWK2CVlqDpb4M9zI2NjZ6WfKayKBrLK/z5u/EbueybdvzIfhBnHlxMyJPiFpCZ2cHpplm9OjRXrvBlGE0FqO7uxvTTFNcVJShw8adztjKKMxRXn6lqAkNS2ikbZuma6ex+aMdV6XSklJw4sQpZs28js5eVQlKjtSj7e7D+dRyE+pz1ICda135jiMlSC07GihyaXJ99TcFAsv9WbjHH3hOg52rZUkC4SIutHUQSyYxAgEK1btV0EoLGDEcwS+hUIhEIpGxYLxfhnmJHSd5Z2cnu3buUgVUNcHNC2+mvqF+2M39cuDLA5w6dZonn3xSHXkIBdLV1cVrr79Gx4ULzL/lFu6+S5n30l/eapjjudMGKVU1oksr7HBlSHFR8XdaRi1PrFf961YqHzCYKF+WluPtzHYsZES1Vb+4vsqLC9UIZz+uD62wB6uCz5x18w9HKkKoenMXLlzIKArP2MpYXfk3Vi/9BxveZ9OmTZw9e5Y9e/bQ2noB0zRJmUlcbuNkKkE01o+ZTmGmTfr7e5HYTnVfydlzZ/l4z8dEY1H6Y/0q8uT8Z6ZTdHZ1EI31g5CES8JUVJbz4eYPaTnfgi1sbGEjhcRNkx0wSOeIh5TXdWxLOtQ73z+P/+UmEhU5TDvsGd/JPoXDvCHU3x4ts50f/d4X7efV1/40MD1MoLjUvNmCsuTf37CBl//wBza89543M7g4tePsS6ppY6Fb2AVvaaXT6QG1E4d+DQWJRILm5mZuuGn+RR1LOTptdu3eRVVVNU8//RSnT5+hoaGekydO8Pnnn7Fq1Wp0XWfTpk2EQmE0TXDmzFn6+/upr6/j2NfNPPX8cwCcbznPH//4R1KpFLNmz2L+vHm0t7ezceNGOjo6CIXCrF69iurqap544gl+9asXKSoqUo5Z9zp9eneo6/aPzVY6TTAYzHI2Xy0ipT1orc3hxMtxVTtC+Ral8kVKiXBLzqGihcJBa+XQXNHX28vPfvYz1qxZg3QtLpHxD9jS5VazkdKmr6+XTZs2Ysk096y4C2QmejzIVTqHU+covDOBoqJixQxSwFLwSgvImh6KIR8mIATxeJwzZ854SutiwHeaprF06VLeeecd3nrrLWbPvo6amlra2tr4wx9e4eabb6GhoYGXX36Ze++9l8OHj7Bv3z4aGho4deokX+zfzy2LF2EYBl1dXSQSCbq7u/n1iy8yc8ZMPvjgAzZv3sKNN97Arl27KC4u4sknn0TTNGzbQvqv1bkeT4kNBpJ0Pj2IhGVTFAp79+tqkqHu00gkmUyyYf07JBNJpBSMHz+eGbNm8u769TzwwH0Eg0GOHz/OwYMHWDBvATs++ghp2YRCIfqTcW688UbCRWHi8Sjr1r1JLBalccw4brnlFiSS7ds+4uzZs4RCIW699VZGjRrF6tWrOH36FF8c+AxhWwjbYdsdNICQceyr6aSKLkr4C07rzyF+kj33hbsYVLwQkEyZxOKJ4ZVVnjmXEDorVtxDLBbn+PHjfP75AYLBEE1NTdSPHsvWLR9xx+130NnRw7wbF3L4UDMlxcXMnzePcDjMubPn6OrswtANaqqrefrJJ+no6OG5556lt7ufnR/tZsG8hTz33PPYadj4/mYef+wp5fiXuuqAtuYoKzKjrgTIP+XxRx+FEAQMnYucX1wxkh24ycXgZd+UPCAVDn15kF//5kWWLltGIBCmNhnHkpI/vPIKY8c2sHDhQj788EOOHDnCmPoGfvGLX3DzggUcO3acorJSent7WblyJVbK5OjRo4RCIT7c+CHjJ4wnlUrxq1/9O7NmzeLc2XOcOHGcH/9vP/aYG7zospDDugPU6appoWfzSUk8HldMFgUs2W+769JxbckCkYvJJbMlpExTAUoZzsoSeRYNTRg88sijPPXUM7S0nGfPJ3sIhYpYtmQ5WzZtY8P6D5gwbhKNYydimYpmORQIENB1UskkSIkmBKWRCMFgkEQ8RShYjIo/BsDWSKdsBAbSEghbR0idkqJSEjETKyWxTAm2DraOtNTnYGecK7qhI+3CniJcqmQzdgzd4TO1L6XjTLfo6ukgaSYIFwWZNnM6s+deR1l5OfPmz2PdW+tIJBPs37+fW265RflbTZPly5cTLgozc+YMTp8+7fW5R9Y8zPPPPktvTw+HDx9mzyd7ME2TF154gTvvvJPXX3+DaCzmAVAzvjM5wLmfX5y6mMLF8An6evsLXmkVnKXlij/HzrW8RmJx2bbid6+trc34dJxhKx+SKldSqSTvvPM28XiCcChIOByiqrICpGTBwnm8/sarvLnuddauXUswJNEDFkKz0Q2JLdNoGug6CGHT09PDunXrOHniDHPnzqasLMLNN89n67athIuCfHX4IMtvX4LQJBKLm+bfwL79n1BcEmLMmDFOgQqJ7YIQh7huP1BSTTULu+NeukiCwWB2mtYwVksGiqAxa+Z1rFz5AK0X2jl5agMnT5zgycef4P6V9/Bf/+v/yYEvvqCjrZ0br7+BC+db0DXN4+sXErBtpGVhBAKMbRiDaaYIBUNYpipXX1FWTklRCXWj61Tqj20p1SqESglyiAeF7vdi5l5AdlTcw4FJm1QiPqz/83IXI29Pv8ynDrnWkV9xOV8MtTXFxcVMnz49M9UcFIueE6p2nKtmMklnRxuhUIjFt93KTTfdiMCmurqc2dfNYOMHG7n5lnnYJLht0XwmTKxjytSJCHTuf+AeGsePIZlMsnjRIi5cuEBpWTG337GUkkiYO+5aRtKM0dvXxdw5s3nggXsRmgXYPPzwKta/u56u7naqqsuRpFVEU/VqZ5qYvztm8DoWpSXFI+bVv9JE1zUvjcWbHA6ntMhYZn19UerrxlIaqWDzlg9IxKLoTzzOlKZJjB83jldefpn6UaNpGF1H2/kL6L4c0KBuoEmBjgaWzc4dO2hrayWdNpk4YTzlZWVseG8Db77xBidPnmDWzJmUFBWjIZgwfjwbN2/kvQ3vgYR77r0HMZzSyvlaw0ZapvJ1FTDyoWAtLb/40xxs2x5SaWmaRllZKWPHjvUh6d2RyVVeg49DoVCINWtWE4vHsSyLsrIydF3n7Nmz7N2zh+7ubu68605qa2uRUrB0yXISyTguFe7MWdcpBL6UTGmaTjyRcIpyhhBCePXtEokEoWAII5B5RNOmTWPc2HEITWQR17kyqMJyo1FkcFoXLlxQdRu/Yz6yy16kb5AbqhF5Ew1oOXeOgwcPADBubCO33noLCEEwFOauu+7mn/7pn/jbv/5bNF2nvKKC+fPnUVZezrTp0xkzbiyhcJii4mKuv+FG9n/2KWYqxZqHH2ZSUxNjx6VYfvtyvjh4gGAgwDPPPEMwFAJg4YKFfPrFZ3y6bz9FxcWsWLECxEgDSJnUJE3TCASCQ4/rl7lcEUoLRh4B1ASUlpZy8uQJr8LzSJWWu/9AMEiZUzTCPXZ7ezsnTpykvr6eVatWKaUiFWNkUTiXTUEpCsOAouLiAcfQdd1jYPBP64QQREojA/PinFFzKJPfsxWExtGjRzFNk7QDfbjSqEuGEinBNE1fQnzeVkD+nydPaaK0LIJt25SWltLU1EQimeLwkSO0tbYzblwj8xcuBAH1DfU88dRT1NXVce/KlRQXFZFMpYiUlfJXP/wrLNuioryCCRNU/c1AMMhTzzzN8WPHKYlEaPT6J9TV1fHC8z+go72d0srSi71qQFnZyWSSkKMIC1UKTml9W2yRlDBnzhzeeustXnj+BQLBIEgLhC8tYgTvb+5L3tg4joceeojaUbWUuIoop81QkASPh8lrk2+0z2CERKaJ2l4OPc1xHdBtba3s27uXcY2NWcnBV5OMHTeWU6dOMbZxUs61D25huTJq1KhM6pUjvT39bPxgI2YqxSNr11I/ph6hC4pLSpg8ZQoAkVKlaGypmBxmzp6F9NLIMmqyuCTC9BmzvNNRZIA2CI3GceMYN24cylCXw7hB8Plq1eeBgwepr68nECi41z5LCu7s8734F6PEbAkLFizktddeY/369cxfsIBIJKJ4uWwVWra1TN24QVHjMgPYFAjC4SLC4SIEgng0rpoMiKz7OppLUeIoy6E4wAYj9vNyIZ2v7SH6cF9vH2fPnqGzs5OOzi7uvGtF3inmlS5CwA9/+EM2bNjAs8//MOce5Lew3Hs9GG9bMBRi5oxZjGscy6RJkzACutM38kFmXNiC8ONJ3V8d6Irmrmadj0fbLNXfw4ZShELl6wg6OzpYt24dzz77bMG7BK6YXjtSC0wIqKsbzXPPPcebb77Jjh07KC8vp7S0FCEMpJQkTZNUyiRlmqTTJqY5EP8kpUPwZtue8spEaVxHaKZaEA4A1O0w0kFKBwIBh+jN5/B1/jYCAaeOYoYYDi9SKDACIcWO6ibeeqH7nFdBCC5caKW7u4uGhgbuXLaY5ctvL/jOeykigTVrVnHixHH27v2YKVOmQjCn4reVIfOzLIVK95f8guwSYFIKmpomAZKzZ057yPgMPxvoTgUdfwJO7v0PGAEfGBSf0nL3l62mVDcTDMjG85SqRiKR5NyZ0xw/doxrrpnKAw/efxF36/KUgldahmFclMUghEIFL126lFGjRnHo0CEA5VDXdCxbpXkkk0mSpomVTpPOSS62wSkBZWaKdnojsSQzUqZ8x1XjpNAy/PGG0AgEg07p+uxOLIQgEAj6Cq5qWSOvlJJgsNhjm5BSonmJtNkvmBCCytJiqqtvoLq6mpkzZ2YAi1eZCAHFxWF+8IPnWf/eB5w5c5JIeZlXO9OybGzb8gqimmYay0o765ZTsFX1Edc3ptAjmeefq7RsR2kJH8cVObM7IQRBw3WQq+1U+bJMG13ProuoBwynKG/Iq42oaToBXcelWzJNEzOdonF8I6tX3UdFeal7+IKVglNauU5jt/y7K8Om8aA6i2HozJ49m1mzZjlTMN/vzudg5reUkE5bKq1G5v7mmxaIXAvNUS5CU7XtcGl0HdN/gA4RikDQd16SDCOmEHr2Nt7In03p7E4xr0bLajBpaKhnzZpVHPryS0pKSwcU/E2ZKWzL8iytVMr0mExdxlL3b8W3mOGBz8VPeWu+h+XSa/tF5JACaj7XAIBhaAihOeSXmqKXcZRWMGCgaTpC1wg4A5m7j0iklOqqKsKh/AinQpOCU1q5LI4uP/alOOfVrC2P3yHnM992wYAOeRiJlM5yzyX7RXCnBoNmjOX1nWVbTMqX4ShuCVl6yLsW3dtfrv/Fr8SudikvizB//k15lXnu4DhU/xrKl/htRctRfGSt+d4D3y+5xDWuL0xkfVe4UpBKyy+5lZS/LWvB9/lgR7K/oV6U3Cmff4eDwRZyfX1/UVjZMpj1mZvfOtQ98+/h4npfbuuBlDPZsU3pKKB8iizT/mKJawpNCk5p5b6clmV9by/hpe1VDtpzhzvN4a5jqBdoqG1H8uL9RQbKSO9XVqtvNWgOjpfLp4yu1qdZcEor96GapvmdVhexJQjH13CpVslQyPShJDe07k9Pyge98J+f32LwTwGvVizWn0v+cp+/fyk4pZVvGnQpHcX2yjtJ9uz5hHPnzlFUVISUYJkqeuhRuTg15FwlkFu7MDf5eCjllJWo68P9uAysbig99zhuzT33el2KFTea5J6jG1ny170TQlBWVsY111xDdXX1AKfzX+QvUkhScEoLGNaH5XdK5lsHSFsWLS3n2b79Izo7u4j291NeUUE6naa/r4fu7m7iiTjJRBIhVJ05FUVKkXYUi0s9YlsWCIEmVHVpF/aXhax2874MI2ueqDlpO0ITpFKmzzLCC1sr5SQwdAPhVNV2IQuaphKAA4EARsDAMNRnwAigG6qN4bT9dP/nXHvttSxbvoxgwLh65xc+kb5/3RtyRd4WX8ZEoV9fwSkt/3RJCEEymRw4PXQwMIMpLQn09ffzb7/4JbqhM+/G+VRUVBAIBrFtm1gsSiwWJ2UmiMfjpB08TtpKK3yWtJ0UC1Vh2KvGIxSFseaQ8WmDKC3hFeNUWBzdMJRi0VTBUK9tIOBN+3RdJxgMZuriOXAJ4VNgaKocWq7hqWkavb297P94D7t2fUwsluChh+4f1sd2JYuUkgMHD7Jz106EphLhA0ZIDUbpdJaVCwxYH2q/kCEbzPUn5nP8+y3n3O9zj5nrOhjSX+lsljZNUqkktqZx7733Ujdq1JDXcLlLwSktyH5AuUUtXH4soee3sNz1/Z9+yuHDh/nP//k/UVJSrvBPEnRDo6y0nLLScp+p5JZwUp+Zoqg5PiZbTbs0BqnD6O/wQ2qMYZFmOa1d+t3Bt6ioqmH58jv45ptveO21N7h9+e2UVRQPvsEVLmfOnOGtt9+hr68XzdAJhcIYgSDStkmnUh7ezrYVeNizyYZ8NNLLfDCMgDfAgPAwV5queQOO+xjd+p25UB4FLs3N9MgoLd0HIlVKD/x9w1WPlmmSSMTpS8T49W9+zd/+9d9QUlJSsBZXQSqtXKpll/faP7WCwUGiactm8+bN3HXXXZSUlGDjTsUUwsXlpcqA/dyimy5wVcu751xw4AAZqWkzHCtljnaSbuceavdCYOgBJjdNZfr0mWzYsImH1943svO5wsS2bX72s5/ROGESd9xxJ1LTFXDXqYSDS7QnsutajsR3mgHy6llVnnN/9+9Lc6b8+drl9iX/PnMtLaWzfPt1upEmwLYt4qk4mzZu4jcvvcQPf/RD9AJVWwWptCCjoNxRCvyh/fzbCBRdrZlKcerkSe5ZsdKbavm3v9QcB8+xLgZVW99OpPO4POfE8OyjHpeWVAwDadtm0eLFvP3W21eh0lLWU39/lA8+2MjP//V/Ydk2aal5YF0BHmZYQpbFnn9//k+v/g62DcLKwdkJf9tvIbmDmrPq7/d+40xzVowA3Hf//axZs5of/uiH3/48/kxSsEoL1Avpt7RgGLySs6RMk2g0SlFRJv3H7yvI9VvYUmasryH270b4goHh+anSaQsznUITGuFwWCXn2japVJJQKJAf9ChzH9fgL4BK8pZomo4uBB5OWkBxcTGl5WUkEomsFKgrX9T9iscTjB07DtsWTnKyrkh/nNs5YoS7N2i4n84zcxKec5/gd0dwnbOnPA72fFZ3Op2is6ubWCz2nZ3Jn0MKLhkt1xHpmta5tCGDiYbASqeJJxL5929LPv7kE1IOq2lzczNHjx7NRpXnbOMqw5aWc7z6pz9ipgfxaTmSSCR47fVX+f3vX2b9+vVeztqpkyf591/+O93d3TknpaEelchaVO5aDsOEoyx3797Nli1bvekNTkvdiV4GgsGBx7kqRPklFbMswMBpn1Nvd/AFpxyrdBYkSJtUIkHaNJ02A9shnRqItiQei9HX04uZTHn7jUdjpBLJgcfJXXLOx3dp3hKPxlQVcf/7IDXSaRtdNwo6YbrglBYwrD9gOLFtm3g8npcfKZVK8esXXyQeiyGl5P0PPuDjjz8GFPreNE0SiQTSllkRn0QiwfnzLbzyx1dImxmllUqlBkSejhw5wltvvUUqlfKKTKQti2g0yvkLFzwaaCmlk5gN8VgSpagAZ/oRT8RImSmvrUrkTROPJ9i7dw9bt23NZhZw9J0UIDRBb2/vRd23K0Mklm05LoWBPiMgZ2jIt+RTJJJPPt7NoYMHBrTTnEVIQEo+/+wzXv7973nj9dc5duwbpcyAd95+mw83bfLWB1VaOeeTe962ZfHqn/7EhZYWRQ7pKS5NKS5b5r3uQpGCmx7mjoq5oeWRiJTSqzKca5mZaZPDhw97ZdNPnjzJuHENpEyTdW+tQ9o23b29XHPNNSxavIhoXy8f7dhB64UL9PfESCZiIFV9ua1bt9JyvoVIJMLSpUuprKxCINm2fRvjG8ezdu1aSh1a5T17PuGbo99QWVnhTXdjsRjr33uPoFFEa2srU6ZM57bbbiOdTrN9+3ZOnW4mFApx47yFTJw4kZazp9m5cyfpdJq28+fQ9SCGk3Lrq0ntSSIxgtqPV5hI5yX200x7d0VIVe0Gie4MJrYt0XUNy7IdLF1SwU8CARDS60sC+OST3dTXNzBnzlykVAOWlJKgEUDTVTELKSW/+tUvaGgYw4QJEwgENCRqMOzp6cC2UoClotVphf+zLNUXgwEF7bGlJJ02sW3pwGCca7OlGiQtmzdef40ZM6YzduwYz9jyPHDuIOpe9vd8z79rKTillSuXUjFXWTBpFR3KwcDkclqBwlKlUkle/OW/c/eKFcSTUX794r8zb96N7Nu3j3VvvsGC+Qtoaz0PqI65a/cu3l3/LrNnz+bj3R/T2dnJ2rWPsm3bVnbt2kVtTS1btmxhwoTxzLlujjqOprF9+3ZWr14FQHd3Ny/+6lfce88DAPzbv/2Mm29ewJEjh/jjn17mppvmcOLEcU6dPsf//l/+Cx+89w5Hjx5lxowZnD97msZxk9FdJy0ZT0iu/+5qUlpuRLCstMz7LsMwK9m7fw/JaD9LFi/h8OEvOXLkax588EE2fvAe4aIwR48eRdd1Hl7zMKVlJXz11SF27NhBIBDg/Pnz1NXVIUlz+PBhdu/cjW3bXDN5CrctWoS0Lax0mk/37+Hv/+7HjK6vJxgM0tp6jrffeYfOjjZqaypRRXcFW7dswTRNWlpasKWtjllayskTJ9i6dQtW2qJhzBhuv30Zuq6xefNmjh07TmmkjHgsisplBFctefEbj4jSWf/+b/t3KgU5PXTFxarkfjec2FIiBymh5U43PYe8428ydIOe3m4eWvUga1av5tTJk9iWye6dO6gbNYpH1z7C/AXzvWnHe++9R19fP5WVlYRCITZu3IhtWbS3t9Pf109ffz+dHR309fUjhGDB/AWsWrWKVMr0okCplAoY3HX3HTz11BM0Hz1C2kqyd98nnDl9kkgkQjgcZvvWLaSTCbZs3sySxYtYs3o1NdVVGR+KTzzwo5P6czWKbdlUVVVlos0+/9DePXvZtm0LIPnqq694443XkdJmw/vv8eabb5BMJti8ZTMfbHwf0zT5zW9+w7mzZ+nr7eP06dPohk4spvBQLS3n6O/v449/fIXe3h42b/6QdevexLZs9u7Zy/vvb/Cs3WQiwaFDhzj05SFnGgkffriJd995m1gsyqaNG9m+bStS2vzuty9x5tQpEok477y1juYjR2g518Lvf/c74tEo5y+0kEwmlIUt3ahipiNcykB/OUlBKy3XMhqppeCDCA7qiHRR5vF4HISgv79fUTFrGoahM6ahnrLSMoKBAJoQ9PX2UFFeRjgUpLq62rFc1NTORaI3TW5i8eLFlJaVsXLlfYwePZoZ06dz//33c/3cuU5UT/GCCTJTXl1XkcWamiqKS8LousS2TRKJGBKLrq4uIpEIi267BV1Iov191NbUEAoGGFVb4/lG8onuFBC9WqW6pjqjtHyLnbZUjqfymGNZJiCxbYuqqkqefvopZs6cwXvvrScej/PJJ5+w9pG1PPnEE5RXlIOEtrY2du7YQW1tDbW1NZw6fYrW1gv09/fR2dUJUtLR3k5HRwdS2owePZpnnnmWKVOmYEvbe262laamuoqnn3qSyU2T2LVzB7aVZtPGD6isKKe6qpLurk6+PHiQ06dOEe3r55mnn+ahhx7MFIeVLtlgxn+rFbhlXbBKy53WuCksF1MxWUo5KHGgruuMaWhg/fr1rH/3XU6fPs3s62ZnpQ6Bw+Nla8yaOYcDBw6zaeNW9u75lGCwCAksWrTYS3CORCJMnTIVTdOoqakhUhqhtKyM2tpaIpEIsViUrVu3smHDBpLJJDt37eLEiROAQlaD6nLu1HX27NmEgiFMM01RUTFz5syhqKiIqdNn88Hmbby/eRunzrVi6xppTYXwbbKnwdK2r8rCFu7LG4lE8uetagLTyS3t6elRbZwp1jXXXENZWRlVlZV0dXVjWyrhvrKymoryKhpG14MtFce8LT0raunSpRSFwyxfvpwHH3gA3TBYtXo19628T0FOhKC4pJhAwPDh6iRSCBrGjSVSVkpxSQnRaBQpld8qHo+TSiZZsGABY8eOVeXgQiHKKyqora0lFAogBXkHZzvPdReSFHyvvRiuc7eVJjTKy8vzPlBd13n00Uc5duw4bW3t3HX33UyfNh2haTz00EOAylNbuXIlhhFi8eJldHT0cebMeSIl5ay89wECgQDLli3zIAWpVMpxmCpoxqJFi6ipqfWOaVkWfb299Ef7uevuu0mn08RiMUaPHs3999+nrhFYvXo1hmEwa9YsHnjwAeLxOIlEgmAwiK7r3PfQGj79dD9nL7Rz3Q03UV1djaUpZLQkOxfStm2Ki6++NB4pFUzGNM28mLwxY8awe9d2/vTqqxw8eJCenh6+PvI1CvPm1qtUyiUYCjF6VB1vvfk2o+vqOH/2PNOmXkttbS1TJk+mo6OT0tJSSiMRKisriZSWOkoKamprAKVAThw/wWeff8bJkydJpVKse+stFqFCmR0AACAASURBVC1ahNRADwTUoKOpQcswDG64/no6OjupqKigtLSUxvHjiUWj9Pf38/rrrxNPJkgmUyAcltsce9uW3x1i7M8hBau0XEV1MUrLDfQGg0Gv0wyMqcHy5cuZM6cDwwhQXKKqP9tS8vzzzwMKnPnEk08SCASoq6/nmWeepqenh9KIUoTBQJDqqiqeePxx4ok4qZRJSXGx13XuvONOdCMzNSspLmHJkiWKlgZA2IRDIcLhMGvXrvWqTz/3/PMEAgECAYO1jz5Kb28v8ViMsrJKLARz585l6tQpxBMJKsrLSVvWoNPDYDBIKBQaFtd2pYkQgkAwQHt7O02TByqtm266iRPHmjl75jTTp09n1KhR9Pf3cfPNNzNx4kQAZsyYQSqVIhwK8eSTT3Ds6DFaWy8wZ+51NDVNojQS4eknn+LLQ4eIRaMgFT7OtdTvv//+DKRKQiIRp62tnWuuuYZ0Ok17WxuWZbFgwQLqnBqLc+bMobexG4Tg2eeeY/u2bUSjUYKhEKFQiKqqKu695x7OnDlDuLiIu+66m9qamvzPv8CfuZAF3mt//vOfI4TgBz/4gWfJ5Cox/7iiAbFUir/7u7/nscefpLioCEtm+3Z0cjuz7SS4ZvaknPRu+pDumPW6UowiO4kbMqh61V7l+Uh7IApfSglafl9U1vTUdagLge2MPZZU4Xnb58sSQihmQ7ItrX379rHqgbuorq6+inxbNiDo7Ynyk5/8hB/88D8BYAm3epKK/PZ2txOLxYhEIiQSSYqLi7Btm0AgQHFxsWfhVlVUkk6n6ezoUpkZhkYoFKK4uBjbsujt6yMajWLbNmMaGryoXXdvD+Xl5Qp5LyGRTBCNRtFRbg4NQUVFBdFUAl3XKSoqore3FzORoqq6Ch1BT08Pvb29aJpGfX09mqaRiMfp6OykpDSCZVmUlVUSMIwshL+UkmefeZyDBw54vqFC8xEVrKUF6gEUFRURj8ezFNVQWlgCoWCQ0aNq6WhrpbhxHIbm+sQymfJCqAHJ/czdqxAZG02QdqhwXGVhZzZ223t2Hv6IgLcuMg19I2F2UFoFgdxjSt+2FiBV0VfbRidjVbr79uvgoGHQ1tpCKpW6quAO7n0MFwXp6Gyjv6+L0rJSDBFQPiQnQFNZUUlVZSVSQnkZ5I4goVDYI4zUDYNRo0d7/UE6jBBCUy6IioqKAdkKlRUVSOkoCwFF4WKKwsWZQc3JWSwtyfgzSyNliBLVpYQUVJRXUlFRkXVeRcVFjC0eg3ATv9FA2mhkumM8kaCyvBKyu2dBSaEp2QHiOlT92e6+bIYBCsx2vr154QL27fsEMxlHI40mLHRhI6SFcCJHQtgI4dSxy8EOqCijdKyvNEJYINJITJCW2t63aEJ6f+Ms3vfO8dzvkO4inUWt+1HRmcQeiYaFkBY6Fpp0Fjvt/S2kpdpgYejQ39fNyeNHKSsruwqVlsAwNFasuIsNG95GkEZHokkbIR3kOoBUVmxupM2lqbEsC8u2kEgsJ29UuYoy/TCLgSErmzkX0a7+sqUyir30IilQheZU6TBNqL+V5vJZ7f4do4IsAtDc/itVv4729fDm66+y9pFH8iLqC0UK2tICpbRaW1tH3N4tyTRv3jy2bNnCK6+8Qk1tLddecy2TJ09VETUtOwHboz52zK7cCbWG7euYAs2n4PJxu/t/c6lGbDvTJrfD+4no/HzxI+F/d7fXnanJqdOn2b9vH4sXL6KsrGzQ7a5k0TSde+69l5/+4//Dm2+sY/78Wxk7dhypVIpUOkUymSCZSBJPJEilUiTTKcyUiZk2icXiWFaatEMUqCLX6j47PLMIIR1/VXYdRCG0rL7gVSYnm65Gk04NTOHnSRMEDINgIICh62i6piqPazrBYMBB6ese5XYwGHCCPzrHjx/j9OkzSCnZt28v//AP/1CY2sqRgldaLmvpSJHdbotIJMIjDz/M62++SbS/n97eXicSFyBtq4ifaZqkUia2bXnr8bhKik2ZKSzL4W23nQ7sdciM70ulgtgDFM5g5+zCOPwc8LnbuYymLg+8u7i0y8FgkGAwSElJiRfp6urvV/4SAU1Nk3jggQe8Y15tqHgQ1FTX8uyzz/He+vdob29nzJgxhBxmWA2BoRkITUfXDbR0AMMwMUwTXdNJWxZmynQwVT7UX87YZDsYKde9IG0VuXOLtLqst0jpK3EvsV37S/NbaJnahZZtIdLKlaEJDctWSdC25QamNJJJHcMIEAgE6Hf6d0NDA3/zN39LdXV1QU+xCl5pXWqhVl3TmDNnLuMax9Pe0Y6UklAwjK4J0pZNIpkklTKdSsK2UyLdJFmc8P62LMtTWpZlK4yOLbHJoO1dZeNXWvnEb1n58ylzw/JCCEKhkMcN7/KJGYbhRBazlZbrZHcjhfX19VRWVmZhtK4uhaXEMAzmzp1DY+M4Ws61Ul1d5UVp3YHDtZbcpymEmpLb0lfMJIfEKvfpZp6d9IqpuEumiEmmbTaRpcjdvfNpe8rO57103BLZx9E0jclNk0in05RXVFJXV/et792fWwpeaQWDQe/hw8hfQE1o2EBlVSWVVZVqW99oluUn9634eYry8pT6R94cuRpz/S5nEQJqaqqpqa4ecrrkf5pus2+LdJKDruQcaAi5mJivbdvYZOoH2BL0Au2GBa+0QqHQJRdszadcMlE3v3M/+3dXBsYrhfP/0D6mS5FcC+0viu87lGFuZb6fv+3dF4OuDC7fBpuk3AzfYgeXkRSs0nJf4mAw6DE2eNYWI33AbsvsXjOUNfRtO+tQU9nhHOqD7W+o7bIcvzI/1/nFWqlXsgw2OOTeI5Gnfb77NxLXxcWAo/N+P1JtdIU834JVWq4EAoEBFXmGUlrZKkp60UT3N4lESAdVleNPUABSkUfX+fBXMAAeAdk+qwHnlKN4ch3v7nYX+1Lki0AOtt3VqLCGugce11ae+5bve/9v+fbpb287PgY3yjyc0vHQf24Ax/F1uYeSCiToOyh5XwAt/9cFJwWrtNyO4yqtkfqKspWWApW2d7SjazpJU0UI08k0ZipF2nKc78mkE/L209cKRb4m3I6pPGKapuFHzruOdfdv7zzyWEDAgEijv02+StaGYXg8+a4z3u+Udx3zhmF4yr26uppQKJT3+FeLSKk41Y4cOcKJEycoKSmhpqaGQCDg3evBGHEHU1q5A0u+5y6EwHbBETI/PdKAc3WgEqapoo2WCwy1LS86mS8yLaWq3pNOp2ltbaUoFGbO9ddTWemAUgv0kRes0nIlEAhklXkaqdhITp08xXsb3qOoqIjysjKisQSpZAIzkSaRSJAyU6RSKRJxFTF0Q9TeNMtXOFWJdJSYcy5Cc3BY2Q54F7sjhFI2qraeUkgq8uPSM6u9ui+JyxohnO8QgmAwgGEonI6ha15OofvpLoZh0NzczMSJEwmFQkybNo2JEydeUuT1SpGtW7fy+uuvM3PmTEpLS+nr68MwDC8q7IerDDaY+Dn4gTyKY2C/lMIt9zMyd74UzujotLcdXJfyu7rHxXWpOpAZVcJMcaYJzp8/T3NzMwe/OsID96+ksXHcpdyyy0KuCKU1wIQfZhsbybHjx3n59y+TSCSYNEmFhDWhEQiECGghwuEiNeJKW1Hw5rGS/GSBanGimEKN0ipaM/jUzA2t27alIBM+yRwuG/oghFA5hALwERYqcKPt7dOP99J13TvmkSNHKCoqoqWlhSeffHJgde6rRKLRKP/6r/9KXV0dc+fORQjhDUquIsqnuHIt3nxKKjMA2d7f/n7iWVoj9WUJ9YwNTffApq4F7+eTy8A1XOtbPftAIEhdfQNGIMDGjZuIx/r5+7//O0UBfRHncblIwSsttzLvSHMPAZKpFC+99BICjRUr7iEYLFadwEmclXk65WCYqWxxsTsuB7cDDPWlduQVbwR1S08NjEJKX1KSm3confbSKbSo4VpiznZZH4K6hnE0NzeTSiT59LNPWXLmDJMmTRrmbl2Z8tVXX3H6zFn+6oc/IhBUJdz0gFtOTZAdAVYWtAeLQnh5psr36XcHZENkMmh4kZnGiYtMUBfudHKk7d3DSm9dILjxpptIJlO8ve4N7r//fqZfO7XgFBZcAbmHhmFkTduGdWpKSSwaZeuWrSxduoxQKIzAAKkjpaYWIbwFoSE0HYSTlSY0bxlQJ8XdjkzNFE3TURU/dfAyBrMXIdSCZqhF6KhafJq3KFSOau+dG047YSAxkOhIdGyUlWdLtVhSw5ICTQ8y9doZ1I6qB3TOnj2bdV+uJjly5Ag33Hgj5RWV6v4K3bt/EgMb3beo+ygx1L0WARBB577ryufkLDZa1roUum/J/W2Ei9cHRrjklpyTSmFqQrBg4QLq6+v55JNPClJhwRViaSWTSSzL8jjPh50eSklxSTGlpaUeMNUdCdX2l1IsA6RUVVN0oTl9RXfmeU7uoNNWOKFJaVkKP4PIUriWa/UN8InkjjHZ8NaRjOACqKtvYM7c62lraxsyqnklS19fHwsXLvQc465vUlnGOSK8joH/DzWICV8ajz3EfVT2sWYYA1wBI5VMCGjwY2S3HhjJDBgGy5cvp6Xl3CWdw+UgBW9pBQIBrx7hiESAoasppefY9jqaMzI5FszFLBKNnt4evjn2DamUCVLjxMnTdPf2ZSwxLWMl2bbN22+/w4sv/pr1699TGf62TTQa5cXfvMSvf/tb9u3/1BlpcyvoZS/ueQ9WJc+/2M6LNqlpMl9++WWWr+VqESlVibeGhjFqXWjYZGpKSmWc+BbpLLnrAlsIbMciOvJ1Mxs3fZjXCrclfHnoK1566beDRh6Hk75oP/2xKJl+mrv49zX472PGNHgl9ApRCl5puc5m/xRxKJFSPcBTJ0+TiCdQD9P+TpYLF1r5xS9+yYGDB7GRvPTb39DScg7bdviunDEynU4jUcmzXzc3s27dOsCJOmqgaZIPP/yAzw7sR4o0CMtZ1Mvivj0y5z/H3Bticd46BELTOX78+Hf5KApKkskkhu4WbFXiTesH3F9X+WT/59IWuXRCX355kA0bNuQNvEgp6eps5chXB72K04rgY/AhRtoW0lY0R5qQfLhpE++++za2tNB0kKQBSy1C9TFQ0Wfh7Dt7cV1dmYh2IUrBTw/h/2/vPWPjutI879+5tzJzThKjAkmJCpZsWVZqybbGSepue9Tu5NA9M8AuFlgMBvvhffECOwPM7H4ZYAYYNIye7e7tnnYH2W3Ldmsd19NWsnKwlSjJkihRgaLIYq4qFuvee94P595bgcUgWbZHMv9CiRVuOPeE5zz5UX5Hw8PD5OfnTz0QNkfT39/PyEiEQDCU9KtKica5VQgkIyNR9u7dhxCChYsWcfDQATZufJQrVy7T3n6GJ554iv7+Afbs2cMTTzzBxscew5SS7X98E00IpCbIyQnxve89y+n2U6CZWNJI+gvZ/jpC2gr4zBxfUwnGyQJ/IHEL0n59IZQu0UZmvthk/zoWjWT/nmlv55NPPiEQDLJ+3RqKioqJxUbp7u5m27ZteDweHnzwQcrLy4lGorzz7jsMhrsI+HQ3Z1d//wC7du0kEonQ3NzMkiVLEEJw8+ZNDuzfz8DgIGVlZaxevYa9ez/mD6+9SjwexzJMQsEgm775VAaHlukcm8WB1v7f5/VjWdZdmbX2rue0pJTMmjWLK1euJHVTkyxeZyC9Xh/DIyMZgzp9MWtcoXKboJSWFHPu3FkuXeog4PMikFy5cpVtb2wDSxK+2cPrr72GJsHv8+PRNDShI4TuXs3r9eDx6GhSpUkZ7w1v+3llvMbvrBO/LMskGAzaffL10me5cPR5Nuczvp/SxSsh1Wuwf5Cf/+wXdHff5Mjho/zu968oDl4Kent7Gejv58Snn/LqK6+q7LB2JlHTsjhw4IDinqTFttdf48D+fcSiEX7z8st0dl4mPhrj5Zdf5tDhwyQSCd56649cuXoFhMAyEggkui6wsjqmprd/3AYuBQKVjjsnJ2dCJ9n/6LjriZYQgsrKSrfkFihFZTbCJQBNgBAawWAwi1x/+0TLSeSWl5/Pffct5cMP/y9CgMejIYHISARhSYyxBH29YeVfY7fVaaorEmBhmoZNrJLihTvB7Eyqn4domaZBaWmp24dfB6T6x2l22XtIjnha1VaRhWjZ/860n+XQwUP8+Z9/hw0bHub//J93iY2q6jf5eQU89eSTbHx0I++9/x6Dg4OEQiE2b97M6lWrGBgYUJWmEwneenMbZaWlzJ5VQ8fFC5w6cYKu69fZvXs3Gzdu5JlnnmHjxo3k5uayYf166urrqCgr49vf/hZPPPFEFoFgvDiYDvUcuqaRm5d3SzVD/yPhridaUkrmzp3L8ePHp1X70PEmnyxM43YhhBI9N2/ezKFDhxgaHELXdLyajmWHYMSiUTQpkKZK9aZruiJAGghNV3FpUuX7wpKYhgkWaGg46+qW22VzCKnEzbQMKuxKL6rtd9/kvVWkPqPP58OYrvEmAwPhMF5Np7qqiqbGRqKREYxEHB1JWUkJFaXlzGlsIhaNYiaUCB4IBPB4vK44mjAS9Pf34/P56O7uZvnyZYRCIaLRKLqu09zcTF5eHpu/uZnqqio8Hg+BQADTMvH7/cpSLpWrjvtyie1ERCvZD3dzdfG7nmgBVFVVce3aNXp6epSIaH+fyW25TL8QjI2NEQqF7uhiFUIgLUVEKysrGOjvR0pJcWEhg/39nDlzhv0HDmAZBtevXkVDkBMKMTQ4yPHjn3Lq9GnVYktSkJdP++nTnP/sM65f6yI119ctt8v9lyRaUlpuYYS7UUT4vPB6vbet02usbwBLcujAQT7evZuSYlX1xqvrGGNjdF66xLtvv03d7Nq0PPyWTHraezweGhoauHjxAgUFBbS1LWLu3LmUlJTg8/nYvn07Fy9e5OyZM0SjUQDqamu5ceMGp0+fpqOjA7VHJy3YbhB1lpoGmbibN6m7nmg5u0ZbWxtvvvlmSnyeo3JMQsrk/lNYWDg9xf0tIC8vn/nN89GEzuZN32Tp0mXk5ORRVV3F8vvvZ9fuXXh8PuobG7jY0YGFpGnOHObNb2bnrt0cPnIUwzSxLMmKFQ9iGCb79u6j49IlEOOHarwwkGnidpwMx5+YiI+Rl5enzrqLJ/Ctwhlvj8eDKVVhiomEaFdSJH0eNTY18s1vfYsDBw7QeeUKP/zhD/H7/ZSWl5Obn8fuPR/TffMm3//BDwmF8lAOxDrR2CiariN0Dx6fnx/9xV9SVFxCb7iPcF8/gWCI4pISvv3tb9PZ2cmuXbvYt2+/W1n6G9/4BnPnzmXHjp3s2fMxlmXa02JycTDzs5QCI2HetZvVPWE91DSNJ598kr/7u7+jra2NFSsfRNd0Up3wlIk66UhZV1dHbm7u5BfOtpYnGGcpJVWVlTzz9DN4PF7uu28ZgWCIivIKcnNzefFHP6Krq5v6hgaWLFpEWVkZEqiuqeH7P/whA/0DBHMDCF15x99//wPkBEOMjsaprplFtvklM9onMr6YMPeTlPT29DCnaXaanufrgFS/NMM0lBuJ/Vtmf7p1IiVpBh5/IMALL77A2fOf4ff7aW6eh6ZptC5oxef3o0uNB1Y8SF1TE2gaAwODdN+4wa5du2lsmoPH5wMhWLN2HdXVNfT19SGEIBgK4fH52bRpEy0tLQwNDeHxeMjNUfO0rq6OF198kXC4H13T0XXlgOy6M4ybJEmZw/kshGBoaIiurht37Zjf1UQr1foxZ84cHn74YV5++WXC/X1UVSo9gNfOlV5bV4uUin32+33U1NRgJBL4UlK0ZFKk8YOaXl0l/ReLnNxcWhcsAAQ+j4clS5aqkmVC0DRnLg1NcxBCUFNToxTsQoAGLS0tdiCsdOqqEgzlsOz+B9w91EwRe932TXOjdAmTTcbHDIPz5y+w8dF1d63Z+/PAscbe6OqiqrJqWjJ3GkEQguLSElaUFKf9Vl5eSXlFJbrUsaTEFMrt4OiRQ5w4eZKe3j6+94PnlKUZEEJn7rz5bpucdDKBYIi2RYuz+HtZNLcscI9XdaAyrd+pnzLVI4pt/ODDD8jPL8iageJuwF1NtCA52B6Phy1btiCl5NLly1y4eJH8vDyKiovJCeUwu3a2y3n5fD7Wrl3LocOHWbRoEbm5ufbgSXfcVXUdQKQEzwrL3m2zKfylmzIkna4JlxCpkA8cawCWUBulKqYp3as6RCrtGRlPpLJNt3FpUFKJnZTERmMcPHiA8vJyKtwio18/tLa28vtXXmX+vPn4c5J6p/Qkf9n7xkKm7Vvuuc7cUV8ibKV4QVE+zc3zWLnyARYvXjJ+PoDrje8Yk93PKRAppe3SpoIY98Y+yEp7LhOLs6fPcvLUKf76r//6rtywlJ/i3SrYZsB5jGg0ypXr1+jt6SUUDJKTmwsC5jTNQbHH6vi+vn7eeed9Ojs7KSkpoaioiIA/wFgiweiYpUqGGYZdhNNSFXnMMbveXXYFrvK2l1k5ICGc/7AntNKaSinR7clmieximtBULKLHTjkT9PvVZLNN9041HoSw05GoMCVd13HiF03DZDAcpre3FyEETz+9mcbGunGL9euCoaEhfve7VxmJjJBXXEpZWTn5hQVoIpnNw634nIV4CWcujfOhsy29gGXnVXPcV5w6hXcK49yw7GwhGkKVLzMN1XJL0n3zJp+ePsWJEydoa23hv/7X/0JRft4dt6B/GbhniBYkCZdlM02acG1l9gHpJZnC4T527NjN8PAwoVAIr8dDLBYjnrCJlKWyW6rYRoOEEWcsPoZhjmW9t2WhimxMkJHSSBhK8etYk2yCqHy1JFIbPxEBEKp6kK6p6sIhvx/Nzq2k6Rperw+fzwuahsej8ic52UudMmO6rkM8gcfjYfHiBTQ1NWbT7X9tIKWkLzzIno/3Mmz7WAlhW/a8tgAiVdRA1k1osotncF7qK7WhZOOEbwfKbSe7LktHbYiaPQ81BOFwmJuDg+Tm5rLp8Y3U19fjuQvH/57itCCDaGU9wFHEJ79KjBn09/e7FYNV1geHE3LyYUksU2KYCZASS47ntCxpIS2BaVoukcxshiJaDvuvvNLVICT1DdlHI0PXlvpeqFAUTVN/ncWhaxpC0/B5fegeHa/XS14wh7z8PHw+HWllNUh+LZCa1cMwTAaGR+jv7ycyMoJhmng8ihuSlp0tNsugJI0ak9zH1oE68yErV3Obq0952U/wGyCEhseuEeZwjEVlZRQXF5MT9Nupam7v3l8l7jmiBTYxmIJoQTrhgnQ7S7a1rIoJW3YppvGclAqrVRlCTeEk87s1TCaduc7wkxzzNaVB08Yti8B3YmVMEcR/2yK5sHe4yc6f4Ke7WRVgV3K/t4gWgDmhX8LERCsVWRe/ww2BrWCd+EwzU2E+jfk1HUw2UrYhcorzs1/gbp3AYPfJNJs/HcKfDRPugXdg6UwUcgbY8ZCTI+nMwOSsU+q1nD6bgtX+Qojt54RlWXe/9fBLg7AnmJzIJwYyptD4X6cgOlM2Yao5KVLcG7Ip9O9i4jQh5Hj/qgkh3FOmd2n7wIkqMX+e/kzldiZO6jdFS1Mtw471e4LjpJX+m1sKL0u7JkOqn9uXMZ9S2+Pk378nOS1rGo8kYEIqMPVQpF/fzUhq2WdnU1046eO/QBnuHiRJU0PC9ApxKdzOOpvqlC+s329laWYlQODOVemoMIR7vJwgymKCy7kMmjOXNftAt08zTk79OLE32cT3Tk0SkFpU5J7ktG5x471jd5hUvfC1pChfPCRMGijvZPF0+v92RMSpSMfnHVrLSk/T7FZeyrxy6scUdYX6KRtn7aglbK4qhUNSflvZMZEqw/3e6UMyJNKU947B6U5Me4d4OYaye5JowVejbJxUTPkCmjLukhNsk5mL7quin19IyJDr2jKBhXWCe90JHeOdhFNX0zAMVM4ri7GxBNFYlHg8TjQawxnJWCyqanGayoptmsoSnUgkXF8tpwcSRgJpSfu3JCmxLAszQyQQrp+ghq6LcR2kazqarqHb9Tp9ugfdo+ptqmLBXrw+9dI8HoKBAIFAAJ/XRyAQQLcpnJOlYrr9n6qSuSc5rVtdGKZpMjY2hmkXmci8Turn1HQ2abXvHNeIDEuRM0ks299L1cGTGEYCyzQxTCdFrlpEhpnc+zSB7YulnsXjUdWiU10bPJpyS3Xq16lkghrCLoyoCeVkiKbaaxgGHo+Hgry8r0S/5WQ3kFItorGxsbQCqGpxRunt7SUcDjMyMkIkEnELl4B6jtHRUdW3UuX5Ny0ra4yCBq5P3PjnVdxXIBBEub+lOurqBIMhvD4vuqZTWFhIXl4ueXn5FBeX2AV4k+c4Oq9U73IhBMFg0LY2T7yBSinp7Ozkd7/7HaWlpXZKmgL8fj/xREIVDR6LE4+Pudd1vnO89i3LxDBMTNNIm39CCAzDtPveQLPjFR3H5PHcmcOVqr/jDVcCy5QIXYJlYQgLaagCw7oFhgWGJUlYEl03MS2Ijxn4fD7iYwaWmaC9/TSnTp2msLCQ7373WTsZ4fhWZOsnd23fSzotKaWbK94pUpoNzgTq7Oxk27ZtzJ07z05VYhKNRuyc7unFNlMrCTsEzJWzUT4z6pUkmk6laYny+XGupVKiZBI4tahdnx4hkg6kmiJaHo/uTii1WOyJ51S6Fj7bR8cuYGaLAZZt7ezqvsbg0CCza2bx4osv4r2D3tnTweDgIOfPn+fw4cOUlpbi9/tx4u0A4qNxYrEY/f39DAwMEIlGlLNvPO72nWmaxONx+xxNLVgzu/3N6QPIQrRsT/ZQMIimS9fXzSFcwWAIn8+Hz+cjPz+fQDBAMBCkoKDALpKqxsfr9aDZd3eK4t68eZOLFy9SXFzM008/TWlpada5KKXkypUr/Mu//At+v5/KitnMmzePnJwc/H4/Y7aQJVBOxE7FIPdZNJHUF2WRex29rZNMUlWdTq6LKdNzdfHHZwAAIABJREFUZ/Slcx/Lvk2mET1VHEzVRTmxnoaR4ML5C5w+fZp4PI6mafz3//7/jdN56SnXcFL5OKLhPaGIdx7s6tWrXL16laGhIeLxOE1NTSxcuDCrNUQIQTQa5R//8R/RNI3m5lb8fj+JsQSx0RiOaj2TUGW+dysRu06rehrR0jTpckWZi0e3szk418uG5DmQqs50DneyELh+adKnnAaxXDFBCM0N2u4dvMHAwAC9N2+y8sGVfPfPt3wpFaZN06Srq4tf/vKXzJ49m3A4THl5OaFQyOZcbU7VsXA5j2r/TXXQVM/kPLBKjJispHNrcL3UNdO9mWVJm7t1HHV1OxTHVNEOKURAEToNXUh3o7Qsi3A4TGdnp0o0aBg88sgjLFu2bFymUMuy+Od//mfef/99/v7v/x6vnufqn6QlGdXVTqjhzAOnIjS2TurzqUA8WZykp4MJ/SCx570cP6czUzsPDQ3xN3/zN7z7zttUVJSlHZuNaDkv+IIDpr8svVJvby+vvPKKK0oYhkFjY2Oa0tGB8/nSpUsMDQ7z7LPP4vEEXEUlYMsVGTtY8gLpu5qULhct8KSHDU1i11K7pkJSD5EdmtCwsixKYZ/niEBIr90Omd5EpzX6XIQQXOroYNfOXSxqXcCSJUsmvfedgGEY/NM//RNej4/KiiraFi0Fe8FpQlMRB5YF0ing4WqQ3b5OfR6Hg3U63pTaBERrKjuVvSEIw34v0sR+kaLzke7/Mvm9zWqk6aIFVFbNYsHCxSBNXn31VX7yk5/ws5/9DJ/PN24u7ty5k/UbHkb3+kibBsK+i81Zu5ZAkdp67RZ4pTuPbPd2IjymQn5+Pq2trXReuUpZedmU3vmpTMOkBvhM7mJsbIxwOJz23Y0bN4hGo+OOtSyLEbtwxOXLlzFNk8HBQfeYsbEx4vG4LZ+PuecPDQ1N/cQpEELQ3t5Of38/q1atYuPGjTz55JPMmTNnHMF0M0jaBQbWrl2Hx2unwJVKASmlwLI0TEugqk0nKwRbUsOyhFu5WdUd1FNEQ+FeBzRnhbkvqRqREsozXau22t11TYXnuEG97rq1dRDOuJF6T5Hyu3rV1tXTtmgRhw4duqW+vl0YhsHBgwfZtGkz5eUVYFdNtqTAlMpFRfWJ3adSpP8ltaq3Gitppe7myeIf6S9tgldqsZCUeocytS9TxhEthYAlC1w451gpL9NKvtc0nQ0bHuaTTz5xuTRIbuZCCIqLi1l+//0IoSXrKqIySTitSNZOlCQMFXxtWqZL0G7/lcR0HI/HWTgh6ysbsl3/oYceYjpCaiZtmZDTam9vp6+vj9HRUVauXInP56Orq4u9e/fy7LPPEovFOH78OO+99x7z5s1jbGyMDRs2UFtbCyiRYNu2bTzzzDO89NJL/O3f/i3bt2/nO9/5Dpqm8d5779He3o7H46GsrIyWlhZaWlp48803ef7556d4jPQHGh4eRtd11q9f77LzmUpx51ghBJFIhMOHD/P88z9WnWbZO7XNdlsOiw5pyspUda+whXopkxmNpNRIGAk8uhIbNPdcW743LQwjM4fX1HD8zpzhSt4znUObrAoRoEqPSdDQqayoofvqpUmPv1MQQqOmZhbBnFxbB6jZPkM24bYrPE/XS9RyxCVS845mg/291NM/j2MFVMHb8W4GNqGSjljm3Ndphz0uEzTbkgZFxcWUl5e7czKVcCEELa1thHLy1JU0K0lAU+4kUCJrPBbh6NEjjMZizJo1i3nNCyZ47ltHJBolJ0v68c7OTs6fP8+qVavx+5UqwUmWqk1FbaZAIpEgGAxk/S3b2nVeExKty5cvuxyJ1+ulv7+fjo4Odu/ezZo1a9i/fz/btm0DoKOjgxs3bmCaJtXV1Tz66KN89NFH7Nq1i8HBQV555RVaW1vZu3cveXl5PPLII5w7d44PP/yQ4uJiau3c17NmzWLPnj23RLQAGhsb+cUvfjFlmg1nQPr7+7l69Spej9eex3aArPNKGbfUrpMpOoXecJiLHedIJBI0NMyioqKSru4e9u3bx1NPPIbP50lJbaKuMtDXxx+3b+fFH//olp7PgWnApcuXaGiocx4o4wGnQbRsjEZHKS8vv6123Co8Hi8+n9/lMp0q1261eXuDmG4Ar7RN9ocPHaC+vp6K8qpxx1iWyeHDx8jNzaW1xRGBUzOWpV0QhNqgXMIiYGQ4qgpS6D5SORMnjEva+aomIlrSVjHEYjH7c7q6xJJQUlqGYZr4UIYbVXRXs2+XQpyl5I9vvMZnn31GU0M9JQW5aChrrJPrPlWf6txLZYKQE64Ny5JEoxF+//vf88KLL+Lzel3jiBBw/fp1du3axQMPrFCZRNzuU+ykY0m9HVXQpUuX8Hg846Zxeh+O1yNPuMr7+vqIx+N0dna6Fge/34/Pp9Ke5OTkcO7cOebOnUtnZye1tbVcvnyZt99+G8MwiMfjVFZWsm/fPhKJBB9//DHBYJBEIoGmqRJeBQUFVFdXU1paSl9fnysmToZsv8+aNYtYLEYkEpnYWpRyfiKRYHBw0D1OOqIWTKwGISnpxWIRtm79PR999BH79+/nV7/6Fb29vXRdv8Lbb7+FYcQQwlCl0zUnbaDEME23PqOjM5vuZiWlpKenm5d//W9kOzP1eSdi21PPGhoeIhQKTfPunx+ulVAKN/d6sj1JTeC0XkLDsCx++7vfce78BZIlwJJ9YJomhw8f4Pz5c6hQhdSXfSWR0gJrvLvK66+/xtWrnVhWAiEyuFqZbNFE4pFjzb5+/XqaeJiqzPf7/UQiESBbJEf6Fbe+8gcWLFzEmrXraGhsYnBwgBMnTgAQiUQ4euwYlpR0d3dz6vRp9u3bx4EDBxgeHsZxKTl79ix/+tOfOHjwoOtesmvXbrZt28aePXvYs+djwuEwQsCxTz7h6tWrFBYWqtTONpz89UeOHCEWiyGE4MKFCxw/fpw9e/Zw4MABRkdHJ50PoDJshIKhSf0Gs0lME3Jazc3NbN26lRs3blBUVMS5c+dYsWIFnZ2dlJaWsnjxYmpra+ns7GR4eJiVK1cSi8Xo7e3FsiwGBwdZsGABK1eupKOjgy1bttDX1+eajCORCKtWrULTNCoqKmhqauLIkSPk5ua6PlMTxc+Zpsn58+e5fv060ahyvquoqKC3t9ct1pCNuKV+5wykSCVYk0JpFxy/mo8/3s2P/+JH5OTk8NOf/oTDhw9RUFBKuLebd97djqZpzJ8/n4VtC9GAN996i9FIVFnrTAt0QWQ0xsd79tDX20NxcTGrV68mJyeHgYEBDh48SH9/H8FgiDWr13L23DlOfHqaj3Z8xPL778M0Tb6xfm1K1tWU55xiwxMShgaH8DXMmvKp7wSklFim5TbMFa/cdjpiVvaGW5bF6VOnuHbtOoVFhdx///2A4MLFDk6fbscai1OQX8DCRUvQNI2Ojg4uXeogEhnBH/ACFpqu0d3dzdGjR/EHPCxfvozc3Fwkkps9vZw8cRKAlpZmCgoK2b9/P3/841uMjkaZN7eFuvo66uvrXb8rcDYKOa7dQqZzBiofWyLrfPb7/YyOxpNzc9wxkq6uGwwODtJ9s4fiklLiYwkqc3O5fOUav/3tb/mHf/gHurq6eGXrVpYsXsKJEyfYsWMHs2bNorOzk5s3b/LUU09y6NAh3nnnHWprawmHw9y4cYOFC9u4dKmD0dE45z/7jEAgwOzZsygpKeH61WuEw2GuXbvmtq+/v5+f//znLqNx4cIFvvvdZ9m9ezfnzp2jvr6eixcvEolE2bBh/aTzoqCgYMKQu0wDWiom5LQWL15Mb28vY2Nj+Hw+Tp8+TSKhkshpmsaNGzeoqalhZGSEuro69u/fT3t7O4888ggej4fjx4/T09NDT08PQ0ND9Pb20tfXx7FjxxBCMHv2bFpaWigvL+fChQsUFhZy9uxZli9fPiWb2dvby0svvcRPf/pT3nvvPf793/+dsbExd0ebCpZlEYlESFgGFhamMLE0y9aQZNvbLXunNZEYnD13mlBOkLVrV/Hgg8uZO7eJs+fOIpAMDQ3S199HX1+Yl3/zMn19fRjSIhYfxTBNjhw96k7onTt28Kc//Yl4PM6OHR9x4MB+pJS8/fbbfPzxx4yMRDh06BDt7acxzQTKQ8YkEh0hGhtJWwi36rkyMjLypda+c7y3p4NMjuXUyZP8+te/5uTJk/zmN7/h6NGjCKHh8fj49PhxTref4fVtb3DkyBEAwuEezpxpp6e3m3C4FynHGB0d5pe/+jlHjhxg/76P+fWv/w3LMujtvcnP/tfPOXz4MHv37uMPf3idWCzGuXOfMTgwoMp4nW0nHO6x6YktS2bonSaCEAKfz5d1XgrAb7ucSFK5ZdUDjnf6iRMn2LVnN6YFxz49zp79BxkYjmIYBqdPn0ZKycDAAOfOnQPg5s2bXLt+neXLlxMMhtixYwdSSt568y1yc3NZu24dy5cvJz8/n+LiYtra2ggEAixfvpyVK1dSXFyMBNoWLaK5uYWzZ89i2v6P7e1nOHbsGKvXrKG5uYXXXvsDsdFRrly5wuDgIKtXrSIQCLBnz+4px9nj0Rkentjwlk2vBZMQrQ8//JCKigoef/xxgsEgW7ZswTAM27FOIxqNUlpaSklJCZWVlezatYucnByXDV6/fj3l5eW89tprrF+/ntdeew0hBIsXL0bTNGpqahgYGGB0dJS9e/dy/fp1ioqKaG5unlI3lUgkyMvLo7W1lSVLlrBs2TLKy8vZsWMH3d3dUy5gTdOIx+OMGWNYQmIJC0tYSpwTWYiWsJCYIEzApLf3Jn6/F69PQ9OhoCCf0dEYQhP4/T7Wr1/PE088wZkzZ7h65SpC13j0zzby6MZHudHdjbCf76OPPmI0Hic/P5/R0VEOHjrE8PAQ27dv57777mPTpk1s2rSJsvIylixZwqrVK/H6PGzYsIFHHnkkK5c1XVjSSjPvf5FwxOFpH5+hk3/v/fdBCB559BFKikt44403lF+U7qG6ZhZr132DktJS/vjHtwBoaGxg3bq1+P0+bty4DsKk88pFdu78Ew2NddTMqub11//A8PAQBw4c4MyZs6xfv4ENGx6mrraOUCiX1avXEAwGWbp0KavXrKK+vi6NaCUtv1MTrYnGSIDrqJr+gyO6qnNn19WyYMFCvH4/rQvbmNeyAN0XSOqtbF+m1PuUl5WxeMkSamtr6e/vB+DsuXOsWbOGluZm1q9fz8qVD1FQkE9DQyOGYTBnzhzmzZtHXl4eAqirq6W+vj7NUtjV1UVxcTFLlyxh7dq1dHffJD6qIhZqampYsHAhc+bMYWRkZMpx1nWdkZGRKXpwPCYUD/v6+ti8eTMNDQ0Eg0FGRkY4ePCgK35dv34dv9/P3LlzOXXqFI2Njbzwwgvs3LmTgYEBuru7iUQiPP744zz22GPs2rWLeDzOtWvXGBwcZO/evYTDYSzLYmBggFOnTgGKC1qyZMmkhKu4uJgf//jHBAIBl12vrKxk+/bthMNhqqrGK2ZT4fP5bGuVmnnJPTM9bsuFVNYbC7UAy8oqGegfwonC6esbIj8/H9ApKCikprqaQDCI33Yu9AiNsuISRmOjSJHcUYeHhikuLmZsbIy2tjZKy0oxDZOBgX7q6+uorKygoqLCJcL5+XkIISkpKVKtFNotc1gOvF4v8Xj8ts69ZUgQmnD7+VZbfPH8edasWcuSRYu5eaObf/3Xf8VIJNCERmtzKwsWLOL69W7+7Vf/G9CoKCujrLSUd97NR/eofPkDA8rdJhaLIoRGU9McRkfjfHbuM6qrq1m2bDmappNIKMmitbWVYCjE3LnzWLBgAdIm8pqmKR1oiqVxXMERmbQ6a5qYlHBJqXLRC4cAitQ4SnVOS3Mr0pJ4dB/L71tOfkEBlqWU8KOjo/SFwxw9dgzTVLUNAHx+Px5dtzcmdb3a2tns2rWLBQsWuCm4AwE/Pp8Xw0jQ0dFBQ0MDXq8Xvz9AJDJCIqFC3GKxGIFgkPLyMgYHB+np6eHw4UPk5+fj8/lUKI/tae/xeNDs6IDJNtVQKEQsFnN5V1L+ZnNOdb6fkGitW7eOyspKl3h4vV4aGxuZP1+VPJo7dy719fXk5+fT0NBAIBCgubkZj8eDz+ejtLSUyspKVqxYQUFBAZWVlRw+fJj+/n50XaelpcVObSxpa2ujsLAQwzBc5fBUD+voF0ARuqamJgYGBiYVeZxr+nxOAKduj6ftPe52WSbBlEkLkxC0tiwgkTB5843tFBYWcvr0Wf7qr/4KpCA+anDi5Em6b9zA4/FSXV2V1HGIZDuklLQtXMj+/ftpbZlPaWkZTY1NhHJyaG5u5o033lS7kNBoamqiqqqKUDDA6OgoH3zwPsXFxcyf30JOKIR2GxVV/P7Al0e0UBP5VsJGUlFTXcOZ9nauX7vGsaNHaWxstIt2CCIjETqvXOXQ4SM0N7faPneqktLY2Bg5OTlIKakoLycSiTA0NER9fQN/9md/Rl5eATWzZrN372FOnTpJWVk5IKmqqkHXdYLBIKdOnaS6upJAwE9+vtosVJ7/pPopc6a6n4UK9cnLy1OFR1LgLOiRkRGKioocEofAcenI4E4lVFVWqaIlUqAJnaKiIioqKnjjjTe4euUqhYUFHD/+Kfn5+VTYbhb5+XlUVlYhNI3vf//7bN26la1bt+L3+1mwYAErVqwgJyeHdevW8c4771BUVMxDDz1EZWUlH3zwPrFYjMLCQt555x02bNhAS0sL8+bNZ9u2bVy9epXvfGcLwWCAgoICcnLU2i0uLqakuGTKcS0sLLylTddZNxMSrerq6rTPDz74IFJKN+xj6dKlrm6moaHB1XXNmzcPgMceeyxtoHJzc1m3bp0btPvUU0+psciw2DihE1MhlRPTNA2v18uFCxcIBLL7faTC6/VSUlKSbJ90/jgK4cyOtKeUlGhCo6amiu9seYbzn13EH/CzatUa7lu6nO6eHprmzOWTY5+QSCR4ZssWSsrKkopbS7q+LUIIHnv8MeJjcYaHR4jFRqmqqsLn8/GDH/yA99//gKNHj+D1qti36uoqCgsL2bx5E8eOHSMvL5fi4lJy6uunfN5sqKiocCsXf9FRCxILv9+H0MYnowPSXB/GQ7B502a2bt3Kq1tfIdzTyzNPP41f91BRWsqJT48zEokwlkjw508/Y9sRbcdeK3m/ispKvvWtbxGNRunouIjP5ycYDLJq1SpOnWrn7be3k19QQHFREd/93vcQQrB29UOcO9tO/0CYeXPn8sgjG9F1h7sVrltAJu+YrBEg8OgeZs2aNWG4VOflDqqrK9GExEyjgkkZWbPp13/+T/8Jn50dQUdQUFDIj370I4ZHRmhbtIhIJEJubi4VFRU0NjUBsGzZMurq6tCEYMWKFXi9Xrq7b+LxeCgsKsI0LYLBIM899xxnz57FMAzy8vLQdY3Kykosy+L555/H6/USCAQoKSnhhRee58qVKzQ3N7N06VKEEGzc+KjLMLS1tVFVVZ3SP9kRjUYpLCxMI/pJpYxQ/ohZiNq0w3iydboz2f1ZnCUzdxbneOfBUglTZmjD7SAYDBKNRqeuGm23rbi4GNM0lTOqS7TS/6Ywq+qPvQACfh9PPfU4n52/gmEYzJ49m6LCErz+AM89/zyWGSG/IJ/a+jp8fh+Ykr6+Pnbv3IXffn4hBA2NjfzguefovdFNwjCoqlK747JlyyktLWNgYMCePBVYlsTr8/L88y/Q2dmJlJZrib0dlJaW0nnxzJdCtEzToLy8DF0XGFny62f0cgYki9raQEq6rl5j7erVLGpbhIbgh9//AQMDA/jycli1ejWtra2AwLSgv7+PzstXaGqaA6iN6rnnnuPkyZMMDw8RDCquoLq6mhdffJ7PPvsMKSX5+flIaSKExpNPPs758+cZHB6isqrC7mtH16Smg2NBTGuxcBTGKvi6sLBwQqLV3n6KFSvuRziuqraPmOoXdW3H5rph/XrGxsZcjtXr9bB69eq07CPKYildF4X6+npXL6VpGvfffz+mZbk+hOqWgqamJhoaGrCkRLdVLg8//LC7Nr1er2tMaG1tpbW1FSfeEmDRokXu9aqrq6murp6Si9q3bx9PPfVUmngIKYRrgvM/d+zhnZjwt2sBS4XjWT+ZeOgsUJ/PR1lZGZ2dnTQ1NSEchlyo3VOzxUXHopM0y6q/OpKcgJ/FC+fb30ogQV5OkKWL29A0O5bNVrB2XOrg3XffpfdmDy/++MfuFNc0jYrycirKlJOnMxk1TaehoTGtTxzFb1lZuS3GpNTXc9tmnz9JN1p2H5iJMcLhfuS0cxXfPiKRiCpZ5ThCOpyne0SG/iKj/Zqus+S+pSxdujTtjIdWrwbA0Ez3W8NM8Mv//Qt6bvYQys9l6bJlOOlii0pKWfuNb6gQnBQP/Lr6emrr63BqGTp2g8qaaiqqq3ALmpiOc7HdQM1ySUpqu50ulVIVDq6trR2XosYRdfLz8+nq6qKwsBDNjrBwA6RTREQhlMOsx5vOgWRKJkp/loy5zbY+tZQ2pH2vaQiZDDFKPSbV+jmVL2TmcY67UCrC4TBdXV2Ulk4tRqZiUvHwy0C6v8vnI4COnmvnzp088MADlNliWeqgOuKs1+tl06ZNvPra6/zlX/6VzQ7rGG7FHbUrSVTZL+ywmSTtsmyKZoC048SEQOIhkUhgWgksS01AUO4FoVCIpcuW0dbWxo2b3cgMy50QdqqZlD7QdZ2A348QwlVuOkG9Qgg8SuOrmqIpXU7mNTXhMIh2JgKUrufggf001NVmhK18MQgGg1y+fJlQKEQ8Hh9fsGFcjhPHodDmOpx+EalE3I7Isxep0hkKJBal5aXkFxbw+BMbaZzTZMsoQm1OthsBqM0mGZpjb5zqQ1IhLjTbcdXehKR7FAiJJS0ETqoXSPmVeDzOG9u28eILP5jQ72jLli188MEHxGIx6ufMt/NLpWq4bCLotFM6BM9ioj1eOuOd/JCUIixnzWVuiJlzR6Q8kXvljO/SDQZZWpJyLXUfwzDo6rrO/v37+Yu/+Evycm/dwfmuT02Tit/+9rfs3r2buro625qnlILf/OY3CYVCLtGSUhKJRPj1r1/Gsh0AFy5ciIWgp7eXaDTK0NAI0WiEaDTm7mxCqsKqXo9wC6Tm5OTi9fmUv43mUaEgQnFLOFyNZSVrHNoRc6ZpYZmmzfkACFW41d7qHfZYT9mhJcro4EQOxEYiKmWHVGk7nESDjsiSm5NLbm4uxcUlFBYVEg6HudTRgd/v58jhI/yP//n3NDfP/xLEQ5Of/OQn9Pf3s2DBAqqqZ6uMB4BpmHaQsYllxwgapoFpGDjWNDfbgTt+FqZlW+8kGCJuE2SlRNE1Hcsy0/QpKkTHJn4yGbblbD6O+CSEhq6roHQpnPhIdS1N+NU97aBrh8DpukcV09V1V+eVSCTY8e//l5GREf7f/+e/uWqLzL4eGxvjo48+4ujRo/SE+wkGA+SEclw6oGI1HXHJTphoOalwJtD9ZtKWzN9QXFuqejGVCDqbZCqxSSVQQgi76vnkzEaSKdFcgm9ZFlVVlRQUFPDE448RDCTF5lQSKCVIO6mhk8DSddK9l4hWT08P+/fvJxpVjne6rrJOrlu3jmAwCKSLoJFIhKNHjzIwMMCsWbNImJLBwQFGoqMMDAwSjUZIJBKuP5OQls2+J1noUCiE1+tVOjypCqRiJ1tL3eWkZWG6xWCTubhS2+MQHOc7J4eQ611tv08kElhSEo9G7eKw5ji9oGP9ysvNo7S0lJycHK5eu8rp0+1UVVXS1NjEt769Oas+8k7Dsiy6urp46aWXuH79Oh6Ph+rqavz+oM1B+ZSvkuZx/QAd7sqj63i8Xjw2l+mY6lOPQU8AoAkLr8eLR/dgWiZejxdN11KU/x57M/G4orvqN8fxNTku6pNpuxCo3y3Ty9DQoJuB1jQlpmFgmAaW6YZPk7DTJFdXVvD4YxtpapzcWGKaJidPnuTcuXNIKQkGg661WdqcvNpclS+Ws4B1PLe94ViWhUV2d4wkAU/2UaZoq+vp/mWO+sK1JWQ0S3M4NwFz58xh/rx5uIwr6cLj14poOXDyYTsLYDrOqmNjYyRM6SpYFRdk2YNh7xgqHwqWlSQmkNRPWKZdadq+rhOs6nBIpulwXJCNtXY4rsm2SkfnAkp3peaCsmrqbmbTpHVV5e5WFaUj0QgjIxFyc3Oora11o/a/LFy6dIn9+/czMDBgZy4N2Fk5PCrrp5N6xyZKwuaaPB7dzd7hEi1dB2HrYTRH8Y073paUeHSPy/k4Km1NaFiWlr6ohLN5ONkxpc3tWiQMA7DH3RQMj4y4WWsNU2KaBkbCUJyL/X0ikcAwDFY/9CDVVZXqFpMQF5eTTiEMUqYn+XNEPYdzl5bi+rUJWaqpIYWd+daed6lNTFWHZN5BCMYd675x1BUZ09sRNmXK+4lcmxXRSm7SXwuidTtwdCIOMlWHSkGfLqOPv0j6x8kyPN4JaKm0LQudy7YYMn/7suEsbIcIqcbYv7kiUfo50+xud4fOdm7qeE4042+1O1xX5BQOIyli4Sq1x7V7mn1vSpl173KdWplYCvy8yOR8Mn/L/D1T05VtbKY6xoGGTbQnIFr3XGGL20W2SZS2GYvkZJn4Ine2TVNCTPDe+WoSncNXQbCA7JyvSPszbeKRqfie7NzpHHOrcDVKqbqztPef70baFOd/kSM41bXHberTuGambHG77Z8hWin4apbxDBzcbv9/VaLC7bZ3usTsP+p8zNwsboVgOed/nmf7Ausdz2AG9zYmE3Fm8MVhhmjNYAa3iRmi9dVgRjy8g7hTMvvnve8MZnAvY4Zo3UHMEK0ZzOCLxwzRuoP4qojG151Yfd2f/6vCF93v2UKfvvLYw3sNM0Trq8HX/fm/KnwZRCsbZhTxM5jBDO4qzBCtGcxgBncVZojWDGYwg7sKM0RrBjOYwV2FGaJnz3M2AAAAFklEQVQ1gxnM4K7CDNGawQxmcFfh/wek7pNUG99GgQAAAABJRU5ErkJggg==;movable=0;resizable=0;rotatable=0;deletable=0;editable=0;connectable=0;" parent="1" vertex="1">
                    <mxGeometry x="-138" width="536.4" height="417" as="geometry"/>
                </mxCell>
                <mxCell id="3" value="数据类型" style="text;html=1;align=center;verticalAlign=middle;resizable=0;points=[];autosize=1;strokeColor=none;fillColor=none;movable=0;rotatable=0;deletable=0;editable=0;connectable=0;" parent="1" vertex="1">
                    <mxGeometry x="40" y="-49" width="66" height="26" as="geometry"/>
                </mxCell>
                <mxCell id="4" value="" style="shape=image;verticalLabelPosition=bottom;labelBackgroundColor=default;verticalAlign=top;aspect=fixed;imageAspect=0;image=data:image/png,iVBORw0KGgoAAAANSUhEUgAAAx8AAAIHCAYAAAD+VuHnAAAgAElEQVR4nOy9f5Qb133Y+0mlhk92xVO5QqRVZhHmOHJJShsZi6yZGi9sRUsJ0d23gPXqMGvZqWIVFPyKwOunFaRurbIK3T0ytKpWyJwKJqpEtS2v9dzWwJ5dgwkt+ZR5cE3R2BWzkshIyTMDjgUpYKV2XUmHLnn8/rgzwMxgBhj82B+U7+ccnsMFMDN3Zu793u/3e7/f7/25n/70pz9FIpFIJBKJRCKRSNaZv7XZDZBIJBKJRCKRSCQ/G0jjQyKRSCQSiUQikWwI0viQSCQSiUQikUgkG4I0PiQSiUQikUgkEsmGII0PiUQikUgkEolEsiFI40MikUgkEolEIpFsCNL4kEgkEolEIpFIJBuCND4kEolEIpFIJBLJhiCND4lEIpFIJBKJRLIhSONDIpFIJBKJRCKRbAhXbnYD+sGlS5f4yYULXLx4cVPbceWVV/Lz27ZxxRVXbNg1t8q9bzU2411IJBLJe45qntgzg+Qmgw5f1sjHAyztXyEX9W140ySSTWM5gzIOBS2J08iQtGZdVj7KcwpKPE9tPU5u49KlS7zz9ttbQvm+ePEi77z9NpcuXWrzyxr5uIKi9PacttK9bzW8v4suqOaJtXh35TkP73Y5g6JkKPe/dc5U88Rcryf6Yyzfoic6Hb+ccbjHMpme76tMRomRrzq3M7Pc08kF/Xj+yxmUuU7OUCajiPbX8rHWz9vp6Lk276hjOnue5TnF5X4b97URbarlYyiO/cPD2fOxHucmt/a59VmdLTF+umRgkKHZrMv5fEQPpigeLbV+pg732vu7uIzoVf62OkfLc+v0ab4xy4Dm9+fxPjaJvsuv4RAp0mTb3a/jOO/D9Tulgz5Qy8c6nNs6p/OVj2qe2EiCoumj1IJGclj/YzlDZBYgwXQ+1OwNWc6gjKc7b+lUAc3B8/KTCxc6P9c685MLF7jqfe+zfmi777C6gpbtzVO0Fe99q+H4LjpGePcSi8bfKQqaRg5cx4M22eZ8R9KE1RXPHpPynKKPq05INbwy1QrFMT8zTj9bnieBykpLz+UgQ2MJIkraOt4t59H7+JTKShUYEB/X8jECiaLDATpjKiuHYHqkQrxLL5LjNcZUVrJRmu+q8+fveM0BP6nZCLEdHr2+yyXSpCgMg294htF4gBgr5KLY+pfA9TnrtOsTYbVdu3yE9odJjMfwn8wRHWjV+DKl2TDqSYcntlwiPaay0qKtfWM5U3/PiRGFhO3r1vdcZj5RJLWQc+gTra/Zu4dza4+f1gSZUCHwTJmo0+rH8AQq05SqUfc+NJyksFMhoFS6fo7lOYUITnqAkM+Vgw7P1UE+Qxh1YZSlcfvnVszvafPlL9ROLFEcG3U+R8eUySgRXDUxJ9lZzZN1kwFuOD5/r4RRdbnUdgw4YB1n6yG/giQXUihHStSiTvOMoDYQQiVCQFmq389mUKuswlQc5hQUh77cbr7pN12GXemDqponNlIhZDS4mic2Lib13J4SsZFp8ntsD3s4iaYlvV2mrrCHUQ84d/it6PV3bFP9vvVlasuXduXWTMpVWG/Fe99q9PMZuQ9O93fU8t0uBlDs2pOFsEVYOSlW7hOyrRWVVdgZclXEUwc1fOhC/uho88QzECSZ1ZjIxwgcyTPRpNSXyYw7K1a+aA4tKtqaNRR1XXbUlaVq3rXtTRP/okIa8T4mKjECZ+Os7MDioKjlYwTODuLrw/MffKaN4pFwPo/9fZWPp2GqoPcTH9FsgYqiy8isRrT+S12ZatU0l2vUrzWnkDX93W7ydlLkDQWkYn7+pt8Z77p8PA2LELA/hKkC2qTf5fmHO56IxTuNo2ma/RtxjZ2FlsZWLZ8Vyta44q50Ga0zP9fhJNqC8BoWtAn9Fy7Km+051sfDJo6ffuCLxkkpETJ7V/AfcRtPtj5kU2CDkxorO2JM52vkoj4qZ4vAqMcW1Dh3Jox6qEOzZSBKTosi3le2YWRX8yyZ5Ha9b00GcRt/myp/qVE6WiR1MEdlTiHgII+Kir03tpqXwHUMLmdQjjT/uvxMguJUgVwnynP9+XvD0sftNBlEbkanGJvmc3Yvv2htpOk0HSuuIJ7/QJBoVmNwTiHiZsCvO43+ExzW0CZbGOwbRE85H7UTSxSn4lYP8FQBLeoDouROQmwkBh1beybB7rLi8V6kaeLRJxjJ5YzPpliKvr3a1ivtTrMXLuLgyRCCz29ROov139Un0uV5EjsLaHq/80VnUI8GnFctaShCzQRJNimF/SE4aawk2QTmcgYlMURBC4JF9yozn6Du5er1+ZfxsopgO8am/Ns9b/VJVsu1vbp18tMNnTEVdafn5gi6lKUV7PdvUs6qebJnVFY0q7IklDJo7v/U5dqg5znB/AyKjl47ABbN48CmWFXzTCeKHrx7uuLit73r4SSaJu4rsQipg6K/Jy3HZduuIG3G+OkPQSbUMNMVSNrfZwf4ojksPX7noLdVqGqJpcUiRYuB07kB2w82Rf5WSywtpohn0ZVH06Xshij27xorDxElrbctBBSdnQ4AY2rTeYxVj5rtnpoUb8Ops4V0t+7ll32cd5/jFJzU0PRrOq4G2Zwinc45LTH1H8e/QTc6/axkux3dndGD8WGa4OvLxbbONmAYIApLHh9kY2BvjmB5/ulT3LYq/v/gp2/hvptMX770Ctu/+q74/5CPtTtv8HzeZu9tw1uaWljB31Or+8/zT58ic72fr33sGo9HvMU3H61wtx7YOH67+Vj9O7bz6r2/zHVbor2dk3YSDns6O0d5LiJCb3oUKi0Fkx4mAoayY1WMGopxjfyRVdRD5pVIEcOdGDdWLdssz+Pm9cHFc2RdJTC8dSlVtR/dkrqHUJ80rLHkWdJTcTQH2dGv598pwus+RKFjeWZMfs2TXnmu5bKNJ5w8jeU5hcgZt5A1MzXyDyUY0r22rr/Kx5j35xpKfz0EpUXfMla3/khl9TMVhqYg7OARdfY8i/5ub2dxTGWmay+fYfiuoJ7xtirVaMvWGz/d0GQ4OFHNExtZYtQ0d7cOWXJS3AVmGVc7sQTqiu7YxNmAPZ5BOR7qQOFN68q4gdWwTR10P3Lj5K/4tOuQK2PloSl0sEypg5WP8jMJiqSIDzQM6OZVGnfFvNXK60aH+zTwJr96Q3dmmO+xaTXI4Td9pnZiiSJDxI0PqhWKpBurZVMFtL3rc203ujc+lkukx0ZZQQ+1mkrBrLMgCasrxM8GUOZaW8K1fEwIqU20mD9y5y2s6cryWfuXN32ItYfhjWdf5MbXOztv3XurW73YLfHem76pvPHsj7j7eh9r93o3yC43GkLSKXSuPfX+3TTptbqWM0WXUB/TGRr/rZ5jlSFCAyDCF2Bor49aPsbSzqGmUBGDxEN5QtmozfMjzpGPT8P+IRJH/W2VVLPyXF+1cAgbiTkd7OQlWlTqXnChuKWo617VPNOmVQ9Lq7t8/sFJPb/H5BlqN1nVjxFXpnS0CAy1OaoVFSqLwH7rp636QdhBH7UrDP4dYZEsXI9ZLlOahbDqFCJib1KJJVIMHclQzjZ7XcM7hEvFt2eU1ZEYeSN+ux6CYvcqgmMohQbluTSr9utX82RnIbXQeq4ozxlhQonW4RHuZzApByZZ7ZS/aB5L+jy2qeOnV8zjrx720kLJNJRkk0LbWLm0/LIeKueWw7Fk+rt0tMjQQZPp45BDkQZSsxGU2Xbv06CzsCszGyl/fXquEmNGiJpzKKkl7Mo1381yhLeVj3oeb4+4hU15PX7RZfwuOodRphw+s+BRftkOcpTDrlT9hNQwkXGF9KbptXr/Mc0/5eONEE/R9ze+Vd0bH8MhUosR5g9qDStuUhexjsuA+pJTO8ZUVrbIUt16ICxQCG92Q/rMX79+ifHrr3L59ho+ce81fGJDW7SRuCuzdSW2nijbbkXPGq/qhlfPG2CbqA3hKcJQihRF8QP7uXQPpj2JVHiwEPdQzZCgwnxcIb3YZsJfniexmKKQdfl+IErOSUDYvUS6MjRkM85q+VjjXikyZErYNZ5JP5+/K8sZlPFVyzVq+WmXfC7vGPkK4aPTKHUlyXvOh4FvzyjhROO9+vxDsFihAkIpqJ5jlTCjezz4Av1Rclm9T8Tz7srOQJTcQgVlJMOgloSzRcI7ZurtLO315vFzU/iKjjkcYVQwhYvEqYw4eBfbhrbWyMez+E9qzn2mQ4Viw8dPr5g953VvuJGvFEA5alIo66FtXhL6hRxKHXS6Y/Hd0EH9LMvzYvzsLJMc1nO6HHIoUnuTJCeThOYUIooxBm0rTyMKCT3hvBc2Uv6GTmSdletWhQsccjYEZTLxc0xkB/GW86HnIk2lSPfDAOmFLnM+XPEqvxxobXyaxvKAj2A0h7YnT2wkS/7Axkfz1HPd6pQpzaYI6Q6BSl0elza0XT2EXemZ/uMZQluszvHzT5/iv1y/nVPH1lgA8DXCfcSqxQfqIVP2v9cXwwIFjk4TY6avtdFb39trPPLA/2TH7T/h7mOi/Kw1NMoacgYwfr3t3MeMsrVX8Z2HP8RH7MesVth+rGL5vlWo2hvPvsi9vJ9bjq1x2HZeAGo/5FOP6u+Q5jC4Vu3dWEzCxqkyTl0hLVAZibh7myxn7B+1yirh/RMm5TJFPBolGW0R22lR+huetrC6gqYZoQ/A4ir+BZXwYsJigFknZzGB9Vxdqq64uSiCoCcHg2Ku4LQBz78eWjKmsqJNiGcjvhEVllSV1US3+Vs1SkchPAbFnaOoZyIocwUK3ZxqIMToWIKlEzWiUZ9eLjJCaTlJcNjZcw3Ok60RluKL5iicVQjMDdY9x+fOADtMPx5OUphS9D4SRj0p+kbwgErWtCriht17Lp63Fw+3KeG45e90qudYxewj9BHNmoONRA6LIERqPEKmrfG0NcZPfwmS1FbwxwN6BasJzj2kJyR7CR2pV34rk1FKLXQIPSFbVVlNlChPBgmakmcdWzapoe3N1I1dsXLklHDefdhVJ/Qmf8tkEpCaCpM+Y/2JPQzYgj1nQxxBRBFjxgck3fLNhpNohpG7XBL5cf75zTc+eqBn+WWgy4fWFescPrcUPnAJw2x6n/1IPdDTI9QUCf3+62HJ+velWRha2Pg9enrbZHA4RIospbkYkdnmeD5r9QWvS6H94fCxt3ny3lv4mk+EUH3lJaz5G5vBcon0WIoUadKLRVgsopwVFWE2hne5+4XtvPrwL3Nd7Yd86tEaz3/smoYRgY+1h4Vx8PzTpxqT9UuvCCNG/46XXmH706+xducNephai5yLNqFqC8fWuOXTt7B2k36OZ9/Sz/Eajzz6v0g+fAtfA/H3A6/wvNnocWvvOtGU8+Fl6bWaJzYOBS1HkDKZPnnevS/76yE/+4XfzRw73LoCkt5OTIUksrbRqyfhAkSbVicaXtHKXEQsOZsNbQdPrSU2fExlpf6MrALbYjzo3jB7u1bUGIGH8oQOwfQ6PH+wPr+m8sr1ROdzrE4VyO05131YzPI8iZ1xChRhR4jo5ArE5yl1kHDe8G75GNwJxbPGWocf/xgsVWowDKWjRcL7Z5o8gK4JmzrBAyrhkdaKeHCyQGo2QnpsVA9BAQaizKhL4l218zyaQoBSCxragTwxJWbJL4DWOSvOCluqEQst7ha/S99zpIUSKHJWNnv8rBe+RhUfI5HZfo+OCINCVH4L4lez7p7naoklVGaiIfxHE8JIHnBIlrVjerbubETYVa/y9xyoM0ww3WR8eF75qIcHNpLgFU9la0UbcsOAsQdFUxhsi4TzVm3sBq/FCRzoh/wCI3IlzKjL2KpVVmFs1CGH1xS66ZDA7hx+2Aeq51idipP0l/Q501qMxVz+nfXeZ8RGb8aHbgWOHsh5r76wQYzf/ot8wgdwDb90fYXC62/BTeuXjNweo6TeCn59j4FctELGKF+4IW24gid/V0/49m3jFt7mr2vwEd9r/JfVK3jSJV/j+RfehdV32f6AKa3X97d5A3pPHh/y1Y3CX7r+ChZefxe4Bl76nxzmXQ4/cMrS/h0e2tt/KlQWzUqrKSa5Vf126FM4RCNO2MCSjGlP/LN4X3xEsysQD6AcTZGioVzWwCVsxJSw26pUotv+B7ZjfJMuIZc2OeEYG26e7OxtbRFeIMKLKlSyyf6Go5jijoUXu00K7kCU3CRQPdflBctkxldRTybhGeMzH9FskvJcmnSHOR8Awb0pGDe8yCZjpHqOpcUwo4e6mOINI+J4meSwkGZD9opRBovWcD5R4cdlnwh7zoG+v04tH0MZLxIeC+ux8YPM60ZCq3122ilD9cTMejuccjaor6aFx2D0UK45NNEUGudS3mpjxs+6o3uJAUiTzU+0X81fniex2CibW/c8xxEyzAj9G0A8C10URQ+mUI7k8e8UOZM96RYt5bJ5dQs2W/4mo1BzSAr1tPJRzRM7HkJbSNmS4K0/b+qzbnRYOrdfVM4WYdal0l23OR9mPMkv3ZAcUxvOE6+YlXzzGfPTejjlOmnKxvyzXKq3Y1WdIVnNoIw0ks03Q0/v0vgwLVcadZ8dBenm1xLeKtTy02IjoWFzZJ1RXnHrJ5w3Vf7aCDqsKLZxNMqH1vJu9dvdaJHkZ8IqOIXx4z8k/gpOasTnFGJ5e9xxY7xZvX4mD+VsikJHm1u29/y6Jm+bYnRbVbxprk9vOlaf7ISX0KGghWN4AWJXZpY4V4WgZaLo5vk7tKvl0d2XY2zC8FwN4LgzrbecD5vyNOAnbHo2/h1hOHqOskvIlVd80ZyuJDvv5Vuei5AeU1F3JkzJtNAc2mTCrOxU88QUReTM1Q0/8awDSgpVDcPZeIdzTXPybmpBXyVzLJ1r/D5syinIUNaSBM1VHw/4qQG+zR4/Le+9R+qGob6CsJxBGQ/oq/lu6kxj1cP8XIOTK6hx3QCtVnDcAWR4ApUAidkUBa23O3NedbApt3XDYDPlrzueVj7symcdb6WhW6MXTjhkCm9tVZDDJWG8fXibkF/Nsq7HnA8b7eSXkbuXWnAfV5WzRdgZb9qjpbHSZ6JeHMXQmTdAXx5O6mGRSbSTflGZzmUPvfWmt00GjT9NSZbW2/ARPaQSG1FQtlDNZ16/ILz2tR9y77FLvRWh8UjlLKiHRKWQdaWre7uKHb5LFP78LT7xsWt449kXuW21kUPxS9dfweGvvsI/NOdjrDe/8LcZX63xyEs3OBg9rdvrikMZSE9Uz7E6NspE0zG1epiKd7oI+zEqy5l2PI7MplBP2o9tjLeYXVAvZ4jMhklNrRJRYqgnc4Q8tdfF82vslzEWprizvcfMfVWjgxXSDlY+hKfJqbTtOiecA00Js71gKA89t6ehPAnDrFjP+xCe0Br5eMIx5Kq76wEmpcLoswUtSpBBKkrEdS8ZKybjwLTyATTmHTUF+AlFQ6SUTpM6HfYhAVuFIrAb4akF4xpBkhpkFIUIKQqaVu/LelbL1hk/3cq/Jlz24arnW0VQXMLeROUxJ0+vyQCtAgw17wOjr5iExzyusDRhOB6EDDAbCC09/5sqf93pPOfDhO2egKZqpa33mdD7wJTKivFRfRd7l528uzWIqyWW+iVPPdEsv+oFS6YKnRsG1RJLi/YNMstk9Kqn5ucUOqiyNK6QsRmWlpzCPjkVuto0so/8rZ7PYIppb2zoVGnEBA5EyWkrqGciZFrGlBnlKNeX6z72AR6srXHjA6fY/uj/Ivlpc4Wmt/jmo6fY/oDYr+LwV0+x/YFTPPKS+PaNZ19k+wOnROL1ao3tD5xi+9OvebpucLK9wE+PKyiK6Z/TRjRd31srruETv7sdjlXE/b3+AV69/QrTeW/mO0PvctsD4nlsf+AUn3r2LU9n7vqZ+X6Zr336qvo72P7AKbY/+kPe8NBeN4x4206XTGsnlig6xZvqFWjifd8zwhxzLrwm4f2hugc0kBiioCWJDpiua7RvIEpOKzCUCKDMCV+5CFERzoHkZI4VVZRxrICYcBRbv2sX417NE1NEHHoum6NABEXJOHrmN5YSGeMe9FCl7twd5udvQ68M1RI9bMT1HBuNrmg0+r1QiJs3MXOvclVMBEz9w2WHa/P1TPffKBRgvA9RrKR4tOTgitEn/jrCONA0Dc1UVSmmKGJPBy1HtB6zGiS5METiobzDeUVui1eErPDjN66lb0ypaQXLqlh5TkGZE+VwC1NpIkqMfNX1tIJNGj/dyj8xx6f1cLka+bhYwVrRtGZlfTiJdlIlvLhEyfYchNIebjMudS/xmN8aiqy3IbWQI5fVROn++rMWfcRRKWx6f5roM56fwRaUvzqpBX1c2P8ttAs40p/xYoLAnKnXTRUs52lZzct4npNRfPayygtDJEYUYvnGKPRFc43x26Jd5840f1p+RuzRM9GR0m+Vv73IL9d97OwYpb/3Wn/TNO708b9qLyqhBAiMC50vPW6SI8sZkcOmaRR2JpjO9+7ArjuDzPcznPTwjvpHbzkfYImdtCwNW5aY7DGUgualzzDqyd5v/iN3GknKTn/fwH0P38B9pu/X6p711iVhr/vYzax9rMfGtaD3Hc5b3Zv4zv7bOr5f5msPW89lf4ZrLa5sf+YGrZ7ZdR+72XJO+99GsrojbdrrROWsczJta9wqq/SxAo09ic+cLFpPuPSZhFC0KZwjtWBuX5DkSZXVkSz53UMk9Mmy7pGtbxK11D7m2PypaXynFrR6VZvgpJH8q9STgRsbyrns5mrCMWwEaFqlcNpHyOLhC7l4mdvQ6vmbGZ5AHQu03SMEaISjdoWD582F9vt8GLlmGj6nfSns57OEpIkVbnGuFgmbDucNGx69emiBTeGzVNSxHT8mwlPtWCuKNVZAysfTsLMgxvVwkpX9Mb0CU9I6Bx1MobTyFlvvQMxFA9hi3MVdG17n1IJW351arE7UyMcVlEXjHM6b7W3G+OlK/hnXnyqg7S2hjAQs9+xIU16APVTN/GOnsDSxQlZvp94/7HvvWJ+1E3rCtD1HwXUcNOcUpP5IZXWLyF+Aillncsl1MAgoCcfQrHoIuBaiFA+gKKZ9ktpi5KB5qTg4TznaxgHU9C7sYWllSrNe9EJbP7LJ8F7kV8zW9wwcQ/eaqr2JaodhtTHujO0WsMtuU18ozylEvBTh6IbljM0Z1EzlbBFsZTj6zc/99Kc//em6XmGd+fGaVSW+44/+P77zyo83tA0H/8G1zEZ+0fLZ1du3r/t1zfd+5L+eZ6rwo3W/5lbnX9x2Hf/iNmv8lXgXXca4VvPEHoIZmxBo3t1Vxy2J9HLFLJg9hk42lKx+lAoUOIZFmGKM8ZowuVnYQmSadhZ3UsBtfct+jNPu5E2/9c973hhxS2KrcNXYYM+skDtUUnRQWPvXng5CnbbI+Ok+xr9MZg6SRrs9GEMNwqgnZ+ChgFB2u+qD/chNuPxxnW/aYS/YsbfkUgreyYzpZ/+TdI8t9LSbcVTXS0KU3HZTt/WD9d55/rI3Pt595x0uXry42c2wcOWVV3LV+9637tfZive+1diodyGRSCQSiUQiaU/vOR+bzM9v27bZTWhio9q0Fe99qyGfkUQikUgkEsnW4bJf+QC4dOkSP7lwYdNXAa688kp+fts2rriiffJzv9gq977V2Ix3IZFIJBKJRCJpzXvC+JBIJBKJRCKRSCRbn8s+7EoikUgkEolEIpFcHkjjQyKRSCQSiUQikWwI0viQSCQSiUQikUgkG4I0PiQSiUQikUgkEsmGII0PiUQikUgkEolEsiFI40MikUgkEolEIpFsCNL4kEgkEolEIpFIJBuCND4kEolEIpFIJBLJhnDlZjegGy73Xb3l7tsbz+XeZySCdmOnPBfj3IEc0QGHL5czKONQ0JIE17eZfaZGPh5gaf8Kuahvsxsj2cK07P96P0rsLKBNXl4jQCKRvLfofuVjOYMSz1PrY2O8cOnSJd55++3LWom8ePEi77z9NpcuXerD2cpklBj5aotfzCkoSoZyB2et5WN9eL818nGFWL7WaMecuRVlMopCZtnl8GqemPneljMorX7vwnuhz0gE7caOfwcknnHp6cMTqGNpSu36z3KmabyU5xz6XTVPzGmM2Putie7GlY/Q/jDFxHybMSzGW6vx0Z9x3Tm1fMw29j1SzRPrUHb1SnmuIbOacOgbnZyj5bl7Rpw3MeLWPh/RgymYzbaYL2rk463nk9YIma509M/a3tZ9pf1857ml6/ouJOtJLR/rShcwZGRXssgRL/3R5Tcd6NC9y5M2utYm0LXxUausws5BNtoP95MLFzb4iuvHRtxLLR8jMguQJuIg+D13xmqeWKsJxGkwL8+TWEwR79JbWzuxRHEqrnvxymTG0wCkx83Xbj8RvZf6jETg9k590TgpV+VKKF/p451PPMEDKqvj5r5WI/9QAnYONv3W2m8t31A6WiR1MNqx3PRFZzwZTqH9KTE++ja5dkqZjGdjof1vy88kKE6FvK9UtZNTLv8aE3iNc2dgyO/0hmrkj6RJLbRbOStTmnU7R+cIRcvLM/URnBT9JOL2/ocnUMeKLJ1wV1hC+4dIjBhzgwdjwkGBSi1oaJqHfydVwu2fgMWJ5YrLu99UhWutzPwTX+a5s5vXhNpyni9PxzjwyQMcuPcw89/rn8H16lcOEPjfD/PcWt9O2Z7lDIEEqGqK9HiHjolqiaXFMOoBbxLFMHLc5UWXVPPExldRD3mZC3qXJ7V8lvSYysRw16foO12HXVXOFgnvmGn6vDyn6Mqujan+LPW+l7zXzvdSJqNESDd9nuo4XKQ8p5DdsYKm5RyvsaqukOyoMzq3oZaPEWgSrmKiDqsrXYa4GIpaTpwrnsV/UkOrK3TiHlhwCzFo8F7qMxKB+zsNMqFC4KE8oYMVAuPNIwlAscmo1ILWeiwMRJlRlwg8UyY6GaQ85xAGVc0TG0lQBKDYuMaYyko2iq9aYmkRiouKbXyHUU/mCJ2IEUgUWzQCaDpWP4Mq2uKLJtH2+ImNZIObyccAACAASURBVMm7ht+sJ0Em1CwBJdNGXulybkplpQoMoIfFOd1dpOl9NWGZXxzkVDVPbGSJ0ZPtnkmFymIY/yGHr5bnSaCyMtxoP079ZrlEekxlZSBPTDH6g5kASsL6ifH+esdH9JDK0kiJ8iSUHOcSYNHWhvrz0/uQH5QjeSayUZKaRtLtcssZlCPNH6fHnfupMyni9o9mIyhnzOMmRTzrAyptz9V49/o72kzePsdz/+YwQ3vuYd+Ojb74Bcpzv03kP/xvTByc4J6x7aydKjL/zwN84//4Cv/+D/b17Dz+u4M382t7BvmFbR0e+OdPceBhePDrd3FzJ8fpMiK1oBEdhsGzCpG4X/QTxwOc9aniiELC8fdW2eGL5tCinTTQA6Z5wrkdNvnVszwpM58oAkUC9h+2u/Y60pnxYZlcwXLT+gQLNBka5TmFTRYBlxHBZmG/nEE54sfv9RSW99TcMeskzN/pnc6iAOiddUxl5RCI1ROXKWXKNn3oqx6FrM9mkDooEvpEZRkw9Ylej1NeBBYdBqppkmurQEp+JvBF46QSJSrZJJrmqjY1Uctblf+IkoYxFXVngkS9z5qMivrYEsaDkH72iaOhnJWfSTC0oJEz91FdKRbttk103eaoDETJ6SdydgbZJ6H+Tji+aI4VYu4GiC6fUFfQzAr3sPV9lecUIoYC2k1DmuYr58leyJ2KVUmp/854NjXyR1ZRDyX1tgRJLqRQxjOEbPdYPp4mvH8F34Cv/h7M95Tdsc65OwNRcpr4b1CfS4SDKN7GAWg2qJJo2e6b0JUs1sfC0BQwVaBAhMDcICs7lihSpGiee2zvMbWgkXQzKit5YuNOShvUx/BYD/1sq/LSU/zL2V9A/a85osYC7Uf3ER0LEfsH9zIf7dT52Izv1gfJ3drFgRfXKB2HTmIShHwG9aRWdyAEJzUKcwoBpdJChunyuZ0jpponNtLOuNWxO0oc+mPouDHW7cetoi6sMDPss/a3ulyc6Ks8Kc9FhPHSpn/X8jECRzvQM3uks7CrgSi5+lJpioKxdLqQWqfmbSK1H/KpB17h+U24dHnOGkpUD3FzXFaOkKZIYkQPQfrTDMpDFYbGnJa+V1DHxGTruvQ9nETTNFbUsBDImoZW77Smd276t6LaF87FqgdjoiMHJ8XvCvqk0ji2QIpGOxsDSD9+5yDkp6nsd+pv5raI80jWgddLzOw6wszS+Y6PuXvXEe7+fIlWR55+wn7u8zz3+Xmee73bBoMw4Nsr0/YcJF80Z+rPev/KRolONo8h69jyMLEtZ4icWd9lb6d8juCkw1g1xnX9X/89Xb5ojsJUmqxTnPIzwvBorYCLUAN7iFrncfrOMsv8LgXC6bOihhsyyiwXl+dJ7LSF0uk5RBFbHls/Q64uWyqdhL/poTPVCkWG8OsrBMEDKupemNcVzoasD5v+Fv9aKtF+XW+x/StMmebCDTU81nj16Jf5QvwABz55gNj0lyn+hRG3VKM4fYD7/lOzEvxi7gAHZkt1hb32vXkO33vANZxq7dxf8iJDDNojQwejqC//F+66ydqmF/MZ7vvkAQ58MsYX/vg5Km83vq0dO8yBh56jcu45Mvce4MAnn+JF0+c1ve3PPXSAw8dqrP1FnsP6/d03V+RV07le/OMDHPjX3wC+wR988oDpeHfKcwqBxBAFB1kbnNRYUVeJ9CkXyBO6niRkRNjWP412rTB6NNAI+6vmiY1DQcsRqkwTqIcE6nkoI0uMntRscrFHebKcIeIgR7cCXeV81E4sURxrWEiblf8B8MazL7L9gVM88pLxyVt881Hz35cfwb1DlqRBEeLmbxh/ln9mYZwj+ptJtOyEs/W6PE9iMczonm7flHPeiD1UpJafFisVXWI+3hfNkdxju/Z42tYWl9CClpzh6V1dKLlmxVr/15FivuXo8jm04voQ06cP8uQ3bmj5s/NL88y+chMHR681fXot++738/1bFznd4WVFYQVbnLdrgrCu3O5tCiKkdLRN6FMXlI6nSe2sMO2oOA8x6GC81CqrnV1kzyipxQSBjZyEWxCctE+krT83078YZWeZJf4FmuRUXdaCUIbH/PgpkxmHFBHn42cj9f5Wy2etskgvkmH8i8xCMRHoIifB/T6M483939FAm7W3v038uq3tHbXZUeEvkHI0BoXxW6uswlSIkHGOgSihSpb02Cghz+GDzvNC1wUP+s4FynOf5tZ/UWL7/ntIJpLcMfgDDn8swfxZAB+/9pHtzB8p8qLlsBLf/nclbv7Ir7ENqOQT/OZvf4O1m+8imUhyz0cg/89/k8PHG2sJ23cOs49v863FZkNm2/btbK+HSlXIf+4f8umv/w+GY0mSiTsYPPEFPjqR4UXjdG9XKP3FU3zhrnn4jXtIxn6N64zPq42Ej7VqiRefzzL94Cq/ciBJMjbB4JnD3DqRoawbIP7fSJL8JyEgxMcTSZIfH2K72+PSHa4RCi2dJL5oDu3kKEsjzjlIXdGi/3vJNQUf0azJMB6IktPvwRfNoS3o+XnKNBxydmL1JE+qeWKOebJ9zF3pga5yPipni4T3z9SNDbf8jw3DdwWnjv6QN276ZTEgLneGk6yoMQLxPCvZkEiA3OtDWMjTcMhbLLdb3G3CJc6wKe4WRAd+ZpDcAfGbtjkf1TzTCUhNhUmfad/GZsrMG8fb2lfQQnoMs70dZTJKFv+GxbffwNTpMXZt1OU2k+tDTJ8Otf9dp7xe4sjU1UydDnGt/bvrQxycnef+J87w5Gd3ej5lcFJDmxRhevXp1hhLimIJBakvRduVWz0vQygxq2K5vuqQi2DOvfCwpB2a1IhSJqMEyPg7CUlpEeqINVTRNxAlqUUJzSlE9NyUjcY15w+whqw1aMp3qOaZThRJLeT64NBqFVKmlzA2/d2QtYbx56c0pyuxs87nKs8pRI6XSQ6jx1bbcO0ftr7a9X0IRP/XQzGcfuCQd+n6W4OmtnfQZrccHlt/FuNSGP3h/WY9opH3570fOOd8+PaMEk5sVh6UiYsX2H7L7/CVb06w71f0zz46BH+5m6e+V2Fihx/f3juYSDxO6aV7uFlfnbhQLjFPEnXPNuACV91wG4cW9hEdNtT2EL/wZon9f/YDUntDbAPYMcEX//gvuS/1UQKP7WP0n9xB+PZ9/NqvbMecorF27AgPHb8D9f99kND79bN9dJBt8cN8+8Q93LxX//XxbdxhDuECRyW/9B/hGfO5bh3G9+mP8vhilK8c8LP9V0KE1oQhOPTRFsUkjBClkxq5AVH4oKWTUV/RncnHCChLplCroovO44RJD6qHgep9/qCD3K6Cm/OoGVMIOdRXWM3fWfMIyz3JE1Gso8DKjiyBo6NNx7Qd++tMF8aHvgy00AiRMQvsTeH6D5DkTY7X4BOWZrzGIw+8yY57b9Y/N//9Go888D/ZcftPuPvYJR78tA++WuMwV/Gdhz/ERwB8fxuefZHtx0RZz/Hb/XztY9eYzl3jsP6X5bvaD/nUVyD54be5zfHY9viiM6hHAwQUgBSFLIhqPUMoIxkGW05EwuJuRAfqnZ4O41oXEwRQWckGgWA9jri5rTnqQ+jEEkMLOSYqse6Mj+USq+oMM0yTNgyagRCjYwkiipioViqGYRbFV09AW8Grinz6iSPMZvQ/bj3C04DFoHi9xMytL/FX+k8+OHsH06NNKnIT55fmuX8K7vzuBPuub5znl75xkDtvOcPTu/6S4W/A7O+8Jg5I7jUp1+d57vP/maeP6n/uv4kvPaYr5q+XmPkS/PqHXuJpvd37vnGQO28xrnyGp3cd5zmH9p5+4gjL/pv46yn9fkznbfcczN9br9f8jCzt9cDpb70Es3e4GnDXjgbYt2uF5z6+UzzLHvBFc2j+DMq4wqq6Qs4/T2Q2jHqyeSzUTizBWBgWhyic9JPVx1ojF6HFRAQ4Ggtjqv6fIMmTKrGRGHljYqxWKIKj4V85W2w70Sw5HBec1NBozmFp4JB42KeCIIYC7JXmCVBUESuSIj7sZszY8tj6Fq9fobKYIqQ3yHCyRaMa0Rb3ZH7e6akUqVm7oZpomeiZOthzw7cYYeEIqkKzMVAy5ciYlaXGnFXLG+cRn/WFgSjxqQTZEzWim7lXzpXbufHWCW40/r6wxtpahTfehtLf1AA/fCBE+HdjpI+/yD033Qxc4AfH5+Gf/ntC2wC24ftItDG/X7zA2jtv8DdvAudqrEF9LPhvf5Bnvh+nXFzi23/2x9z3bxJUdoR58N8+yj0f2Q5cYPX5p7ju/zpaNxYEN3NX9hlr2/ePMtxc3K+ZO/+x7Vx+QtEw9x1bpnbA732cDiep6+ZOubBuNCWJ95jzUS2xhMqMk7x3lN9hF0eoXS9rTS2f7UmeNOSSt+tVzhaBUY+t653OjY/lkvA8Gy+iXomivw3rlI98+Oe57U9f4xN3XtXBUe9y9+s+Xr39TW786ps8ea+PBx99k7+uIYyP2hq3ve5j7eEbhEHxaI3nP3YNH+Etvvnom+y49xbWfCBCvX7EN3/1mobxU1sjg5+1h6+xHesVvWrJoq3U5HCSwpRCZC7UXlmoe570sKyqCEGxetCaN56qKy36pF6ZUwi0qzYDiIkmJxIcjTHc5P1yTzg3hERuuDFgjLakFjS0bCPpLDzWGIBhdYXksPcJZddnD/LkZ8/w9K4VBgxDweD1EjO3Vvj17x5k+noQiv1/5mnFrHy/xuyuRokXQ9m/dnSCLzHP/V8q8auP/X3+/EuG4WE67qmb+NLpMa5FXF8o18Lw+P5td/DkYw2j4f4n/l7DODn6Ek9/aC9Pnt4Jpxa5+6kSv/VYiGs5z3OfX2Hguwd58noQRswxngs27uu5qQp3fvcg0/p1/uRUiDtvafMc6s9JHNO0wmxbETn9xJH6edtznuorV/PrH29lquxkOHmcb5XPs8+D4deW4STaST+xkQAKos80T0Zi1W1UHaK4iF7hKsb8MgQ9r1S4J5wDdSUo8lCeUEuFWTh5mHILZ61QWYShgw5mST6me7qcEthXvU3Em4Q9ZNNuzHSesN165QggvF//z3KJNFAQVzI52dwqEOrohlvl7BCFyZB4b2b6svLRG5sXneDw/O0rH62ML4eiAYAtwddbwYTgARVG5ilHN3eT0Qt/WeTLTzzFt54r8WoNfH9/H0PvB+qLvNsJjSV546ESL372Zm6+8AOeU68j/iemVr9Z5qnZLN86XqR8FtgRZN8NwAccLrjNRzB6F8HoXTz4pTVeXEzzL+/4NBe+/f+Q/NU1audg8CYPMSNXghftKvwrzUHf/sEbYbFCBbZc7kE7ys8kYP8KPofVCREqGG/0p+o5xHqp6fi5CGnCqHRGX+WJi8EStjdqA9MnOjc+hpNoCyLuLLWgMVERNe3txVw3nJt8PHn0R3yz9osdHHQFT/7mDfDnb8LQB/iEDx6xfH8V37lTj1v3/V0ivh/phsl/p1C7xMKjp7jb9OsH/wbTyLqKpLHS4ftlvvZwd7cFwGyJ8mSw3sGDkwVSivWzOmZl37SsV55TUGYhPBYmMldGO3BOF+q6YTLQOH6aGVZUCBw1rtfszfSsBAx3VnHITqMCkFGas4Cm+cnHixT1KlzTD5WoRfuUUPXGW/xVMqAbHlBXgrXzcIuhBLuHXV07OsFU5Qj373pJGCUWZfxq7rzfWB0Q511+A7j+PNWjN/DxxxpK9q6P3gBP/TfOg/77G5gyDJHrruGDR9+i9hhc+/pf8P2jP+avjhorF4J9dwH6PXxw9nbdsLiWgQ/B9y330i3W1RaAD/q9nvc81aNXM/xY61/5/Ff30sBmdC8VIDbssykhwtMUR/OX6oqNL5rz5m3rADF+s5SquvdyzKHCiK4IN+ektKMRvmIdD2KfHGejq4+4KYstqE+ARrjVVIq0J2eH0/VFnkZDzXYIw6mH39lWj8xz21TK6mRz8Z6aQ06Dk0mgTMnepk1b+aiRnysRmgy5RCd4iFpwabunNjfJfvvKhwdMldsa58ji78aAHggxOrbEuSoEN8v4frPIF/7RNG888ChH/vQr3OgTIU3lOcUiS7cFQ0z8zWFKL93Djf/tOb5808c5Wk8Qf5EvT0T49p5H+Ffzj3LzoAijEk6HNte/cjs3R1N87vnd3Hv8VZK/eh3btsHaO+/27RbP1d7AbmLUXnsV9o92OEfbwpQ6wbKS22XYFSCcECnimmi5KGNtzB1OoYI29IRv41wtnRjQKIE9prKSTeLrlzxpuzosnC1hdaNqXXW7z0fdiyg81qmFTTc9gGv4xP4an/rzdzemrK9vO6/eu545Jnr4wZSKeiZhW+kIktRcxLdZ4C9nUPSY19SCYUCIAaCcUVGngB0ztgouScvKQx19STLeU2Uc6+TTSfnHdN1IKpNRpvGrKUhUqGSTxHcqTOdD61u+skM+uP9q/qrSMB3WlQ5DnvrB6SeO85wpbOz0E0f41gZev1OM8B2RXwD5eKCR06H3/8pZxOZTVZO4d4tbt++3MVVAO+C1NUGSxt47jkmL+oaarRKuq+dYJcyoXYnSi0qoh2ymx5xuuNdLWYvy3X0vL9qkLLbGHHZllCJOkuna+BDFT0Lingai5E6KHdKb5Fb9/m1hEPW5LdHDHkU2NmXlo0RGSYi8plZ7l7Sj05C26jlWGSI00ELRcliJ2pgy6T6i2XXUVf78KQ48vEbqj5MEjaSKC++yRph6saKzrzLP71FI7GuEXulGIOb0tm0h/vFB+PSxEje+/WX2feZ7jf0wqn/JD14K83tPTViMqMrZH2AOmynPBYicm+HlR8O2hO7/zhvn4EM3bwd83LQnRKlYovJJsxNkjfLX53ll5wQTw67p4I68eHyVSuxmy7l+8GdFfDfHOyzj6hSm1GJ/HVe6D7sqz+n7oWELAc1PkPM3thNwpB4SXoDxLPXQsWqe2EMw45BL1bR3lBP9kif2uW1MZSXq86iX9U7XO5wzMMiQ/t9udgz2vGtpJ9z0d7jl2Jv6srnBJc7+jfjf8083cjQ65qUad/N+9voA3zZuqa1x77Nv9dLalpTn9ByNySjRQyphU0WVNkc2dqQ9HrKUIhS7dZbwq2HYOUj0gAqJeU87hIpdm63JYR1VbanmiSkRVtUQfl3h8kVnUM9EWu/euwwho5xpNYNieL32+OtlMIMHVEgEOuxL1zKw/8dU37B9fN01fDCz0qj+9HqJb2Wu5teD3lT780vzzLKX6cdu585XjvP0KZcfvl7iW5kbGL7FaMtrfKteNes8zz31Gh+87e+3Nyiu/3v80tGXONJ1xS2X59CS81RfgQ/69da9XuJbmdZHOF6zTYWtWuXH/JLSm0ll7FArcjyMKks+otkV1LGiaSdnCE46TFBGScWWpXa1rgV1c0WrGvm4bmx72v3WSvl4Gmy7q9fyMSKzKQqmNtYGJijsTBCwV4YxlfPe6J2hg5O9KqB6gnJ9tahMZiQBJplTZzgp7r9J9hhOnxRDiUB/KiQtJgh4rLbVL4qJBKvqClo2CvqKXrPyJUL3XBlOdlyC1jpP2EviNqpdrahhvcytudxxP+i1CqLAXobbEzv83Hg6zR889hyVtQtcePNF5h9LU7p1XyNX4gM+9vEsz35XH3UX13jx62nSJ5pPd/Pej3Pdf0hw7xP7CO8xqe0f8HGj7wd857uvIupMXaD23TTp/2A9Pnh7nOAz0yTUEpU1UbbqQu1F8v/q97nvxSh33SrO6d9/D3e9mOYLaonaBYA1Xv36NP8s9QOuGujM8AC4+X/kOZwrs3bRuL9ppp/ZRypqkpHbtnEzz1L6Xo21Ne+7fZTn7IZHmcx6Vfer5smaqkmV9jZK/RePzpM5kiZs25PDKBc9OCC2C3A0qgeizOxfapa9XumXPLHPbfpYt1T8W0e63OFcnyCnCmiTfvLxAErctMngrENc/5Ttb32b+9FD/fS73cDv3v4mNx6DW8x/f/UUh4Hx2308+fqbHZzvXW57wNAer+I7DxsrHTdw370X+NSjFbYfq5i+/1AHOR3uCAs7RUGL1j14M+oSgeNlksM2JacpxtBlk0I95ELThGVL/bwxAnPltqsPxg6ZMVOoldddec15G9aBKDwboXxzNaI6w0GxwZeRMK+JTb5q+SWKY6MivGIgSm6hgjLeSTzvtey76wbu/p0j+nK3Hkp1fYjpb7zF3bc2wpj2feOgLR/COedDJJxfzdRp4cLad/9NzNx6hJnZO5geBfgxT9fPezV3fndCD926ln2P7aW66z9ztzFOknt50lOuw07u/O5/Y+ZW07EdVeNyeQ72BPij4nuReC6Oefp3jGvewJ2zV/N945SnFrnbSKrnNe4/+pJtdeZaBj704zb5HGdYzlzNwMc93USd8pwugHeWSVJy6Xdg9L3BeqWifnl5WiWc29HL+u6M6wqeEWbQ3lNXfiZBcUxlxvIbvXzwgm2DV1uVJmsieoLA3KA+/oXiPbSgkRvIExvJUN6g3W77Qn1jUywbGVplVCMZNDipsbIjRkCJ6c/bFNo5GYTJECgRMnsLtAzdsG+wamdDVz7KlGZN/UevPqiedHiLbqtnHWBUBNP/qlenwmTSNRUNqI+PIcrRie4v7ojXHc711QbHXcebx5Entu/jwa99kXuT9/JRVaiV/lvv4SszptL3RgWq/zuAUgPws+9f/iFf/Kfz/K79fDeF+PgvHObwnju4zdzObSE+97XPkbjnVnanAHzc+MkZZr/wKpFj5uPv4avf3sb05xN89OGGmuu/9R7Ub6YIG+/9A/v44sIMh+9NEDB+tyPMF7/9aFchmoOf+SJx7Qv8wx0loVzvCPPFb6tMmO/hpruYPfwDDv52gPTeR/je1122BzBRy8co7bWGTNaV7RGFSr9Xz9xWcYeTFHbqG6Da9B8xHoZoVyzBF81ROKswvxztvM0dyhOff6jpl+7YC0qtHz/305/+9KedHWIT0IB5ySh+NiBqMjftcG6rptLlsv+P19ba/+gy4urtNs+Ch12Nm6rYOFaqMQ1Ol3dlTMpOOwk3klZFwrl4f4h3r+/6vNQi56N+/CGY9hCuZb6ez/j7bBxtb6mRJIs5ntzjUipbpc+4J3b/TPJ6iZlb3+LjLkbS+aV57q8EWpbatY8doeSEUU/OwENdVHczaDkGW5VddAhNtMg5pxjmhrLkvqO3UwhLc/8XcmGoSflq9v5aldPYiB7uNGy6t4Euwiy7yPcAByeG/vxVdZWEY7UuB/QdsYVyYn1HFnnpMHGL+ekp1DN3uYQ9uOcZNIcoGGEhBRjvwPM+pvKd/Uvc5vV+7bSYA5pkvckQsD57LyEtzX24btxbxk373IzynEJp7wr+I9bx1HimtI+RN/ASHtbUP10S1fsQYnxhbY0LV2xn+/tdfnDxAmvvXIBt5v02Or6KWDVodR2Dt9dYu0Tb315YW+MC29jeVaNs/e3tNdYutTvXBS5c3Ma2dm5wl/BXa/l0pzxUD3kW1jO2L15gnx9s/arZ2eUlT8kt7Kp7edIYDx3mzvSp8mE7OjQ+2gsnJ0PD7bPOqpYIzIrkyco7fOzfvdrR8ZvJP/qVv8PCP/ug5bMm46NXLBWu9M7uFNtnE9RGFSn1j4ZIfEavPaWuMMN0U41o9xKe3qqObDTmPvPyf/0Rj37GqUDp+vHk6YPYjY+7dx1pe9x7mSdPHxQGxnf8zfkqJsPEWGH6Rwd28el//RuWc9jHTi2fobQnWRfwrfecsGEWuN0aH+8FTLJiI+LwHecBDw6YrUs3MenrxHrl9bggjAnjvlsrXNY5xGFlbgNizt3Y7OtfvnSQt9AJyxkRQt72fTjtg9ZBgYK+5LU64d4G6xzlpD9tIXnSZ7pY+dhc3n3nHS5evLjZzegLV155JVe9732b3Yz3PFujz8iVDydOP3GE5Y+ayxGLUsHc3/o5ybEjkUgkW4l1Mj4k70kuO+Pj0qVLvPP225vdjL7wvve/nyuuuGKzm/Ge573UZyQCOXYkEolka3FhbY0LPYWSSX5WuOyMDxDK5E8uXNgC3uzuuPLKK/n5bduk8rSBXO59RiKQY0cikUgkksuby9L4kEgkEolEIpFIJJcf3e/zIZFIJBKJRCKRSCQdII0PiUQikUgkEolEsiFI40MikUgkEolEIpFsCNL4kEgkEolEIpFIJBuCND4kEolEIpFIJBLJhiCND4lEIpFIJBKJRLIhSONDIpFIJBKJRCKRbAjS+JBIJBKJRCKRSCQbwpWb3QCJ5PKiRj4+z2A2SdDx+zIZJcKqukIu6tvgtkkuH2rk4wGW9st+cunSJX5y4QIXL17c1HZceeWV/Py2bVxxxRWdH1zNExupENeS+PMxAokhCpqbjGiwVe59q9HTu/BAeS7GuQM5ogNO34qxmdhZQJts9wYlEkk39LzyUcvHUObKTZ+X5xRi+VqvpxcsZ1DieWrtPusRt3txbZOSwenX5TnF23mqeWJKjHy1o2ZaWO/n3/aZVPPElH5cq0Y+3sc+44XlTIt7q5GPu72bNBHXvhdkQg1TTMw79g1BmYxL3+k3G/f+OqSX8aO3Wenkn+19tRwf1TyxdX8/FSqLMOR3NjyM9+ZZlmwmPcjiS5cu8c7bb28J5fvixYu88/bbXLp0qbcT7ZlBO+knqyhklt1/tpXufavRt3fhiOipiRG3Me4jejAFs9kWc3Or+cELZTKdyjCbTGot28tketQt6mfqpy7Xhlo+htJm3Oi/JB83/c5RZtt+44HLQt6+R+jC+BCDppMXamE503aQddXR253Xw+To2zNKeDbi6frl42nC6oSDZ6tMaTaMeqC9x6T8TILiVNzF++J6VG/Pv6+UyYwkKALFRKCrZ76Z1AZCqGciLsZbgARDDDZ94yOaLZBaTDDt0k980Tgp0pTc3lHVT0hdJWJMDl6U6XURiP17f+W5Dn/f8/gJo57U0DQP/xZSXlq0oeOqls+SBtLjrZ93cFJD21uqf1eemjfRzgAAIABJREFU61Rhafxbn3urkT+SJrw/RDfrNz+5cKHvLeqV7tu0yrkq+AZ8MBAlp2kkh9fjOj87dPKMhOLqxWngIzg5gzqWJuImV4cnUMeKLJ1wl2ih/UMkRoxx5cGYcBjfqQWPMuykSrj9E/DmwHOZbzZdp1jOEEiAqqZIj6+386cDed8HJ7GkmS7CroIktYJ4cQsaE/qn5TmFyKz9twGUhOnPqQLaZBJNSzaOwXlps9V3royprGSjzZPgcgbliOnvap6YrnQ5krC1GxDKTo5oNYMyntY/M/1uSm/rcok0RRhRsJ4iZV2Gr+bJzgJEUJqeW6v76u35r+zIEkg033m40zChepiBhmb7qmaEHTi9iy2EbyBINFugokTI7G0oCrV8jMhsqkXYRJDkQgrlSInaHph260vjCmnTn/VnPOAjGM2xQozAM2Wik1FyWtS1nbV8jMBZ0/8v5/e33KfxQ5FE029aMKY2fVRMBFDOmq47prIyDKz7JFOjdLRIasHa5wJnB52f93ASLSv+65vU0CYdflPNExtZYvSkWyhJf3Drfyw6yUwrTn10K3r9ndrket82ik59csp5HtuK977VWL9n5CN6SGVppER5EkpKxCKr69j7df1d+vBFk2h+UI7kmchGSWoaSbfL2XUQnbRtjmhNirj9o9kIyhldP6iWWFpMEc/6gErbczXkqQgV3lT0eSG1oBEdhsGzCpG431mf84xYXeZg/5op6R9d5nwESWqa6DCJIkzFhYfONCmW5xSyO9wVolo+RuSMyko2SCfxz3YlO6AkgDCqOtThPbRSLltQpcnIaSiHNfJHVlFPalYFYDmDMm4+SY38QwmKLpOSGWGE2ZWSXp5/DqueK559xSX8w7VN+jsoKm6is0jE9F1D8dDjaRddDnNRYjpWrt2wKL8mmiYBa/ubDFuTQmgYDu36PGBVEqO5JsW/Hb7oZr+/PtDz+IG6M6BTRVs/V2oKwmqB0aMRYvkV4mfTsGjIE4H12XR5Pcc2zJNApVCJkSFHchgqZ4uEGSKmREyGbNHimDAbK01UKxTHRplZR8MD7P3vZyc2vnnc2SmTUbL419n4k/SRgSg5XQAHdcNByKJ4m/6sK+sLGknTPNANLce0G/ocMjQFTBUoECEwN8jKjiWKFK1yy2YMpxY0km79s5InNu7mlNXnZTcHbw8Iwx6L3A9OahTmFAJKpUlPs+iAi4pwGh2yndQ8zxtz+zq0XdI9XSecG4N0RQ3XvbKeWc7oCXlGR/DpHuhp8ntaC29Dya7lYwSOjjY603LGuxe0RbuUIzZrezmDMr7qSfGo5adJ7IyjefndYhj1UPcTdtfPv5on9swgubpwrVBZDOM/5LZ6AnUlaOop1DN3UdmZgjEHr4Su2DkJC7t8bha67gao0/FdM9xYeauf28Fg8GRIbAZb5P2tB17HT50TGZSER7+hPvFQWYWxUfzAKn6iB1WgRDZhckaYkof7r1KXyegePv8AlEYUMgsFmA0zejJJdDJJXanH+2RZPp4mvH9lYyfWaomlJjmmG8MHu1Cq+sALT+xm4g/F/z83/zLxW0xfnvoyuyYeF////a9z+rMf7uzkLo6LrhTIdeaFJ3bzR/7jZEav9XjEeRY/v5f7/kT8dfsj5mP170jzZ4+N4fWM69ve9wgtFX47uoyqVigyxOiOVTgLwQMqahXmx80KfAtj2G1l1++8Ar+ec6GYs5wdwcFJjZUdMQJKzKJ/CR3QJGcGGpEshuElwtlCjWdQdV55kmweXRkf5pCoWr7+KZmmpUuzF9voYGLyBayeZYOH8oSyLV1MgPAUwqj1w8WExXNpwSHsoilUYcBPeHGJUjVa7+jl42kYUwm1VYjOUToKqZ1ZMsu55slozI8fdMNLiBq3sJF2k1lPz38gxOiZALG8Lkyq51hliNAATasn4OQJEisu6TP2VonYb6YK66CwbRWsqzZO76noGLLn/k7dwzlcPO1b+f25jj8vqwYex4+ZPVZDEhBj+iGYcVHay2eLhPfPMGgY7MNRBucUilMFcq2a1yfKcxHSYylSRzJUskmS2qAYt1MFk9GlhwtglUWCViuH7qFPfV250hE5awVyW8jT/+HPvszpzwpluWlV8ZZ7OP3yPZxf+hy/0S4qxQ2L91RXgADw4x8rUqkCA43vLpdVofNLh7nvQ1/n9GMdGmRbjrSzXkFDBpudNI7jYtY5FNp1DLmtpuPBMHVU+MtklBIhF+dHrbIKU3FCrIoPBqKETsRIjI2y4nksNj+nFF5XfvqAEfo+VUDT3K/li+bQ9uSJjSgk3FYuBqLkTqI7jCY4Vx+Tkq1Mx8ZHLR8ju2MFzXEi8xLKFGwRGykE9vxylFCrUxj5EmNLTCsmD6XXnA+DgRCjYwmWTtSIRn0wMMgQ1gnk3Bk8JlMOEs3m9EEVI++obOnJmeoK8bMBh5wW82TmTO/P31hlCpDxaySpUBzzMwPiOR0PeRM8bormopvgbn/KrY+PaFYj2uI9NU9Q7d9pc0y48Fq5t2GLvr+elrW9jJ9m3Iy3ouXeDOOnTGkWhhZ8UF8t1BPcT26Egljj3Jkw6sEQg5USESWGejIu2mdKsBfJ6ClSU+mGbLLRUGrsKw3NKw/rsnK1nCGyYc/tcsDH4E5YqtRg2OeyKrR10SrHuN3/oMu31zL22MuMbWiLuqX9HGg4aVzHhUM4dNsx1CT7PMh9AzfjxW4cLGgkh0W+WHj/jOkbPYfsYK4D2euc8+HbM0o4kSXvWoa4D9SjSTRyAyLxu+X69ZjKiqYxk48RUJa6Cn+tVVah2X3lknPjNAeG7a5uSY90bHz4ojmLh9BnilsPTUWIzHlUfnSslrZQ7gDKx1scc2IJxsKwOMSoukpEyVBY6PROAHyE9odJHC1Ri0bxESQ0BZHjZZLDwfoEMnrINqSdFLcpPRVsIEpuoYIykmFQH9yNjm8or1Ce89I+Yfyw09Tivjx/PWFaH3hhVQ/XGJ5APWLyqrthC10yJ4tttfCD9yaX+fvrevyYGWLQmIDME3/TyofZkNNzpTDLlyBJbSPWPECMf/1aw0E0fwZlJEJYXWnEYVfzTCeKhNUZkn5QxtuHom48+ur1mEpowGUlZtE2qXvIbzN44YndfN+f5uX7UhwD+K1GuI9Ytfi9esiU/e/NxL8jTPFsBfB1tSrU+t5eILv7BMojL3PffccAe2iUNeRMfG87t34cfI75l+/hw03H7GXXfdbvW4WqnV/6HH/A7ey+L8XjtvMC8PoiyX36O6Q5DK5Ve382COMfQA+DshsD5pUPsyHT0CEaUQ8NvalnBqLEpxJkXZwefWE4iVZvbitntA2HvCthPKQonGw2LMxRAc04X9ex0JEeISPpLx0bH+5x5QYtqjdNFdAOnHOoNNWcWOm+8lFmPjFEfAGK+AlFk6wQY/54Bwnn1Ya32OcfgsUKYsoQEwhHz1EjCCeWnJM4XRNmdYYnUMcC7Q0Bl+XdlK06Q3hHY2D1/PyN9gwnKUylicyGGd1j3IlRAcSLwmNSOqYKaNqKKPNnz9lwyZlxrfLhmnDeqi1ecQpNA/dwFevnrUNXhKE4tHeDou43+f31RL/Gj4GDMdO08tHqeBfPY7FVwYGeEQq8tU/ppY/HVFaiPiBJYUohooeibpXso/KceQw1lCFBf3I+Hr/vGI889zKZ60UI1X88NWbN39gsHPqaIa99/iExdyyX9Dj2fq96PM5930nzZy8/zrWvL5Lc9594YdRkRPB1Tr8sVP8XntjNHxmHnfqyMGJefrz+964nXuD0Zz+sh6m1yLloE6p27L4Uu+df5vQt+jmW/k/9HC+Q3fcjPvPyy2REi8ju/jIvvOyhvZtI5WyR8I6Z9j/sOw7hYvaVj1ZVm9wqeFpCu70V2QkeUGFknnJ0PXLeesesA9UdZsuZuk53zvihSc8DYKdLNcF2DLSuRinpjo6ND6e48vquzmNh2D9jVV6akjeDlhfpFmPotvJRnhO7RyeZr3/mi+ZILmdIz3aY8wEwHCJFhNJykuCw2RipcU5f3uy8w5rL+AWFz9ap47fzBlZLLC3C0MHGkb0/fztFa2jHQJQZdYlpR8+H2cup77OQ1a+hRCiOhQknhOI7+IwuIKYKzXH5bFbCud3b4a4oeU+yK5OZg+Qk9cRvKxWXz004GqFtFOY6m/P+1heP4weHKkRtcj4csa8ErWvCeSNUzGJ41JWHlKXEcXCyQEqJOFZ92RT0cKvUFA55Q/3j9kceZOx6gGtRPgR/qp2HW7ZAMrJrzgd6zmCCwKKQb/1/V7fzyP16wvf1Crs5hvY6fPj6F/j+H97OI885r/688L3H4Q9hl2mVgd9Kc54P9548/vtfrxuFiv92jlU04Fo4dYLHeZzHdz9uab/iob0bT438XInQZMjFgeTBseQSxtrSYDCwy582OR+ONCnIPVRfGwgxOrbEuSoE12XFtU3Fy1ZMFdDMCectfmouwmHf+aSpYJGH9nqpxirxTtfVrgzsE2l5TiGzrJEcNrzMKQraBP56HkVPV+PcmRTxSR84bQ7jMeejVlmFnUYehx//mClWd8BPmCXOLfudQ668Yirj18lGe00x7FMFcsPuynDXz9+I2VaHSCSsnnJ7aFcDs5dTbGikLFKPycwZ7RlRSKkqYSrEm4yrzpeIg5PaOiUDezAMWh6uVyqZKpBsucTbhg5CUups2vvbIFqNH8Oj1WK/nmKTItDHUrk94FRWsnXpbbGvD0qEbH6C3KY64IxSyDlCJ2LranxsSZrKqtpk2cAgQyDkgeHMcKkgt9E0Vf7aCLqpKLbhlMgoCVGutZf5oNOV0fp84bYaT9PKB2xUZTVTeOi6nd+8WgrW8sWdn9Gq04nzlWbDjJ4Un4gCRU27pEg2kS52OBcYO+0GEkWhIOtKcXBSI3RcQdE7kqYlCeLD1+GkLzz8Topr70JcLK0aoUwiUbB4tCSUnIEoOS1HqCJCrrpSJh2u5xVfNGfd2XRS7INy7gwMmfZy6On5V/PExtOkFnJEo0kKU0USD3nbnVrsIqugKNNwSG9jNopP3zF0mlFShPHviRKfSpPtZrd6T3jczbXVGfJZ0j2843QiwdCCeEflZxLgtGN39ZxRk8QRXzTXueHxnnh/3rGPH+HRMiaaFAX7TsC6MVWYMkouFvCyx7lnljP6M+x811sxvuNUjJ2Rq3lixruYDDbvprucQZmDpKb12evWzfgRSslmG3C8onEe4PVF/qCex7CB1N+/YuoHJiVytlTfnVlUJgp5n7O6ujcF5beO8afl84DIxTDnUij+23l84su84LUN/eC6X+T2P/wk2VNOX7Zu70ZSTCRYVVfQslHIZ0lPxR36t1F9zoXhpC5DvVM7sUSx3i/0Vei6HCuQ0uXaihomrK6gaSuofc34TxOp918X48cD5TkFxW2X+I7OYzc8ymQ6kK9WnQ44XhLvsirGamQ2jLqj5LjLvGRz6ND40L2liiI2CNQn+DrLGRQlA5Ma2kKK9LjHyW02YhHmnra87xrdIt7TEBXBSc0mPIyKEi5VrhYTBEztbb3zraiwYxkY6LklXtET3/0DfXj+urcYdaU+0IOTBVKLS5QcBrpd8WsYR4YSYrSpREjTyEUH678NThYYSkx3rKB5wigGsKdLhUxP7E0d7CKWXt9JtqA14k0jsyniTsqhXpN9sAeFzfIO3gvvr6fx0zx+zXJJGUlQ1M8fmYX0kX5PNmUyeqUWbWHIs9FnRhi9KhPD6CEOInQOHP4enkA9E+m/TOx1/GwS147+Hp/7kxS/sXs3u/b9iM/Mf8707XkWP7+bXbvFfhWPT+xm1+7ddQX4/NLn2LV7t0i8/sNPsmv3bnY94U0lbxjtiqgoZzF4R1ka0csla5rIxVIylHFQirq+t5ZHMnZ/Gu7bK+6v8nv82SO3m877OPO//zgTu8Xz2LV7N8ml857O3PUzu36MzPzn6u9g1+7d7Pr8ojCs2rR3YzCq3OlGfTXPdAJL1bk61XOsGsnhXSKKZtT/EtWp9jZX1GoYA8I4CCSKFBPz9K7e2zE7bVo5Z/SiN44I2Wy/j06p5WOU9pqr9RnPoEhixIs++P+zd/9RUZ33/ujfykQRjUctGNAtDc23MUyulR/1mxiO3l4sMUQqU+1Z/aKn97Q1JJjgYJZIs0zarKQ2qwFdCk4iCUmafnuU29NqBgsSQ8Lq1YvGY5iB5RGaeFL8sSOTQJQSRSED3D/2npk9M3uGGZjZg/B+rcXS2T+fmWFvns9+Ps/zqPxNWGmUHuakGZ1/7zJwdvT9Pijkgky78m4uuwS4ctaVYzbLeYzSTVuqXGSbrHgJOzwqGyWoEatUnhi7p1Q4R/TxJ4B5Prrkpxuiv+ZO5/HcOxyXHJH7C/jtMKtyXGcHUpc4QwFKBD+dwz1km6wwJMQBY/r838ead6WKq/tTVOWIP57l9zGcprOTrqLvAABYmlCKJahJkI97Zg3ylwm4FOrm4rHM6KwYY7xqNGVSpAQpJ41TjkyizGcNPv/b13cgpedE8vvzP+CBn+sPcof9RIzp+nG0Vlmdo8QA6s34gPRd7EBTp5/mdr+pWx53h+Ialf5WwWpGdWE9So44hsWUR9wrdHTw9ByBLw6Gx0sgrK0ILgfcSa483O2xOEQzojftFVCo9vvgOdoVAp9rJGWzo5Oy2usUFLS1uSVQtDvTifwPCRu7phztoxwv0+cM5/Lvz5IjovNekr5VRA0EuQNxCWrEQKs7/t5bCgrayj22VbyOz0FFm/Kdl3t9hu2b/ZzZ4zN38PeZxa4pR7uf147O6qpGKK8/vudGAoB6n/N8AFCkuCrvma77qnN+L4/7XLZiXYClVPk7IF/zlmoU1pagxqMjo3p/TqksTZY8lYFinVv4rst4ziUm33ur3DKfXaMAAlC5J5agplLtwdplnEUJCsbyd90575n7/UKZXta8V0D+Jd/3jua9nvMkqVEZothnfdHHcPOP+H8rFKThMfli+J0nFg6XN4/tKKPSXD688Il3hr/w9Vp124+Gyxc+NvzOFe2KGV5af/7S+RYuXDi8cM9H3svkH+/yfDRc7raP72M/9o7qN+jloz2Bb6tWlpH2DfT4X7zz2AjvazwJ5/enhS+G33lCcf1eeWf4sYXlw75K9dEexfvyuDeM/vdH/s4XLhxeOIp7yRfvPOZ9n7ryzvBjC/29L+V1HuA131yu+E69yzmW9+/zfYxC7z/+MS5/tBDp93i7/ISdv7pDGHy0R3n9+q+TuO41C4cXetzrIv23Z8znby4PcH/3+777/fej4XLPvwFu976FPj+/wAVXN6HATBkeHh6OdABERESTz82+Ptjt9kgXw41Op8OMmJiwn2c8vvfxRqvvgoi0NeoO50RERGMxbfr0SBfBi1ZlGo/vfbzhZ0Q0MbHlg4iIImZwcBAD/f0RbwXQ6XSYNn06oqKiNDvneHnv400kvgsi0g6DDyIiIiIi0gTTroiIiIiISBMMPoiIiIiISBMMPoiIiIiISBMMPoiIiIiISBMMPoiIiIiISBMMPoiIiIiISBMMPoiIiIiISBMMPoiIiIiISBO60ezEWVnVTfhZWS0VyL+UhypDnMrKZlQIucAREcY0zUtGRERERLeBoFs+BgcH0XfjBgMPFXa7HX03bmBwcDCMZ+mCuUBAvrnLtchSAaHAjC7lVuZ8CEIFmkN56oREoLDaxzHTkWfKRunxkJ4xAppRIQgQnD8h/gwjzFZ/ClPe6JBffYGDL57A+vov3LY59cYJxTYuXeZ899+7UVH5/XXoNCNfEFBh8X+E5r2C1++78tjC3on0jREREU0sQbd8DPT3h6McE8pAfz9mxMSormveKyB3V4AHKq6BuDXda3HG81bghVQI75pgrTTAvR1CaoEozTHBKmYAnQASgnwDviQYUFAsoNKs3voRZyhAidCE5q3p8C41pMrlskLUB3POHMd77IK5IBWFtaMot+NzDOj8JagRRYg+1gb1/QEAsmE6UwXD51ZMef16MDsqzMLJV1OxvMWK9Z0LcSh7vmtVixVTXoe03nYO61/sxfpfLceGeLXjfIHGM3bsXJskv56PzGWfYuOZLtiy5yNe3qbjChTbuMQZCrBE2AHzA1UwJADO3zW/ZS9BjWh0/j50mXdI32FtKoRCxWbFNaiB9N3UrxU8jqk4RqcZlbuAkiOev/cALNUorM2G6XnV3z4iIiIaB6YMDw8PB7PDV7294SrLhHLn7Nmqy5v3CsiFelCh1GXOR+qFAsV2o698Z5usPlKlRqHTjPxldVhzpgCXlo1U8ZT5CKLcj3kJBYpKauBlUexnqYDweqJKQOZPMyqEJmSonVslzUz9+2tGhVCJxDOOSrmyfHVY47l8RF/g4Isfo2PtCjybolzegd88KQKPu5afeuMEHoKA4ceSgJGCD9s5rH/xKg47XsfPQ+fjwFMv9mL9r+LR8aKI59SKEz8Pnb+6XwpOLBUQ1sItoAhUlzkfqe+ugbVyEao9U/Sc310GmgpSUQi1wNpP8Jdjgum+QhSqBoZyABiqIJyIiIhGbVR9PihySoLsU9G8V0BlKAuQYEBBcSGaOqtgFEUYA95x5OCpXlAPZZzBk4+WC8/9UpWP1HPcK7HNe/Nx+cfKimg6Mopzkbs3wz2g6DQjf20pYMoL5M1pJAnPPt6DKa9bkSm3dOyyAICIKU+62moOv3gCG52vdDggByM2ay/wg8UYVrac4Ausj7+KQ9aZOPTqCmyqP4WEz+KlYEZNmhE1xQKaLEakB9O3x1KB1MIlqBGl78J4xoT8Zfkwy0FB8/GzMD1vRBwAQ6WIDHM+Uvcu8vpOpFYPEcYElcBzrRxkdI4mCCUiIiItMPiIhF25EAJJ3SkuUF3cZc5HauHIyUslR0RkBFm0QKRvFUd+6u3jCblq8OSn5cM7eFI8xR6p5cNSAeF15b5dSLx7CXJfMCNDUTFN31qDEqESZmdQ0gXzC4WoL66BGKoWI9mpN07gIdU+Da4gwa+UhTgQ/zEaWwB8dBWH0wRXoOC35aMDb/4lGsWvzvdYPh8bfjUfG5zbAAd+NRMHXzyh0vIiCej795RmhCjCK4CsXybAGSruUvxf5vmdwGSVf38MeMmUj9S9zRC3JsL8eimyTVZp2wQjrI+oBC9EREQUcWMOPlr265G3z3t5UXUbCpaO9ejBnLcI1W1PQKWuNP6MlIYER9oV3Crxhkrp6XbXpZGOIY88BamiWBWKMlsqIKwt9Si/7xGumo+XAsU1qpVU99SZEtScSZT+61ExDX3wFIc4gxE1FwSPimk68kzAjtNdMBjipH4JMMHq6/P1FTwu8648A9lY47lIGTAAkNKpbAG+BylYAACkrEDAOZMtPbD8YBrw5Ak8JC/amTYLz1muwxH4ZFpteC4tHsPxwMERDxhIfw9ZjmcKVUkAaVtSKpuTpRqF97kHg3GGKqlvTqcZdTDhJbV1RERENK6MOfhI2dyG9s0AbLUwZn6Gn2sYAGSVHUfFmliNzhYaiXdnAxdG3s5ReWrem+uzEq+pNCNE0egKigAA6XL6jABBGQxZKpC7KxumM8pSxzmDJ6SJELcqVnWapX8TDKgSDR7n9Qye6lHoUckfKe3KU/qPTchepugY32nGjsIlKBDjADSjWpEepMor8PPf5yMkWhQd1tMEDH+3x2cHdve0K8DRYf1QCoAEK547Ms3Zh+NZReDT8ZkdsIiY8qS82+snpD4gaQKG0/7iCj7lYEKZdufqzxFIqlMpcn2k2LnLhvPbSzNCdAa4XTAX7ACelz/vBAOqPHILm/cKqLw7hH2diIiIKCTCmnbVXVeEFe9n4cSeHEghQjdqn16J974vBQ3ddUV4ET/Dw+9vwPZjAJCFssZy5DhSRmy1MGaWoEF+GXBriq0WxpeBn3+/AXnbpb1dgUo3ap/+NfDTLLyXJx97damrjB7ndAtwWl9D8skHUI0NzlaXYFt44h5Yg+zCANOuAEhPiVVCjwBSt0oCL9boJRhQJS5ChZAL4W8mqTPxWkUKjIpgWj68+7coOw+PMLeIV9qVssy+3lA6jGqfd6SlpGL4VWmo3ITPXK8BSIGJM6CQgomkQFK4PCx/zNGSotbhXQo+1T/TZlQX1qPkSBXiIAUi1YlVfvomjaLlQ7lmbyoKUYKSFwQIfgdgcIyoxQ7nRERE40VYg4/YNT9D0fbf4UNbjhRQ2D7Ee8eK8PM9rtaKhu0boK9uQ/seOVh5pwU5m1MAtKAy8zP8vK0NFYD0Wv8aWhQtKw3bVyJ5u+NIHmlXx0rw1vePo72tXA4oDqFljWN9A7a/nYUTbW2okAOiP7fmoOCuWhgzG/BwYxsq4h3nXIlKQRFg7NuAD6vl1p7W15D8di1+5AyuAqD2dH80lE/fvfpMuNKutJEOo2hFYkEqUgVIT8b9PHFO3+rR8gE4gwG/n43HZ9dlrpSGFPZVyU0zQnTUXwMYZtdXh3fPynL23Yl+jqI9W+ctYMEcqMYajsBk7QASFC0lCU+ekNO/xn5+z+8h7oE1OLusAs0+A4xRtHzIHIFryREjjGlGnwMesOWDiIhofApzh/MU/KgMeLG5GzlrYtHd3ACU/dI9LWvLQWfFPjY9C1nvi+hGCmJbT6Mc5SjXlys2zoJgA1LkWpb/tKsi/NyxLj4HFW0ea3/qCBhikbNHXtn6GRq2/EwOPKTyP7gFeEvsBpbKx1pdih85ApGlT6B9TzCfh4LPYWF9pPAojJzPng6jqHXG+yVccjyFri1EtcXg/uRb2WckaCV423QWP1XtZF/vnmalSnryrRrYWCogvH4W2bUAcoA1z/t7Qt6Fy38D6nd5zFHhEGifj5DqwJt/sWPdD2b638zRUuLWSiLtD8B7GF7AlXblmGdE9cDNqC4ETGcUv8cJys7gauHHaFo+HKOlZSM7R/F70GlG/gvASxzZioiI6LYQ9tGuYtOzgMxDaFmzHuL7wMPhQd19AAAgAElEQVS/CKKPxpaDaN98W3QhH5mPyrfPirNbRdZRWfM/XK3qk/sAOrePmeO9yX0BYM5H6loBZ5Xzi8h9RrxJ76nukZGfUrtiBz/pVnILBwKY28TZT+H5ROyovYSCygw0Cf6e2EsBlnc6WJB9PizuQ+NKdDjgt7QqHAFD/Dx0ZnuOYiVv4rNV5AscrL+BDdnyy/j7cehVxTrVeUa8dZkrcdb0EoxuAVsXmt6tB2rrUbFSLSVuFC0flmppEAAxA00F9bjkWJ5gQMF9AlILwKF1iYiIbgPhH2o3Pgc/36LHh/uB8nt/hnY/eegt75QA3z8utUjctRBZ+zag8qHwjprl5q6FyNr3O9T+UO53YqvFW/uy8HBjCDq1e1S+faeFjNzy4VX59TFUrXvncIUxTBTnRpHK5DaRoaEKVuQjtTAVwoWawCZK9Jzx2sEreOqCuUAeZWmtgFKPju6C3N/Ef+Ahl+O+GoiV6a4O70iHUQQqBAFNaoGNpQmlyIZprH0HvEa7ClzHZ3bpP3Lg4T1vRxIy00Q85Ox0rsOBX3meawBvvvgxsHYFbPWn8BzsWGf9Aht8BDA+dZqxo7Ae9ahX/+4AlL5uRl6le6uI1ALl6/dc+m4uPe7x+TtT6Lq8zpG+1QpTwQ40dRpG6Neh+P3TIignIiIiL5rM85HyUBHy8spRVN3mvXLfBiQ7hszdchDtylSp6s+QnKeHM/FK2TEcI/T5GA3HOTP1cBy2qLrN1QE+VDrNqNyVjTVnIvOc1t8wuH5ZKuT5RZageSvQtEyeC0OlEhdnqIKYWAFhrWJUKZkrePKogHqkoqkHT9KoWY5GkC5zPgShXuXYPt67s8+AqBg9SUlKWWveK7gmrXPMM/G69LkF13F5CRYptnd16vbnBjo8R95VBBud+BRTXp+NzldXqPbzGPEctuuw/GAxDsWfw/rXo3Hy1TlofPJjrAdwKHs+3IbzdSN/BrUlUsvD6TrUw99nLo1K1dRpgAE++tyopqoBqBUUw/iO1GE8DobKkQeU7jLvkAPORJgLUlFhCW7CTiIiIhq70AUfKv0q3BXhQbUWDH+pVUufQHvbE6qrnEP8Bl0WRR+PIM85pj4eDoqn82EZfcdrxCjPSpnUb6Hk8SBDD0W5X8IOpApnYTojQvT3HhwTy4WJctSsbJMVVYnVENY6Kq0eFVZF+UVx5KBP6hTfBXOBAKE2G6a6NairLUFN5Qifm2fH9uKagOZZsdWfQsJf7K4F8fPQqbwsbAPADxY7g4Ph1HNY/+QJ9z4aPrn6bJz66DqQJuBQ9nzY6j9F2uPLsRzA8leTcOqNE5jy5Mfq+//yIt5yBJuPN0EQBCmA8/v9KoMCj4EWfLa++Wj5ICIioglBg5aPbtS+XY6ssuO3xwSAYSRVlrNhOiOOMvBQzJXhy0ijaXU2oa62BAXqo5j6OW4iSkxWGA1xAORWDV9Prb0E0sHY5ZJiBvds00vyUu+UrZIjnqNmKVLbOs3IXyag0HFun31O/HFvZTH4HZ7XRyVbtuy3Vnx0SX1eDlW2q9KIVG4+xpS/qAUHI7mOh9yOpexz4uhU7n//O76OxZLiGlRtTQeQDlHMQIUgQAjo/Cp9loprIIZ0SGPP349smDxaFuMMBSgR5CGqi2t8tHwRERFROE0ZHh4OeJJkALjZ1we73T7yhlDMQu6jdaO7rggrLv1s4nQql+l0OsyIiYl0MYiIiIiIxpWgg4/BwUH03bgRrvJMCDEzZyIqKirSxSAiIiIiGleCDj4AKQAZ6O8PuAVkstDpdJg2fToDDyIiIiIiFaMKPoiIiIiIiII1NdIFICIiIiKiyYHBBxERERERaYLBBxERERERaYLBBxERERERaYLBBxERERERaYLBBxERERERaYLBBxERERERaYLBBxERERERaYLBBxERERERaYLBBxERERERaYLBBxERERERaYLBBxERERERaYLBBxERERERaYLBBxERERERaYLBBxERERERaYLBBxERERERaYLBBxERERERaYLBBxERERERaYLBBxERERERaYLBBxERERERaYLBBxERERERaYLBBxERERERaYLBBxERERERaYLBBxERERERaYLBBxERERERaYLBBxERERERaYLBBxERERERaYLBBxERERERaYLBBxERERERaYLBBxERERERaYLBBxERERERaYLBBxERERERaYLBBxERERERaYLBBxERERERaUIX7A4WiyUc5SAiIiIionEkLS0t5McMOvgAwlMQIgoti8XCa5WIxgXej4huP+FqcGDaFRERERERaYLBBxERERERaYLBBxERERERaYLBBxERERERaYLBBxERERERaYLBBxERERERaYLBBxERERERaYLBBxERERERaYLBBxERERERaYLBBxERERERaYLBBxERERERaULT4KN5rwChwIwuxwJLBQTBYxmaUSHkw9w5hhM5jru3eSzFJZqUBgcHcbOvD1/19t6WPzf7+jA4OOjj3XXBXCAg39zlY737doIg/Yy8fTAcx/a+zzXvDcf5iCaDZlQI6teVRHlNVyC42oHj2MHWK7pgLnCUx3EMj3N3mpHvVQ8imth02p2qC4l3lwC7CpEqFKLkiAij5yaWCghrS6X/v2BGRqUBcZ7L1eSYUPNIHXIL65FtsqIqMTzvgGiiGxwcRN+NG5EuxpjY7XbY7XbEzJyJqKgot3XNe1NRWAugNhUViSKMac2oEHKhfnfJhulMFQwJQJelGV2IA8z5SC2sD7pM2SYrqgxx0ovOJtTVSv+te0GQyuOhvjAVQqFySQlqRCPSgz4z0e2rea+A3F1qa1zXZoBH8rjOS5EreF/1JUdEGNPUyuHat2RlEFehpRqFtfVAbQUWiRmB7+fUBXNBqso9Qnr/GafV70du9xuicUjDlo84xBmMEM+YkA2g9Ljn04MumF+XLu+SIyJER+ABAGlGiGINSqS1qBFFiEekVyiugVhpAOMNorEb6O+PdBFCRu29pG8VUVMs/b90rfIJaTZMZ0SIovLHVbmJS0uH25/y4hqPbdV/HOdS6jpdh3oAKC5AVaX69tkmq8exGHjQ5JO+1eOakusPwBIsCjTwsFRAkAOPkiOe16ijXgGguEY18Ogy57sFQKVrXS2i6j+Klo00o3xNlyJ3b5PzGJfN+a7tlxVK94PaQqQqjlNhUZZCrvf4uKc439eREu+VROOQNi0fai0Xu3IhOC7o2kKkCq5VpWsF+SkDn/YRaclut0e6CCHj672kb61Bya5KJJ6pgiGhGRWalqoLTe9KTyqDeoJKNClJT/4vPS63SHRekirqOYmAOR+CaitkPQqXCSgsrkENcr0CB585FMo6SXENxK3pgKVC0bIwQn2k04x8RyChIN1vmpCxNQNN8vEXGaogGjz2yzHBqnzoSjSBaRN8pBkhisokK/WmRF9NnkREoZMOo1jlsUyusPjYI2RpDM6UqxJkpMFnSql72lWwKSZEE0OXeYecJlmBDNGIxEtnpRX3LUK6sgIPwJVapbxeRNRAQO4uz2tIbVt4XI+ubAwAyDbl+X8Q6giMvKQjz1SJVJU0r8Cpp4k51/oLqojGoYiMduXIuy4plpsIc0wwFcvNmV6duRydxBw5l6XIFQTXDWJXLgQhH9UXtCs/EY0Dra8hWa+Xf15Dy5gOppZ2ZYUpR1q7JFEt8FB0QvWXeqHc44/eT0YB+Ejjcp2faDKKM7wkXwOlyN3bjEsXFK2GlorRd9K2NMn1CX/pW3HIeCTb+aq+MFX9WvdZBtf9YTT9xBxlMFSqpHQeWYLCZQJSC5e4p6HnmGAVRfb3oHFP8+DDkT+ZbbLCuNK1PGOrfAHtyvX4wy1dfFaTfBNw/JFW9vkQq5B3t4ZvgmgykSv5la2RLoiCrRbGvHJgy0G0t7Whve0JpIy0j2NUGdWc6iVY1Fnhfu/xbKXwSRG4OHPS1TQ70y6IKBBxMDwvX1O7HClU2UhMaEbF2lKgthDVFv9HkEgtm86Awdm6IT/M9Foun/2BNTAdcfQL8XhAMWL/inTkmbLh6q+h6F+ivBep9vkIcDSunESpv2tCovQZ1V7CpUD2I4owTUe7cqRaOdOrPG8aaUaIYgYqhFzkCqWKNCzmSRORwuefoQFA0UMjhhwuCQZUiRnqo8fkJOLypTpkox65AlAjGgFHK0VxRmj6nXVexllf65T55kTkkmDAS6Y61DtaD3LWICMhHYYjJShdW4rStVJKlq9rNH2rCHErVPpkePbhkOsoMMG6Nd157rH0C4vzSg1zvacq1RXufI/2JauVRg91caVnMY2dxjONWj6aUSHIF7WouCDSjNITBLdOVukwyiM6OEfEslTLlQXfTyDjDFUQ2dxIFDq2Whj1eiTnlQMAyvPkFKena9ENoGW/Z7pTN2qfdqyX/7//NVQ6U6OKUGtzHV7aX32de0qVHsa67vC8R0dAcN8iGAxVqDpjQrb8NNTxlNX04xA98EhYhCU52eotI0y7IvIpzlDgajW4b5FUX0jLc0vJUuWY80vRwlByxJFJodjPUgFBcAzDHWhrig+O1ggvUt1GFI1Id5bLfwuH12hfoisLJNtUI71/OdXKczsGHjSeaRR8yBed50gOqpMMyntsFaXRJgAgzQirKRslR1SebijStBwTdElNpyWo2cpWEqJRi89BRVsb2quLAABF1W1SitOeHMQCSHmoCEA5PnSkY9k+xHvHgKKfSusBAPvKgeo2tLcdR9nqBmx/WQpcuuuKkLevCNVt0jGrtzRge6YcyMgpVVllx6XzVRehYftKKe3LR0A02uDEMeyts0U1YRGWKDcoLghhR+9EZDy+xv34DrtyVfLJ1cb3J5qEnH00AOzKlVMm42B4XA5JdlWqTizYfFzeyxncW5H4uqIPhuO6c6ZbSSlS6hV3X6lbki5FZ3ipnuM+Uamgmt7lkfal+PGaaFSuL6UW1gPFNagypMNQWYMSR7oWJymk24gmwYczKPB1AXqMb638ceRlxxmq3G8IaUavnEv3pwQcopcorJauR9lqoPyk1PbR8k4JGlaX4kdLFds4X8dCuBfAsc8gohsfvt8AoBx5cstG3j7XLt3NDWhAFh5Ol0OYpQ+gCPJ5fAREFWtiEbxmVBfWAzkm5Mn3FudkYo4WCh+VGneKSonKUJsucUhPW6S+ii0fRD64jzoFAKVr5RaDtDyYcnyPBuesE/z4stzHwpWBoTZfhv8RrVQGpThjQrZcf5ECGuVDT7XO4q5+H9k5UguG29wjR0qc94IqA9yDF8dDVVHxYFZ+sGs1ZXvVo7yCF6JxRJM+H86cSyWvISb9DyfZ5Xdm4eBmKyWiUIhFzk+LsD3vNFo2Ax/uA4qqFa0eI1ldihN7vLcPU4KVt+PS09SSx+UWWUuFK9Xq+SoYHpfuUYXLKrBI9WGG9Iff6LXcJaBOowD7fBD54ki7Lq6RgohlhahHKXL3ZkDcmg5Dpeew2S7u9QZHHUNqkXC1KpagRsxAk5CL0sJqNBuCeHCp0nejy5wPoXCJ95wgyjpPcQ2qfnwZ+bX1KH3djLxKAy4p+ndUrBRhTIuDodIKuPVRc9R1OMM53d4iMtQuII9UAQDFJvnpXj0KX/DdbOjo0+E+3JzjGYJr9k/mPBJpaOkDKEI58vQbUI4iPLjUx3a2Wry1D8CWB5DibAUpwZ9VRtCKFfQAGvBesxyGtJ5GOYLsXB6IlUbXfcJZMVA8BJHTPaU/+AGOPjNabPkgUuFo9ZD7XiUY8JIpG9kmq+Lpv29xD6xBNhytC1UwdCr6dhSXyK0QZ3G50zEylZ/+IwGShgMuRaWj5cExspUytWur9F4KiuFssXA++DijUndR9OvwbrFRtMhwhnO6TUQg+HBM7gNIF6FBylsEpIuQeYtE44sjvcqjw7kkBT8qywIAZJWt9x7u9lgJVuj1SM4sQcOWg2jfLG2RsrkN1VsUx9Trkbxf7rq+9AmcKMtCw/aV0vK8chRVt6HAV2ATDOfgFdK8QlJap6OCU4Ia0b31VZpnYISZjYkoLByTDGabXnJel3GGKvWn+s7R5BRzdyQYUCWKMCZ4BAA5Jli3Zsgb1eNSp6JT+65cj/nG0pFRLG1X+MeRApMuXP4bAJSgwJE25UjFVBlsIn2lR7AQ0j5mROPXlOHh4eFgdrBYLEhLG12TgtuwccU1Xk8ulOuVw+yqDo0ZIDY/0mQ1mmv1q97eoM/TXVeEFdv1qHaba6MbtU+vxHaop1Zp5c7ZsxWv5AcfOSZYKw2A31ROT/7THEbc23kfcjx8KUHNESBXZXZzX5hGSrez4O9H8t/++7zrCq6DeqZvq11rzjUwmZag8N1EWCsNiHMMvSvfD+I8judedwiuHqJ6rXoN9SuX6UwVFv1ROaSu8mGHr/My7Yq0MZY6vz+a9PlQ5l36+wPq6BvSvFdA7lpBysc+IsJYKWLkEbGJSHst+PP2BmSV/XLkSf4irRNATglqHBUNX2Pw++FslVV5eKLGe5x+934iouivxwjRZCZ12PZ7iaYZ/VxD6TAeKUHp2rOuVMpOM+oKXXNjZJusEJWV9DQjrKazqE70GOAmkLKMwDGynuO8bsGBo1+sHPzkCqXyNvJ6RYDkfU9RpIqqBGNE45GmLR9EpJ3RXKs3+/pgt9sD2rZlvzxKlWrH8ci3fOh0OsyIiYnAmYnIE+sORLef27rlg4huD9OmTw84+EjZ3Ib2zb7WxiJnTxsi2V962vTpETw7ERERqYnQaFdENB5FRUUhZuZM6HS373MJnU6HmJkzERUVFemiEBERkYfbt4ZBRGERFRXFdCUiIiIKC7Z8EBERERGRJhh8EBERERGRJhh8EBERERGRJhh8EBERERGRJhh8EBERERGRJhh8EBERERGRJhh8EBERERGRJhh8EBERERGRJqYMDw8PB7ODxWIJV1mIiIiIiGicSEtLC/kxRzXDeTgKQkShZbFYeK0S0bjA+xHR7SdcDQ5MuyIiIiIiIk0w+CAiIiIiIk0w+CAiIiIiIk0w+CAiIiIiIk0w+CAiIiIiIk0w+CAiIiIiIk0w+CAiIiIiIk0w+CAiIiIiIk0w+CAiIiIiIk0w+CAiIiIiIk0w+CAiIiIiIk0w+CAiIiIiIk0w+CAiIiIiIk3oIl0AIhpfBgcHMdDfD7vdHumiaEqn02Ha9OmIioqKdFGIiIgmLLZ8EJHT4OAg+m7cmHSBBwDY7Xb03biBwcHBSBeFiEKiC+aCCjSPtFmnGfmCAMHxs3fEPYhoDDRq+ejBqZoOnJw2F09l341or/VXcPT3n6MzLQmblswJ6pht33Ls4/maiII10N8f6SJE3EB/P2bExES6GESTXvNeAbm7RrlzcQ3ErenIeOQsUgvMsFYaEIdmVAi5KPXcNscEqyiiSu04nWbkLytE/SjOTUTqNAo+BtDReh3FtuvonDMPu5bP9ljfD+vp67DMH8CmJcEd8+g0xz6er4koWJOxxcMTPwOi8SF9qwhxq4+VclCw5IgIY5rvY8QZXoLp3VTsMGegypAOoyjCqFjfvFdALhYhzm9JsmE6UwVDgmtJlzkfqRcKvIIM6XhE5I+2aVdTgQMHPsbRHk3PSkRERBNGF8wv1GHNGf+BhyQOhsdLUP9uE7q0KBoRjUjb4CNlHl5ZcAubXm2Hze+GF/DKjia8cs59qe2vZ7Bq38cj7EtEodOCSr0exrpuoPU1JOuLUBvgBdiyX94vgO2S9a+hZYwlDbRMyU/Xolv5vojottK8NxWFtfWoOx1gOJFmhFhpwKW9in4d8k/uLgC7cr2W55sZqhCFi8ajXcVg3ZM6ND73BbbV23AgO97HdsPo6RkCvvZYfNOOxmtMiSDSjgBhNdDmfK2H4OuyHS9aX0Py2wtxYk8OYj1WCYlZwCeu13rBcwsiGs+6zPloWlmDkl25OOt/S5gLUlFYCzjTplTSuKQ0qZH6aNSjcJmAQpXlglqflOKR3gXR5Kb9aFdzFmPXxmg01l3EwSsMJIhuB3ohFrhrIbLCcOyUzW1ob3sCKWE4tqp7BcTKQRUR3UYsFdiBl9xSrbrM+RAEtRGt4mCoFCGKNSgZ84mzYTojQhRdP1ZTttSxXHRfXsPAg2hEERlqN3r5Yhz+jh0b3/gYHUORKAERBSYWOXvaULAUQHwOKjyDBFstjHo9kuUfzzQmvSCi0rlekVrV+ppzn2S9IxVKqUWxn0p6lMf+la2KffLKgWMlWOFYv9+V0BW7phztm1Pc3xcRjX+WCgjHM1BlcO8aHmeogngEyBUECAXmkft1eAyr6512lQ9zZ7jeBBEBEZvnYzaW/2QBdl6/isJ3xMgUgYjGxlYLY2YDHm5sQ3tbG9rbDkK/faUcCEjK834HQV5fvaUcbzmCiKVPyPu0ob2x1KNFpRu1T7v2a287joff/7Wrr0nra0jOa0OZc70jiEhBQVsb2quLgNWlOOE4/mbN2lSIKAya9woQjmf4To1KM0qtEY/UITWgeTq8WzKkH1+tJEuwKEF1BRGNQuRmOJ+RhG0belD3+kXs1o/3JHIi8vL5Z2jY8jNUOC/fFDy4BXhL7AaWSn0pssp+iRx5fcpDRWg4KQJePTE82D7Ee8ca0HBMj+2KxUU/BRAPtJwsR1bZcedxiWiikuflCHDejDhDFUSD1NdDKDDJc3uMUecl1KMU9YLX7CBgnw+i0Ylc8AEgOmUxXnnAirTf2bAcgOvBwgwkxQGHRBuQ4qhh2NHZzRwtoklhdalqh3EimiykwOOsyQrREEwIIfX1MISoFF2XzkqTEHoEMpzng2j0IpR25RCD1J8kYheGcMpteSyS/8dUHH73Il5psaGn14ZT/9GMYi3G4iSiwNy1EFn7fudKh7LV4q19WXg4XS1k6Ebt2+UoeiiAFKh4AfpjJXjRxzC4KQ8VoWH7Id9D8961EFnHPgMTOoluZ9KEgJ59PEJDGr3Kc3hdwWv28y40vVsP3DfSJIREFIwIBx8Api7Cts1z8KjbQh1Sf7QQpvkDKHz9POY+cx47e+dh1/8V+eISkSw+BxXVemzPlDt2Z5ZAX13ulg7VsH2l3Cl8Jd77/vEAO3inoKCxFHDu69FZfekTOFHWhjyvDueucv18S7lr/X4+tSCanLpgLshFKTznBAmwz4elGoW12TD9eOSUL6XsuxNDUXiiCWvK8PDwcDA7WCwWpKWNOKVo6Hzdh1tRMYhm3EEUlNFcq1/19oapNH74mZcjUu6cPTvSRSCaUEJbd3ClZPluGZHn+YAJ1ueBHcsKUR9g3xHnWfYKqLxb/RzKtKvmvfKoWQCcc4qwgzpNAOGq84e9z8eHHV9heZm2Tx4f0c9FfeH/oek5iWh0Wk6WA/ceHDeBBxFNBHFYdF8JarZKfTWqxAypI7oQ2N7ZJiuqtoqo8nV0Q5UztTNdZfJCIvIt7MHHg0l3YvjVFeE+DRGFgE6ng90e/sk/W/brkbdPfrG6FCf2jJ/hcHW6iI7DQUQjkvqDjLjVVqPiVWg7ohPR6PGvLBE5TZs+XZPgI2VzG9o3h/00ozJt+vRIF4GIiGjCYk8KInKKiopCzMyZk/Lpv06nQ8zMmYiKiop0UYiIiCasyVfDICK/oqKiMCMmJtLFICIiogmILR9ERERERKQJBh9ERERERKQJBh9ERERERKQJBh9ERERERKQJBh9ERERERKQJBh9ERERERKQJBh9ERERERKQJBh9ERERERKQJBh9ERERERKQJBh9ERERERKSJKcPDw8PB7GCxWMJVFiIiIiIiGifS0tJCfkzdaHYKR0GIKLQsFguvVSIaF3g/Irr9hKvBgWlXRERERESkCQYfRERERESkCQYfRERERESkCQYfRERERESkCQYfRERERESkCQYfRERERESkCQYfRERERESkCQYfRERERESkCQYfRERERESkCQYfRERERESkCQYfRERERESkCQYfRERERESkCQYfRERERESkCV2kC0BE48vg4CAG+vtht9sjXZQJQafTYdr06YiKiop0UYiIiCKOLR+ehvrQ09uDnn5WvGjyGRwcRN+NGww8Qshut6Pvxg0MDg5GuihEk0wXzAUVaB5ps04z8gUBguNn74h7ENEYaNTy0YNTNR04OfcubFu5wHt1bwfefKcHCd9LxaPfDM252r6VhE1L5gS1562OcyjcexVvfg3g/njcfCoabz5zAbsXxsOy5dsI7mijdPFj7P4rsO7fFiNJi/MRKQz090e6CBPWQH8/ZsTERLoYRLeN5r0CcneNcufiGohb05HxyFmkFphhrTQgDs2oEHJR6rltjglWUUSV2nE6zchfVoj6UZybiNRpFHwMoKP1OooXzMG2lSqr+/pw9PR1pC1FCIIP6VxHpw1g05Jg9utB4+GrqLt3Pq49fo8caFxF0iIdMuOjET3WYgXqWh+KTwMP/RsYfJDm2OIRPvxsiYKTvlWEuNXHSjkoWHJEhDHN9zHiDC/B9G4qdpgzUGVIh1EUYVSsb94rIBeLEOe3JNkwnamCIcG1pMucj9QLBV5BhnQ8IvKHaVdOA+i5ATz0rbmYc4cOuEMHYD4efWo53li/SLvgg4iIiPzogvmFOqw54z/wkMTB8HgJ6t9tQpcWRSOiEY3TDucX8MqOz4CNS5D5+Xnsfv8WOqBD5vcX4KnvLcIcZcjU9Sle+d9f4PCXQ5jzjVko/uld6of88gIOvvM53vy7HYiehnWrFmJTxgIpqDjXilUHrqOzF7j23nmsOnEeqQ8vxq7vAUf3fYzGJYux63uxwZVrqBvWYxfxyolb6MBUJH8nFttyv42kGcptetD+108Vx1mIbfNC/VkSjUULKvUb0FZ2HBXCISTntaGssRw58aE9S3ddEVZc+hnaN6cEvlPra0jOK5dfFKG67Qk49m7Zr0fePvdloeRZ3pb9euR9UooTewT82fF5rYkNw5mJqHlvKgprgexHumAw+G+zAACkGSFWSqlWNowAACAASURBVK0SqappXLkQPJZnm6yoCuTYRBS0cRp8DKOnZwiWmnY0xs7CpnVzgMtXsfPPF3DyH1Go+6Hcb+TKOWx86Spsi+dg27oYoKsHO8suugcBKttF9/bilf/4FAfa+9H4WBKiF34Dz66bhsbD3Th19zw8mzYNcxfEALiOnmtD6Lg5FFy5hmw4+Nvz2NYbjZ0/iMeG6XZYj9rwreev4+QLqVg+AwB6ceqtc3jo7FTsyo3Hhtl2tH9wEZsGpwJsZ6FxQ4CwGmhzvtZDCHHgMTotqMxrQ1ljW8gDodEQErOAT1yv9QIDD6Jw6DLno2llDUp25eKs/y1hLpCCFGfalEoal5QmNVIfjXoULhNQqLLcM2gBABSP9C6IJrdxGnxIOmJjcfLxe6Sq+He/iaSvT0N/5kt0/HABknAVh/9wFe3fWeDaBsCjia1Ie2VA0V/iKo5WX0VHiiAFGvLSzKSzWFNmwwExCZsEAZnf/QK2o91oX/QNZH53vrzV9VGUC+g5fhnbembhsDPQADLTZmLO8x3Y+e4VKUg514GnLFNx4Lll2LBA+hoyvxuHhJfP4WBIP0WisdMLscBdC5GFzyJdFIlNRBv0eNBH4JGyuQ3tm7UtEu4VECsHa6LGpyaaFCwV2IGXUJV2CRXyoi5zPlILl6BGNMI9fIiDoVKEAc2oECrHeGL2+SAKpXHd5yNzSYKiDUCH5HtjgB47bADQ24XGi1OxccU97u0E938DTymHper/Eo2fTsWmVUnu2yXNxbo5dlj/uye05UIfLOduQf9AnDPwAABMFZCZMhVH//4VegBYW6/Des88PLpAGf/Nw6Mr2epB40kscva0oWApgPgcVLilMbWgUl+EWpv665b9elTW1cKo1yNZr0fy07XoVhy5u65IWq7XY8X2Bo/ztqDSsZ9eD2OdvKdNPl5mCRpQjjxf61XOB1stjE/Xona/67iVrR5nVawLpryxa8rlFCzF50VEoWOpgHA8wysVKs5QBfEIkCsIEArMI/fr8BhWN3cXgF25rmF2hXyYO8P1JogIGOctH3Nn+BmWss+OTkzFQ3M9V0zDDGX9/doAOjCE3WUn8JjKYdbdHAhtuXAdti+BxnMdmPJBh/fqeDtuAbjVNwT80zSv4XujZ4zrr4QoKOXbG1DW2IaK+G7UPr0Sf27NQcFSuc/E+1k40VaOWDj6UDj26kbt07+D0NiG9njH61+jNr0cOfE5qGjLkQKJzM/wc88+HY71ra8h+W2VAh0rwfZ7D6K9LUXephY/2pPjLMNbicfR3ialTHXXFeHFugdRsSZ2hPISUTiNmBqVZoQoGqXWCKEwgKFuvVsy5DP5aCVZgkVe2xLRaGlU052F+G8AGBpSXz0EAFMRPT2IQ0ZNRTSGcPOmysEGPbfT4cBzy7FBZYqR0JuKaB2w7tFv45CfZPTOOwBclwIRt7YO+xDGeYMUUcCyyn4p98mIhXAv8J7YDSwFPny/AUU/lSryXmwf4r1jDWg4psd2xeKinwIYc/+OIlQ7OrXftRBZxz6DCCAW3fjw/QY0HGtAsvKkW34GYITyElGYyPNyBDhvRpyhCqJB6ushFJjkuT3GqPMS6lGKesFrdhCwzwfR6GgUfMQgaYEO+OAqGm/eg0xlOhLs6LD04vDUaDz1rSAOGTcLaTO6cbjlCjYlKaKKnmto7PLervFvV7FhgXIoqauwidMQL8wa1TvyLRZJd0/F4XPX0JMT79ay0dNlQ/SceETfASR9Mxr4cy9O9gOZzqDLDmv7LQCciIwmudWlOCG3SGgny8dIXt1qGxNRWEmBx1mTFWJQo045+nqERtels9IkhB6BDPt8EI2eZo/Ykx6Jx86YW9j4QjMOd3Sjp7cHPb02nHrHio1H7diwZqGiEh6IRdj48DRYPriI3S1XpUU9l/Hma1fRNsN9u00/iEbd4Y/xm9M23BoC8PVVWA+dR+pv23E0+C4fI0p9NBZPXe7Gxt9/Clu/HcAAetrP4qkXzqO4SSrrnOWx2BnTh+f2t6Oj3w4M9cHW1Iqd/ofvIBpnGiB+Lv2vZf8GlPvfWCa1gpSfbJFetr7m3ociXoD+WAlerNOy0h8L4d4GbH+5ViXUGKG8RBQG0oSA4RnuVhq9ShA8fzxnP+9C07v1wH0jTUJIRMHQroPBjCQ8+5wOSb+/hKfK2uHso3qHDjv/1z14dmXw+RTxq5PR2NeO9W+cQ/EQgKlTse1H8Sg8fgWHFNvN+d5SnBw6i8KD5/Hc789L+86Oxu6nF+NRz04XoTBnMUzPDKH41StIePqKtGzqVGxbk4Sd35NbX6Yn4dlf2IHdNnzraam6kxQ/G4dyY3D4QBjKRBRyKfhRWRZW5OlRDiCr7CDKVv8usD03H0SRfgOS90Fq5aguwoqTruMWNJbCmLlSkQIV4JwdbnN/ACv0JQG3oqRsPo6yp1dK+zjOWi11HvdfXiIan7pgLpACiuzTyjlBAuzzYalGYW02TM+PnPKllH134hjKTDTxTRkeHh4OZgeLxYK0tBGnFPXv6+vouWkHpk7DnFkhSDGSjxc9Yw6i7/C34QBu9fbhVqjOG4ibPej5eiqiZ81GtGo7kx23rl/HLWhYJpoURnOtftXbG6bSEADcOXt2pItAFBEhqTs4uVKyfLeMyPN8wATr88COZYWoD7DviPMsewVU3q1+DmXaVfNeedQsAL4DG6LbT2ivW5ewt3x82PEVlpe1hPs0E1LZuiQUf1+IdDGIiIhuM3FYdF8JarZKfTWqxAypI3qAf1KzTVZUbRVR5evohirnfD7pKpMXEpFvYQ8+Hky6E8Ovrgj3aYgoBHQ6Hex2e6SLMSHpdBxGmyg0pP4gI2611ah4FdqO6EQ0ehzTlYicpk0PatQHCgI/WyIiIgYfRKQQFRWFmJkz+ZQ+hHQ6HWJmzkRUVFSki0JERBRxrGEQkZuoqCjMiOHgB0RERBR6bPkgIiIiIiJNMPggIiIiIiJNMPggIiIiIiJNMPggIiIiIiJNMPggIiIiIiJNMPggIiIiIiJNMPggIiIiIiJNMPggIiIiIiJNMPggIiIiIiJNMPggIiIiIiJNTBkeHh4OZgeLxRKushARERER0TiRlpYW8mPqRrNTOApCRKFlsVh4rRLRuMD7EdHtJ1wNDky7IiIiIiIiTTD4ICIiIiIiTTD4ICIiIiIiTTD4ICIiIiIiTTD4ICIiIiIiTTD4ICIiIiIiTTD4ICIiIiIiTTD4ICIiIiIiTTD4ICIiIiIiTTD4ICIiIiIiTTD4ICIiIiIiTTD4ICIiIiIiTTD4ICIiIiIiTegiXQAiGl8GBwcx0N8Pu90e6aKMKzqdDtOmT0dUVFSki0I0aUzk+xHvKTRZseWDiJwGBwfRd+PGhPxDP1Z2ux19N25gcHAw0kUhmhQm+v2I9xSarDRq+ejBqZoOnOxxXxo9fzYezfgmkmaHpxg9Z8/hzb/HYFNuEuaE5QxEE8tAf3+kizDuDfT3Y0ZMTKSLQTThTZb7Ee8pNNlo1PIxgI7W6yj+b+XTiyG0n7iCb+1oxsEr4XmqcUvsRXFrH26F5ehEE89EfcIYSvyMiLQxWa61yfI+iRy07fPxzVhs+7ckxYJerHulFave6cC6p76NaE0LQ0REREREWopwn4/Z0H9LB3w5ALeMrKFuWOub8diOJqzacQqFv29He6/3k4Fb4nm8svsUVu1owqqXm/Hm6S9GPuWXF3DwjdPSPi+ewStNV7xbRnov4/Dvz2C9r/Ofa8WqHa2w3hRx2HGsl5tx+JMezyMR3eZaUKnXw1jXDbS+hmR9EWptynXK1yE86349kvXST2Vr6I+vylYLo3y+7roiJOtfQ4tGpyaiCOrqwL8+04rZz7Ri9u4OfB7p8hBNcJENPoa6cbLNjvi4aFefjCEbDv62HY/+v0NYviYez66bh6SL3dDvPItTN1273mqxIvMlGxrnz8Oz6+Kx7d4hHPzDx9hY76cmdOUcNj5/GW/ejMG2dfF49p91aPyPT5H5RocrALnZgd/svICn/j4V65XnL2tHx5C8zddDaOzpw66Ky7AsnIdn183Hhum3sH5vO94UQ/4pEUWQAGG18rUeQnz4z5qyuQ3tbcdRtnrkbUMmXoBe+Xr1Qgganp6IRqAMEuSfsnMhOG5cEv79t0vR+5MZITgYEY1E27Sri93Y/XtX60DnxT60f2MeGn96jzPlquevF7HxSjQ+KFuGTPk+kJn2T0jYeR5P/fkCLD+5Gxi6gFf+cB1zVyXh0Hq5evDde5C5qBkPvXURh5fHY51XD/OrOFp9FR0pAhofS3KeLzPpLNaU2XBATMImAUD/HUhdPh+NuYuRLIdmmf9jCO07rqLxIrDJmTU2hKRVS7Dzu7Oll2kzcOu5Dhw8LWKTwCoLTSx6IRa4ayGy8FmkixJmWRDuAmLdwxAiGjdm4P3f3ov/CQDnPsHsdzvwf9+fhLsiXSwiCpi2wUfvAI5+POB6bR9C27XrOHmlF8n3zAbQB0v7AOJTBGfgAQCYGo9HV17Gxj9fg/UndyP14lc4elOHTRnulfzo787HxuoLOHS6G+tWx7qfu/9LNH46FZu2J7n3LUmai3VzemD97x5AmAPMEfDoD50FxK3r19HTacc1DMH2D+WO05C5ZLaijALSvtWBwmtfj/LDIRqPYpGzp03+fw4q2jzX6yF8/hqSM8ull1sOon1ziryuG7VPr8T2Y/LL1aU4sScHjiuzZb8eefscxylCddsTSEFg3PZ1O24LKvUbUO7cUnFcWy2MLwMP31uC7fK+RdVtKFjq2DYFBW3ynvFPoH1PgIUhosiJn+4KPLo68K+7e3FEfrk2KxH/vmqu/Ooa/rT7EjZ1yS/jZuP8tkCDlisoe6YLv1Y7rsc5lcf9/IP/wjbMxNKGXnlfReBENIlpG3wsWYAPHlN2OB9AR00zvrXnPJJ2pyNz+nXYvgQeWjbTa9c5c3TAEKT0qH/Y0Yho7PRK/5iOhH8Cbg0Nee2PawPowBB2l53AYypFW3fTERT1or3xPHa/14e6XsAGIPkbOpWhenWYMT2QN000kZUj7+1SnGhrQyxaUKn/HWp/WI6ceCnweO/7x9G+Rw4L9uuxYr+A9s0pUvCAg2hvk8KN7roirHi61i048aW7rghvJR5He1us8/WLdQ+iYk0spACiDQWKbV+s65bXAThWgu33yudtfQ3Jb9fiRwGck4jGi5v4/jOOjmAz8P5vF0j/7erAv+6+gdxtS/HvcYAUMFxCWfxcbL9fCjxqUhLRKwcN/3mgFd8+cAW9GxeMcL5r+NPuq7h721L0xjlef4Y/fWcu/iUOcsqWa+v/PNCK/30O2H6/9PpIQy+W/mQpeu+X1lV8cE0REBFNThGe4Xwakh6JxbZjNpxqBzJTpiJaB/T0DXhvah+Cs4tKFBAPO272A3ALAIYAX3P1RE1FNHQ48NxybPBzr+lpbIf+8BB25iXBmjYf8TOmAejAb55kZw4ib1ko+4Wj8p6CB7c04MPPAcSLEI8V4ed7XNX6lIeKgLdFdEOA+EkWyn7haueITc9C1vbPIAIjBALd+PD9BjQca0DydsXiLT+T9/RobXFbBwBFqHa0zNy1EFnHAjknEY0fHmlXz3wivf7iaxxZMk8OPABgAf7PJV2osF0D7r+JC10zYFRU+v9nygzg3X58Dvhv/ejqQU3XII7sbsUmxeJffgHAGeS4WkUAYG38NeB++VxL4pyByDfjo3DEdhMAgw+a3CIcfAC4aUcPpiJhOgDEInXxVDS2XEPHegGuNhI7rO23gHtikQwA987CRtjQ2NKHzAcUE/P0XENj11Q8dPd87/PEzULajG40/u0qNiyYp1hxFTZxGuKFWQCA9r8PACkCnlWmdNn6YAGQFrp3TUSjloWyxnLkqHR87677NbajFCfapICou64IKy5pXkAi0sL9s/BLXMXFLoQ3lclPitZ/HujCr5fEOVtQ/vNAKyrCWRaiCUDb0a6+tqOnt0f+6Ub72Y/xmz3deHPWLGQuljZJWhWLp671oPBgB3q+BjDUB1tTK546Bex8eJGU/jQ9CRv/eSp+c+gcDl/sk3bsuYw3X+1GnTAPG5PVTr4Im34QjbrDH+M3p224NQTg66uwHjqP1N+246jcDz7+Gzrgk6s42jXgOu7vr+JkOD8XoonAVou39hXhwaWANEpWOd6q65ZXdqP27XJkff9BxCIWwr0N2P6OayDblndK0LDlgQD6fMj7vlyLbpW14qUG4F7B2f/jz9sbxvy2iGicOncdv8Y0fDMOwPw7sPbsVfzJ0aejqwMVZ6OQ+525AGbg7ribqPjgmrzyGv707k2sTZkzcp+PuOlY2tWLbc59la7hog1YGz9Dcc4QvC+iCU7blo+zNsx9RjEU7h1Tse7eeWj7iWtkKcxZDNMzQyg2iZj7/8mpTnfosOvni7FtiaOVQ4fU/3U/LFPbsf7lZqyXl2Ymz0PjY8nwNRLonO8txcmhsyg8eB7P/f48ACB+djR2P70Yj8qdOpJyk1AnfopNz5+GzXHun8Wj8PUwTGZAdNtrwPZMPaQMKKlFQgogYpGz5yBE/UpXetSWg2iX+16kbD6OsqdXItkxqNTqUpzY46Oj+jE9yuHqHO7Yd4W+xFkK57ofliIrcwOS98nlKSsC2PJBNIF49vmQU7DikvDvP/kEsxXpUb/8yVKpXwbm4l+23cSFZy5hdoN8Q1gS5+z/gXOfYPYfbjqP/+1nWhWtHQuwfVs//nW3Yl/neefiXx7pwqY/ONbNwJtZUagJ+2dAdHubMjw8PBzMDhaLBWlpWiQgSSNN3RrSYc7sWb43+/o6em7agemzMGd6oLHUAG719uHW1GmYMytGfZObPej5eiqiZ81GdISnYiQajdFcq1/19oapNBPLnbNnj7wRETnxfuQf7yk0HoWrzh/2lo8PO77C8rLJNU/wg0l34tT2QAcNJSIiIn/+aL2G/D9OjGbMu+7U4fyz90e6GEQRE/bg48GkOzH86opwn4aIQkCn08Fut0e6GOOaThf5cTqIJgPl/ejHqXPx49SJOUoU7yk02TChiIicpk3n5DUj4WdEpI3Jcq1NlvdJ5MDgg4icoqKiEDNzJp/EqdDpdIiZORNRUVGRLgrRpDDR70e8p9BkNTGvaCIataioKMyI8TEQAxGRhng/Ipp42PJBRERERESaYPBBRERERESaYPBBRERERESaYPBBRERERESaYPBBRERERESaYPBBRERERESaYPBBRERERESaYPBBRERERESaYPBBRERERESaYPBBRERERESamDI8PDwczA4WiyVcZSEiIiIionEiLS0t5MfUjWancBSEiELLYrHwWiWicYH3I6LbT7gaHJh2RUREREREmmDwQUREREREmmDwQUREREREmmDwQUREREREmmDwQUREREREmmDwQUREREREmmDwQUREREREmmDwQUREREREmmDwQUREREREmmDwQUREREREmmDwQUREREREmmDwQUREREREmmDwQUREREREmtBFugBENL4MDg5ioL8fdrs90kXRlE6nw7Tp0xEVFRXpohCR7Ha/H/G+QuSNLR9E5DQ4OIi+Gzdu2z/0Y2G329F34wYGBwcjXRQiwsS4H/G+QuRNo+CjB6dqrNhdfwG3VNdfwdHfW/Hm2R5NStNx3IrdNR3Q5mxEt4+B/v5IFyHi+BkQjQ8T6VqcSO+FaKw0Cj4G0NF6HcV/uYznTvWqrO+H9fR1HBUHNCmN7ZPrKG7t8xEIEU1et/MTxlDhZ0A0Pkyka3EivReisdI27WoqcODAxzjKJgciIiIioklH2+AjZR5eWXALm15th83vhhfwyo4mvHLOfantr2ewat/H8r7dOLqvCcV//QI9H1nx2I4mrNpxGrs/6gbQi/bGZuey3xy/onqWm19+it0vN2HVjias392Kxi6VlpcvL+DgG6exakcTVr14Bq80XXFrMXGUqUM8j9+83IRVO1phDeIjIRrfWlCp18NY1w20voZkfRFq/V+8ITpneM7Tsl+P5Kdr0a18X0Q0qX3+wX9h9gH1egIRhZ7GHc5jsO7J+Vh/pRvb6v3VLIbR0zOEnq89Ft+0o/Gao+lyCD3XhmA92YGnTumwbl08nlo8hF1vncdzr7fjucuzsGFdPJ5KHsKb/8+neO50n/uxbl3Hc7u/AJbF49l18/HotOvY+IIVB68omkavnMPG5y/jzZsx2LYuHs/+sw6N//EpMt/ocAUgN+1o7LyKwt3dwHfm49k1/4SEMX1GROOJAGG18rUeQnykyjJ2QmKW22u9EBuhkhBRsD7/4L8w+5lWlDkfTF7Dn3YrXxPR7UD7oXbnLMaujb1IOnARB5fGYsOCsRWhMWo2rm1JxhwA+O6duHXxY2y8Fotrv1gsL0vAnN5mbPzb59j5QJJrx54hZG5fhk1J8vm/exeSXmnFxpqLWLf5HkTjKo5WX0VHioDGx5IQLe+WmXQWa8psOCAmYZPgOBaw8bllY34vROOVXogF7lqILHwW6aKM3b0CYuWgSox0WYgoOHFRaH23A5/fn4S7Il0WIhqViAy1G718MQ5/x46Nb3yMjqGxHWvd/XOlIAMAMB9JCwB8I1qxLAYzpgM2z1aUuNnITFIGC7OR+UAMbGd7pbSp/i/R+OlUbFrlCjwAAElzsW6OHdb/7nE71nIGHjQhxSJnTxsKlgKI///bu//gqKt7/+NPs9v8AtcEEwgh/EgpeLMpJqQKQiu3NyHVC7l0hNuvFwNWja1alFwmBDNYe+db6UxKmqGBouIUbIcC14vg6AVGDeTbK19AsYRskd0rXLuAEQIbSb4rkB/kx/eP3SSbH5hfm8/mx+sxw8zu+ZxzPu9PZvaw7z3nfD4ZbLQ/RXLrsTJetW5h3/5sEqxWEjosYyp75Vbv27d71eZZApVg3UJZa20rcZe3tPab8ErbkZa+Wo+t2kfrWSr2sXLVPspuEVPUwiIczyS3vy4RGTpixrAy5jofuDoeuEhB3ifsdnXx3uVkWaGT3TtsWPI+YfdpJ8vybFgKnVz21l4UA7sLbVjyvHVcHftuOWZj2aGqtkOnz2DZcZHjO9qOayZG5OsF6DkfFuYsj2Xdtas8+1Y/f3s09fESJoQS37EsNpTF1OKsAKrqcdLEkwWHue1nvv+cPFkNl2p89oeYIKyP4YsMbUXkHkznsN2Oo2Q95O6hrPtGnnYXHudwQTpFS18nrmQn2dgpr2g7vvQPEzz92neSven11j0glfuz2TbpAxx2Ow67ncPzi/ml796N99awjRc9x3sVk4gMBbOSg8l6v5d7NFxu3o6ZxMEZjWRtv8nKHAuLXDc57z38TrGLcw8m4c5P4mw6Pv1XsbvwKlNyPMfc+ZP4YdkX7ZOTUy7+K9l7fHkYL73bltSISGeB+7k+LJ6cR6rZ/9p5Cq0BWEReUUsF0O7MV+rZSzCrxwJfBhGKmR0/n8MjscaHJzI0pFPwfAZRADFxWCmmvAKSu/1Ip1PwUDKcAJ57nIwYePVW/ZLMfc8V8+FlIKaSDw8WU/xeMQm5PtWfexxo2b+RzRMLva9jMtho7+clisjgkhjN1ne/YLdrQi8ahbEyLRJ2XGBRejSzOj7pa0Y0uYmel+PuHsWisjouA+Nc1bztauSdQhtZPtVfvAJEe99EW3g0sSW26bgTEZGvEdC1QqHJd7F59klSXq9gDvhs1A4jPhr2tPsW08Clyn6u0fJVcYPSGljQOmXRwMlTNyAmgvggIHo0KWGVlPz3VR6JHePT8CoV5cHExI32Xywi0gvpFJQUkTGEN76LSH9E8qMHXSz7aw0/NOJ00RbO5miPiYi/BGjZVYtwZi6fxG9o4li78igSvhXE3nfPs7msgmp3Bcf+4wSr/bl2YnQ9hRtO4XA3QNMNKo7YWHGsiZz0id7ZkIlk/VMo+/d+yq8+qqC2Cbh5lZN7zjIz36FnlYj0QPEF77JK2xaWbupjJxX72LYpm/uSAKKIm15M7q999nmIyMiTOJqk4qu83a6wkXNXPK+O73DxUh+7Pv6+G5IjPMlGdAhJLjc5vvs8RKRfAr9LOmgiOc9UU1Lg+23ezMx/nsDvnJ/z7GtneRZYkBLDb/6hkpRSP513egy/n1hJWt4xnABBQeT8Uzzr5lhaq0R8P4mjTad4dudZfv7HswDEWEIpXHUXCyK67lZEPJIfWk966iMkbAIeWM+ugnS29bh1MbmpVjwrqzwzHS0b3ZOf+YCCVfO437qmtXb2Lm0eFxlZYnk0/SrTiiHJ9/12Gy8Bi9Kj2VpxtefdnXJhyfNu5JgRjTstsvU8uTl1LCu8gKX4grcsjIP505nlr0sRGWFua25ubu5Ng9LSUlJSUgYqns5u3qDWFE7oQM3R1LmproPQ0ZavOUc9te4b1AYFEzE6fIACEfGvvnxWv3K7ByiaoeV2i6X7SiLSYxqPNK7I0DNQ3/kHfObjQ+dXzCkYWfea+T//ejffn35HoMMQEREZFt44WcVP3rjQfcVB4onZd/Lbh+K6rygyAg148nFf/O00v3z/QJ9GRPzAbDbT0NAQ6DACymwO/GpUEWk/Hj08M5KHZ0Z202Lw0rgi0ibAG85FZDAJDgkJdAgBp7+ByOAwnD6Lw+laRPpLyYeItDKZTISPGjUif6Uzm82EjxqFyWQKdCgiwvAYjzSuiHQ2dD/RIjIgTCYTYeG6sYKIBJ7GI5HhRzMfIiIiIiJiCCUfIiIiIiJiCCUfIiIiIiJiCCUfIiIiIiJiCCUfIiIiIiJiCCUfIiIiIiJiCCUfIiIiIiJiCCUfIiIiIiJiCCUfIiIiIiJiCCUfIiIiIiJiiNuam5ube9OgtLR0oGIREREREZFBIiUlxe99mvvSaCACERH/Ki0t1WdVRAYFjUciQ89ATTho2ZWIiIiIiBhCyYeIiIiIiBhCyYeIiIiIiBhCyYeIiIiIiBhCyYeIiIiIiBhCjSqoYwAAIABJREFUyYeIiIiIiBhCyYeIiIiIiBhCyYeIiIiIiBhCyYeIiIiIiBhCyYeIiIiIiBhCyYeIiIiIiBhCyYeIiIiIiBhCyYeIiIiIiBjCHOgARGRwaWxspL6ujoaGhkCHYiiz2UxwSAgmkynQoYiI11AfjzSuiHSmmQ8RadXY2MiN69eH7H/0/dHQ0MCN69dpbGwMdCgiwvAYjzSuiHRm0MxHNcfednK0un1p6FgLC747mXhLWxiOPUdI/SCYrS/dywJLL/uPHEfOvFi/RS0y0tTX1QU6hICrr6sjLDw80GGIjHjDaTzSuCLSxqCZj3qctmus/h/fXy+acBy+yDfXnmDnxbbyyOhQ5saGMj6kD/2f6e1AVcmBTUdY/efKXrYTGZ6G8i+M/qK/gcjgMJw+i8PpWkT6y9g9H5OjyPlxvE+Bm8WbbaS95WTximmEAjHzvsOeeUYF1ER1VRPOmiajTigiIiIiMmIFeM+HBes3zfBlPS0rsir+/DFpmz6lwrea6zM2Fx4jbe0RlhTaOPbllW5mLFpmNK5Q/Rcbz/7yCGlrj/Hsv39Gxc2WPj9l9dqzrLsCR98/S9raI2w+PWAXKjJElfGq1crK/ZVg20KCNZt9Fb7HfN93pZJ9q6wkrNpHr+cXK/axsuXcflL2SkssPtclIsOHy8myPBvLDlUFOhIRuYXA3u2qqZKj9gZiokOJaCmraaCkymd60mEjbbMb7oogZ3E4uKpZV+AkIqiJ2m/dasbCM6Nx8qiTLFMomQtiWOx2U7j3IjOrwPnMVEItd5C5uInQvZUcmzKGF1KCGT9hgK9XZMiJI+4BsLe+txIXE8BwesK2hYQ/TODwhgyiOhyKm5QOZ9reW+M61hCRQcvlZFmhm3d8il5cnkRuYv+6vXzoE6YVt98Qvih9En9Ki+x5+4oxuDO151SkJ4xNPs5XUvjHtl3nl87fwHHnGEoem0polw2usvcdN1V3x3L0p211FkyxMXdTPeO7OV1Jw2j+lpdIvHd+Z27Ix4TtuMrRuqmkhsQw854gHAcqcUy8k9R7xvb/+kSGKWtcFIybQDpf9LJlFBkb7GT05aQxGWy096nl15seR5Q3qSr3f+8iMqDCOJg/nVkAp89gedfJo4nxjGs5HB3Pn/J71+O4tG/jTlMSIWIUY5MPdz0HPq1ve9/QhL3qGkcvukmY2sWtrdwuSs4HkbmoQ3KScCdZEW4OdHO61MQ7WhMPgNCp4SzGTUUVMNh/vRUZFDzJg0cGG+0dj1uJu7yFhNQiz9vnduJ4Jtnz2raFhKVdlHuVvWJl6SbfknQKSorIiGl/LHuXnaeT2rf7cNJ67LlrKAZ4YL13lqOMV62P4D0j91vXdDp31MIiHC1Xs6HTxYjIUBMT0pp4HN9hY/4pz+vOMyJV7C68QJbLt8wnkbmlixTkXWNKej1Z3tmR1lmRdjMxLix5rvbHRaRLxiYfM2I59KTvhvN6nG+f4JsbzhJf+B1SO97h6kYDlwhibqfPcDBhXU+VtBMRHty/eEWkG0Us/cN6Dtvt3i//r7PvIU8CQdJTOOxPUbk/m/svtG9VuT+bpWfWc9ieQRSV7Fs1j/LHvO2A5GfsOJ7xlnd11txiCkrsbIzx1HnTlsHTSck8bbfz9NcsuxKRoa6G+Xk27+swDua3zVLMykzC7U0yznVodXzHBbJionHnxOJJKK4yJae7xKPtnFllFs7mxzPO5WRZoYvjaZHM8s6yaMZEpHcCvOE8mPgHo8hpusExRxeHTUGE0kRNTccD9dTUGhCeiHQjnYLnW77kJ3Pfc8WUX+5bT/bynm/+Ti940ZuoRBE3vXdtRWQoC+NgfhLu/CTcy2F+3hmO96mfRs5d6WldE1sf9S7tig4hiXrOu7prIyK3EvgnnNc0UE0QoV091yP6DlLvbGLrsc/blzur2FvdRX0RGRKivpNO+ntruN9qJcE6j9zpO9m4UPMUItILiaN5sYeJwKzkMDjlwpJnw5LnwpY+qd8b1UWkb4xddnWzgWp3S9bQwKXzX7L3zUq2jrZQeldXDWLJXHKZra+dY+HNG+QkmsHtZvPBeiIioP+TH8FEjIKjJ104vhtMfFgEod/od6ciI1PFPrZtyuaJZ7qvWvbWGqy77GxM6r5ur42bQPp7X1AOWnYlMpydvsZLBHMwuruKVex+t56tOUn8qNu6vTcuJhjK6rgMbRvfReSWjE0+TlUQmefzUIBvBLF4+hjsy+8i4RZzMKHJMynJcVD4ZiW/+hS4I5x1OZNxbj7Lnn4HFMGCpWPJ3HgFa95VcpZ/h9/MCe93ryIjRzG5qVZygZYN4y3byiv3Z3N/bnFrvYRNtG7+Tn5oPdtSrST4dtW6MdyzjyP3PW/5e1aK6Lzx/JZiMnjiOStLrbfe7C4iQ1XHPR8t+zY6bCjfbuMlWjaeR/KjB11YCm1k+fTUsjG8/a12PRvHe7VpPDGare9eYJo3Lm04F/l6tzU3Nzf3pkFpaSkpKSkDFU8PXWHnLz9lz713secf/XSL3LobEKLEQ4aPvnxWv3K7Byia9spesbJt0gdtS60q9rEytZgflLRtOg+k2y1d3H1PRPossOORdxP6gz53wDp9Bst2enC3K//RuCJDzUB95x/wmY8PnV8xp6CsT22bX74XZ/EpVv9PBFufmkaEd3ak1nGJHRVBpE4aA8BtPzvsr3Bx/Nt3+LtxSkJEBk4l5WeAST5Fl7+gGCtPDILEQ0QGnzdOVvGTNy50X7EDd34SUMO5DvtCLlfUQ/QoJgOW1pkU/3li9p389qE4v/crMhwMePJxX/ztNL98f5/bxydaGF9cQeSqK6SOApqasLsh5XsTWZHoCb8//YtIG7PZTENDwwCfJYqM59fzfuo8EnJbytov2Qoks9nY1agi0jXf8ejhmZE8PLOvS5liyV1+DYt3KZZHGAfzPXew8iQoA0vjikibwf9piL2L3+VP5OefXsJ+HSCI8d+aQEKEnuEh4m/BISEGJB8M3NPL/SA4pKtb74mI0fw6HiVOx93LJ5/7k8YVkTaDP/kACAonJmGqHkouMsBMJhPho0ZRX1dnTBIyiJjNZoJDQjCZTIEORUQYHuORxhWRzoZG8iEihjGZTISFa9+TiASexiOR4SfwDxkUEREREZERQcmHiIiIiIgYQsmHiIiIiIgYQsmHiIiIiIgYQsmHiIiIiIgYQsmHiIiIiIgYQsmHiIiIiIgYQsmHiIiIiIgYQsmHiIiIiIgYQsmHiIiIiIgY4rbm5ubm3jQoLS0dqFhERERERGSQSElJ8Xuf5r40GohARMS/SktL9VkVkUFB45HI0DNQEw5adiUiIiIiIoZQ8iEiIiIiIoZQ8iEiIiIiIoZQ8iEiIiIiIoZQ8iEiIiIiIoZQ8iEiIiIiIoZQ8iEiIiIiIoZQ8iEiIiIiIoZQ8iEiIiIiIoZQ8iEiIiIiIoZQ8iEiIiIiIoZQ8iEiIiIiIoZQ8iEiIiIiIoYwBzoAERlcGhsbqa+ro6GhIdChGMpsNhMcEoLJZAp0KCLiNdTHI40rIp1p5kNEWjU2NnLj+vUh+x99fzQ0NHDj+nUaGxsDHYqIMDzGI40rIp0ZO/PhvsiBQ5fY+3EtToJIuCuCFQ9NI8HSxzDcZ1n9YgUn503h0JKJ/o1VZASqr6sLdAgBV19XR1h4eKDDEBnxhtN4pHFFpI1xMx8XT5O59jOePQVz5sfwwvzRhJ6vxLr2YzY7brTVc33K6rUfc8DVgz5DQomPNTMzOmTAwhYZSYbyL4z+or+ByOAwnD6Lw+laRPrLoJmPag7suorj7ljsP51KqLc0NdXNktdOMXe3kyW/SCQGoLEBZ3UD1T2ZoQyZyIrnNeMhIiIiIjIUGDTzUY3jAsRPvL018fCwMOfHM6j618nEABV//pi0317lKA2s++0R0tbaOAnAOTavPcLmU9WcfOtjlqw9wuo/V7aVn/Z2d9rmaVNTzt7ff0Ta2iOk/foEe89Udw7J9RmbC4+RtvYISwptHPvyCgc2tfQrIh5lvGq1snJ/Jdi2kGDNZl+FQaeu2MfKlnP7SdkrVhJW7aPS97pERIDjO2xY8s5wPNCBiAxzBs18jGXm333O6qOXOPndMcz03eMRYiHCu2oqYno0L9z8kl+9VcuctBhSI0OIB6CZ6uomjv6Hg72WcFYsHsP4O82t5dz09nWziZLqWn6z8Qbxd0fxQjI4/+8VlvzWwe/XziErzlvPYSNtsxvuiiBncTi4qllX4CQiqInabzUZ8ycRGRLiiHsA7K3vrcTF9Lx15f5s7r/wOI5nkgcgtt6Lm5QOZ9reW+OiAheMiPTe6TNYtte0vZ8RjTsz1vumit2FFzj3YBK5iQGJTkR6wKDkI5zUxybyu4LPSck7xpzJ4WTdO5bUOeOIDwturRUaO4XUoOtsfqse64yppHb4knNp4liO+izbgqouztVEfNoM1t1j8bxNCaP25052flROVlwccJW977ipuju2XV8LptiYu6me8X69bpHhwRoXBeMmkM4Xxp00JoON9gz/9zs9jihvUlXu/95FZKC4nCzbDgfzk5g1AN3PykzCPQD9ikh7xt3tKmwKK34RS6bzPHuKq9n7n+d48s1zpCaM4XdPJpIQ1n0XC1Imd1i21ZVgUmdY2t4GxZHyTSfPVnmnR9wuSs4Hkbloavu+Eu4kK8LNgV5dlMhwF0XGhpZ5jww22jscrtjHytQ1FLe8f26nZ5ajXXkxCZs8h9MLPmDjwijP8V/DE/OLWZpb3P4YnuVRS71tsnfZeTqp7ZRlr1j5cNJ67Lne/h9Yz+ENGUT5HG9p6z0rBSVFZMRA1MIiHC1Xs6HjxYjIoHblJu8AK7s4dPnQJ0wr9m4W3W7jJQBMbM35Nj+KxjNjUjaag7iYf8pT7cXl3hkSl5NlhW7eAYi2cDYnnnGtPV+kIO8aU9LryfL2vyh9En9Ki/Qe98y2ZLW7SU4YB/OnD0iCJDIcGPyQwWAi4qeR9VPIooHai+cp3HKR1A0OTq5NoLvVHGHmnoRrJuzrbn51o4FLBDE3suOBYMK6z2xExEfZW2uw7rKzManDAe+sxdcuu3pvDdvmf4DDXuRNVvZQtvApkoHkZ+w4nqlk36p5Xc5OFOUWU1BiZ2OMp86btgyeTvIs81p6Zj2H7RlE4W3/mCfxEJEhLnE6B2fYmJ9n65QkjEv7Nu60bpZdnXLxX8uTcGfiSUbedfJoYjzjouP5U35LWVcnriGrzMLZ/HjGuZwsK3RxPC2SWcDxHRfIionGnROLJ1G5ypQcJR4iXyeADxk0Exo7lRf+xcL4cjdHe3JrXX8wBRFKEzU1HQ/UU1NrUAwiw0TcpHSKllpJeKWsD62zecI70+FJVjyJR0+kF7zoTSiiiJsO9vJbbxz/umMiMrTMykzCnZ/E2eTrTMuzYdlxseeNoy082pKUJE7H3W6G4+uY2Pqot250CEnUc/6W31kaOXel5yGJjETGJB8Vp1nysyMUnu58n+tat2cmIsLSRbuBEH0HqXc2sfXY5+3LnVXs7eKmWCJya1ELi3DY7TjmfkSCteVOUgGM5zvppL+3hvutVhKs88idvrN1KZeIDB/j0r6NOz+aF09dZbdRP152YVZyGJxyYcmzYclzYUufpM3uIt0wZtlVzHiypl5l4R9PMv7xeBZ/K4rQJjfOss94dvsN4mfHMbdlqVS4mfE0sP8v5SyYF0GEZbSfg4klc8lltr52joU3b5CTaAa3m80H64mIAE1+iPRB0lM47LN51foR5dC6/yIqzgoHy6kkGSNSgFsuAxOR4cdVhw2Y0loQyeSYC7xdUQWJndZWD4Aqdr9bz9acJM++EhHpEYP2fIxhwcqp7HntPKs3OchsKQ6CR2bHsiMzvm3zt2UqOf/LzZNvOok8EMqhDfeS6ucHmIcmz6Qkx0Hhm5X86lPgjnDW5UzGufkse/x7KpFhzLOnIve9tpLsXfb2S6eSllDAPO63rgHabyrvcb/vWSmi88bzriQ/tJ5tqVYSfAtbNsGLyJDWblM50G5DudesH1ig8AKW4gtdHu9Su9v31jCtiz0lXYvkRw+6sBTayPIpbb8hXUQ6uq25ubm5Nw1KS0tJSUnp+xmbblB9rR4IInS0hdBbLvyqp7YuiNAQo/bEX2HnLz9lz713secfxxp0TpGB05fP6lfuoX2jybJXrGyb5JPgVOxjZWoxPyjp3abz2y1GrQMVGRmG53jUxQb302ewbKfLu11pXJGhpt/f+W9hwL/Zf+j8ijkFfdmMOjCaX74XZ/EpVv9PBFufmkaEN/mpdVxiR0UQqZPGBDZAEemjSsrPAJN8ii5/QTFWntDdrkSGtDdOVvGTNy4EOoxW7vwkoIZzHfabXK6oh+hRTA5IVCJDw4AnH/fF307zy/cP9Gl6JT7RwvjiCiJXXSF1FNDUhN0NKd+byIpEg+8+LDKImM1mGho63xhiaIgi4/n1vJ86j4TcljLPMz56s+jK3KNbeovIQPMdjx6eGcnDMwfbUqZYcpdfw9L6XBHwPOOj83ItjSsibUbmpyH2Ln6XP5Gff3oJ+3WAIMZ/awIJEcHdtRQZ1oJDQoZw8oFfnooeHOLnTWYi0idDYjxKnI47v/tqGldE2ozM5AMgKJyYhKndPthQZCQxmUyEjxpFfV3d4P9P38/MZjPBISGYTKZAhyIiDI/xSOOKSGcjN/kQkS6ZTCbCwsMDHYaIiMYjkWEogE84FxERERGRkUTJh4iIiIiIGELJh4iIiIiIGELJh4iIiIiIGELJh4iIiIiIGELJh4iIiIiIGELJh4iIiIiIGELJh4iIiIiIGELJh4iIiIiIGELJh4iIiIiIGOK25ubm5t40KC0tHahYRERERERkkEhJSfF7n+a+NBqIQETEv0pLS/VZFZFBQeORyNAzUBMOWnYlIiIiIiKGUPIhIiIiIiKGUPIhIiIiIiKGUPIhIiIiIiKGUPIhIiIiIiKGUPIhIiIiIiKGUPIhIiIiIiKGUPIhIiIiIiKGUPIhIiIiIiKGUPIhIiIiIiKGUPIhIiIiIiKGUPIhIiIiIiKGUPIhIiIiIiKGMAc6ABEZXBobG6mvq6OhoSHQoRjKbDYTHBKCyWQKdCgi4jXUxyONKyKdaeZDRFo1NjZy4/r1IfsffX80NDRw4/p1GhsbAx2KiDA8xiONKyKdGTvz4b7IgUOX2PtxLU6CSLgrghUPTSPBYkQY1Rx728nRyHHkzIvtf2+nTrP1b+Fk/TCeCD9EJzIY1NfVBTqEgKuvqyMsPDzQYYiMeMNpPNK4ItLGuJmPi6fJXPsZz56COfNjeGH+aELPV2Jd+zGbHTcMCKAep+0aq8/4ZzCrLXez2naDWr/0JjI4DOVfGP1FfwORwWE4fRaH07WI9JdBMx/VHNh1Fcfdsdh/OpVQb2lqqpslr51i7m4nS36RSIwxwYiIiIiISAAYNPNRjeMCxE+8vTXx8LAw58czqPrXyZ7E45SNhWtPcqzj5ESFg2fXfsRWJ0AlBzYdYfWfr1D9l5M8ufYIaWs/ovAvlYAbR8mJ1rJffXCxy2hqPzvN6l8eIW3tEZ78vQOHu/MvErXlZ9lceIy0tUdI+/UJtn50xQ9/B5GhpoxXrVZW7q8E2xYSrNnsqzDinH08T8U+VlqtJFitJKzaR2XHnl9pKfe5LhEZ0S4f+gTLjq6/L3Tr9BkseTbPv772ITLCGDTzMZaZf/c5q49e4uR3xzDTd49HiIWIEO/rRAtz3eXsOFbNnO+37aRwHqtmM6P5WzxAE9VVTZw86mTF7eFkLo6h9vQVVmw7S1VpEI6QCFYsjqDacYXV//4ZNSERrJvts87y4hWe3RrEnIUxLAhp4OSBK1jX1XL0f89kTpinSm3ZSVJfu8b4OWN54e/N1H5+lcLtn1JytYkd/6j5GRlJ4oh7AOyt763EDeaPQEwGG+0ZnkTpD50Px01KhzNt761xUcbFJiL9d/oMlu01be9nROPO7P8+zj5LnI4735PATBvwH2ZEhgeDko9wUh+byO8KPicl7xhzJoeTde9YUueMIz4suK1a0EQWzL5IyonLrPt+hHcj90VKShtYcO+dxPv0WGKyUPVcgqfOPbdTe/5TMquiqHr+Lm/ZeCLcJ8j878usm+3T8koQjxTcS6o30UhNGUXEvzlZ9+5F9j8UC03n2Lz9GpFp8exZEuepdM9UUieeYO628+ydE8Ni7TCXEcYaFwXjJpDOF4EOpf+mxxHlTarKAx2LiPScy8my7XAwP4lZgY5FRPrMuA3nYVNY8YvZVOXGkBXZxN7/PMc3cz4ibdNpHK0/YpiZec9oZn5WTUm1t6j8S/Z+aSZzTvtfNhYnRvrcZWos8bHAnaE+ZeGEhUDFzQ5x3D2mNfEAICiO1NlmDpyqogLg/FccqDGT+d24ds1C7xlLZlg9ez7SMg0ZSaLI2GDn6SS8swpPkex72HeZk9VKwitlPuXtl05V7s/2WfK0hX37s0mwWnnV5lkClWDdQllrbStxl7d07tfTE/tW+Zyzi+VVt7yahUU4nkluf10iMjRcuck7tzh0+dAnWAqdXG4tqWJ3oY1lh6o8SUuhk907bFjyPmH3aSfL8mzt6i+Kgd2F3uVTeZ+w2+XTuctb3/tv2aGqgbpCkRHB4Od8BBMRP42sn97L/g1zqPl5LKmVV0nd4KD1O0rCnayIqOdA6VUAnB+5OTA5ggUdl3qY+hb64thRncriY4Khoh4nwP9roIRQ4jstLQlh/B1Q29TUp/OKDEdlb63BusuOw+7994w3NYnJ4Inninn/REtaUMmHB4vJfiwDz0KnInIvPM7hgnSKlr5OXMlOsrFT3joQFLH0DxM4bLfjsO8ke9Pr3kSmkn2r5vH+/A9az7lr+hrub5eciMiwlDidgzNqmN8hcQAYlzaGF13X+aAlaXBV87YrjJVpkd73bt6OmcTBGY1kbb/JyhwLi1w3Oe+t/k6xi3MPJuHOT+JsOmS9792/4XKyrPA6P8zxHHPnR5NUfIGC0wZds8gwFMCHDJoJjZ3KC/9iYXy5m6OtvzLEkXqvma0fX6aackpONLFi9ni/PUtjb0VNp7IKVz1EB3s2vZsghgZqOt2Rtwn0jCCRduImpVO0tOPMhEfyQ+vh4IeeWYmKD3mf9fxz60xDOgUPeROV5x4no1Oyn07B8y2JSjL3PVdM+WWAcsrfy+aJhW17NZLnZsOZ8h7PfojI0DUr05sgJF9nWrtN3rE8mg5v/9UzK3H5r9chPdpneVZbIrKoXbnXjGhyEz0vx909ikUVdZ7k5spN3pkxhh9Ft1SM5e9ngK1Csx8ifWVM8lFxmiU/O0Lh6S7uKuVu4BJBRFjayuLnWFh8vpoDx6rY6Q5n8Rw/brL42zUc7SYvrnL0rw3ETAz37CmZPppMaikp6/DskeoqSlxBzJ0y1n+xiAxxUQuLPDMQcz/qvAQq5j5+wBretEHliWKYfx/a3i0i/jAu7du486N58dTV1iVS4+4eBcUujlPFB2Xww7sjAxukiHTJmOQjZjxZU5tY/ceT7HRUUnsTqHPj/OgkS7bfIH52FHND2tfPnNxAzo5q7IkR7Y/108wGN89uOevZC3LzKif3nGXFeTPr0iZ6KoTEk/m9IH615zR7z3sTkOrP2fpyJfvjxpCZ4L9YRIaNpKc8y6Pe+8JnE3cUGY9lU3R0C2/mWtvNVvRKxT62bcrmviTw3H2riG3725Zz7ftDEelKbERGHlcdNt/30fGsnFHDf+1wkRXjO1vRO8ffd0NyBOMAxn6DRT4JDi4nG0+ZlNiI9INBd7saw4KVU9nz2nlWb3KQ2VIcBI/MjmVHZnyH53+MIXV2KBXn6/nNvMkdjvVP/D9MZvWV88zMrvDsM/mGmd88MY2s+JY/hZmZ/5JIaZCDJb8+wRJvaWrCGEqeTNCDEEVaefZf5L7XVpK9y95+Q3rSbLKXPkLRczt5uld9F5ObaiUXgHQKSoq8/UaRsWEn5dZ5JOR6qz63E0dLYmPbQsLSotZe7reugQfWc3hDhpITkSHu8qFPmFbsu/7ZxNacb7dLMmYlhzF/ew0vLp/eu85PubDkeTOMGdG4W/aKRMfzp+VnsBTayPJWfXF5Uus528fk7SPQt/8VGeRua25ubu5Ng9LSUlJSUvp+xqYbVF+rB4IIHW0h9BZzL7XHPibszWBKC5KYORDzMzXVVN80E2EZfes6N69RXdMAIaOJCDEoTxPxk758Vr9yu/0cRRmvWh+BXUPrzlK3WyzdVxKRHjNsPDp9Bst2OJg/fdDdjlfjigw1/f7OfwsD/o36Q+dXzCno2Z1oml++3/Pi5kV2FNey4HsTmBkEt/3s8ABG2H+u9fcRNfobgQ5DZNCp3P86RQ+s5/AQSjxEZPB542QVP3njQpfH3PktA0wVu9+tYVH6JGYBljxbl/WN8MTsO/ntQ3HdVxQZgQY8+bgv/va2pKJbNyjZfIK00xATbeHAg55py563F5H+MJvNNDR0vjFEr7Uuf8pml31oLXkymzXLKTIY+I5HD8+M5OGZt95ncXyHjfmnaLdkqi0pCTyNKyJtBtmnIZi5P55BVVM3y6FEZEAEh4T4J/lIegqH/an+9xMAwSF+vMOFiPRZb8ajWZlJ+HvRqD9pXBFpM8iSDzOhoyP8usFcRHrOZDIRPmoU9XV1/klChhCz2UxwSAgmkynQoYgIw2M80rgi0tkgSz5EJNBMJhNh4eGBDkNEROORyDAUwCeci4iIiIjISKLkQ0REREREDKHkQ0REREREDKHkQ0REREREDKHkQ0REREREDKHkQ0REREREDKHkQ0REREREDKHkQ0REREREDKHkQ0REREREDKHkQ0REREREDHFbc3Nzc28alJaWDlQsIiIiIiIySKSkpPi9z14nHyIiIiIiIn2hZVciIiIiImIIJR8iIiIiImIIJR8iIiIiImIIJR8iIiIiImIIJR9+wfbcAAAATElEQVQiIiIiImIIJR8iIiIiImIIJR8iIiIiImIIJR8iIiIiImIIJR8iIiIiImIIJR8iIiIiImIIJR8iIiIiImIIJR8iIiIiImKI/w+hBNTi73CaKAAAAABJRU5ErkJggg==;movable=0;resizable=0;rotatable=0;deletable=0;editable=0;connectable=0;" vertex="1" parent="1">
                    <mxGeometry x="-233.99829367897746" y="469.00363636363625" width="799" height="519" as="geometry"/>
                </mxCell>
            </root>
        </mxGraphModel>
    </diagram>
</mxfile>